<svg width="156" height="37" viewBox="0 0 156 37" fill="none" xmlns="http://www.w3.org/2000/svg">
<g clip-path="url(#clip0_1_2828)">
<path d="M0.173645 0.968292V36.1195H51.6264V0.968292H0.173645ZM50.6356 35.1156H1.16275V1.93184H50.6356V35.1156Z" fill="white"/>
<path d="M24.8455 9.1611L25.8904 8.39587L26.9336 9.1611L26.5359 7.92199L27.5965 7.15501H26.2899L25.8904 5.90187L25.4892 7.15677L24.1826 7.15501L25.2432 7.92199L24.8455 9.1611Z" fill="white"/>
<path d="M19.4429 10.6213L20.4879 9.85612L21.531 10.6213L21.1333 9.38225L22.1939 8.61527H20.8873L20.4861 7.36037L20.0866 8.61702L18.78 8.61527L19.8407 9.38225L19.4429 10.6213Z" fill="white"/>
<path d="M16.5349 11.3462L16.1336 12.6029H14.8288L15.8877 13.3681L15.4899 14.6089L16.5349 13.842L17.5781 14.6089L17.1803 13.3681L18.241 12.6029H16.9344L16.5349 11.3462Z" fill="white"/>
<path d="M15.0835 19.2705L16.1285 20.0375L15.7307 18.7966L16.7913 18.0314H15.4847L15.0835 16.7747L14.684 18.0331L13.3774 18.0314L14.4381 18.7966L14.0403 20.0375L15.0835 19.2705Z" fill="white"/>
<path d="M16.9344 23.4757L16.5349 22.2191L16.1336 23.4775L14.8288 23.4757L15.8877 24.2427L15.4899 25.4818L16.5349 24.7131L17.5781 25.4818L17.1803 24.2427L18.241 23.4757H16.9344Z" fill="white"/>
<path d="M20.8943 27.4598L20.4948 26.2049L20.0954 27.4615L18.7888 27.4598L19.8476 28.2268L19.4516 29.4659L20.4948 28.6989L21.538 29.4659L21.142 28.2268L22.2009 27.4598H20.8943Z" fill="white"/>
<path d="M26.2899 28.9042L25.8904 27.6476L25.4909 28.906L24.1843 28.9042L25.2432 29.6712L24.8472 30.9103L25.8904 30.1433L26.9336 30.9103L26.5376 29.6712L27.5965 28.9042H26.2899Z" fill="white"/>
<path d="M31.6855 27.4598L31.286 26.2049L30.8866 27.4615L29.58 27.4598L30.6388 28.2268L30.2428 29.4659L31.286 28.6989L32.331 29.4659L31.9332 28.2268L32.9921 27.4598H31.6855Z" fill="white"/>
<path d="M35.6472 23.4757L35.2477 22.2191L34.8465 23.4775L33.5416 23.4757L34.6005 24.2427L34.2028 25.4818L35.2477 24.7131L36.2909 25.4818L35.8932 24.2427L36.9538 23.4757H35.6472Z" fill="white"/>
<path d="M38.3877 18.0156H37.0811L36.6816 16.7589L36.2822 18.0173L34.9738 18.0156L36.0344 18.7826L35.6385 20.0217L36.6816 19.2529L37.7248 20.0217L37.3288 18.7826L38.3877 18.0156Z" fill="white"/>
<path d="M34.2028 14.5914L35.2477 13.8244L36.2909 14.5914L35.8932 13.3523L36.9538 12.5871H35.6472L35.2477 11.3304L34.8465 12.5888L33.5399 12.5871L34.6005 13.3523L34.2028 14.5914Z" fill="white"/>
<path d="M31.3018 7.36212L30.9023 8.61877L29.5957 8.61526L30.6546 9.384L30.2586 10.6231L31.3035 9.85612L32.3449 10.6231L31.9489 9.384L33.0096 8.61526H31.7012L31.3018 7.36212Z" fill="white"/>
<path d="M56.7621 9.34188V1.93008H61.8123V3.18323H58.2484V4.93833H61.3238V6.19147H58.2484V9.34188H56.7603H56.7621Z" fill="white"/>
<path d="M63.0282 3.24466V1.93008H64.4412V3.24466H63.0282ZM63.0282 9.34188V3.97302H64.4412V9.34188H63.0282Z" fill="white"/>
<path d="M70.7422 9.34187H69.3292V6.60216C69.3292 6.02297 69.2995 5.64738 69.2385 5.47714C69.1774 5.30689 69.0797 5.17526 68.9436 5.08049C68.8076 4.98571 68.6453 4.93832 68.4535 4.93832C68.2092 4.93832 67.9894 5.00502 67.7958 5.14016C67.6022 5.2753 67.4678 5.45432 67.3963 5.67546C67.3248 5.89661 67.2882 6.30906 67.2882 6.9093V9.34187H65.8769V3.97302H67.1887V4.76106C67.6545 4.15379 68.2406 3.85016 68.9471 3.85016C69.2594 3.85016 69.5437 3.90632 69.8019 4.01865C70.0601 4.13098 70.2555 4.27489 70.3881 4.4504C70.5206 4.62591 70.6131 4.82424 70.6637 5.04714C70.7143 5.27004 70.7422 5.58771 70.7422 6.00191V9.33836V9.34187Z" fill="white"/>
<path d="M73.2298 5.61053L71.9476 5.3771C72.0924 4.85759 72.3401 4.47322 72.6907 4.224C73.0431 3.97477 73.5647 3.85016 74.259 3.85016C74.8887 3.85016 75.358 3.92563 75.6668 4.07481C75.9755 4.224 76.1919 4.4153 76.3175 4.64522C76.4431 4.87689 76.5059 5.29987 76.5059 5.91767L76.4902 7.57624C76.4902 8.04836 76.5128 8.39587 76.5582 8.62053C76.6036 8.84518 76.6873 9.08563 76.8129 9.34187H75.4156C75.3789 9.2471 75.3336 9.10844 75.2795 8.9224C75.2568 8.83816 75.2394 8.782 75.2289 8.75567C74.9882 8.99085 74.73 9.16812 74.4544 9.28571C74.1788 9.4033 73.8857 9.46298 73.5752 9.46298C73.0257 9.46298 72.593 9.31379 72.2755 9.01367C71.9598 8.71355 71.8011 8.33444 71.8011 7.87636C71.8011 7.57273 71.8726 7.30244 72.0174 7.06551C72.1622 6.82857 72.3628 6.64604 72.6227 6.51967C72.8826 6.3933 73.2559 6.28273 73.7461 6.18795C74.4055 6.06334 74.8643 5.94751 75.119 5.83869V5.69653C75.119 5.42273 75.0527 5.22967 74.9184 5.11208C74.7841 4.99624 74.5311 4.93832 74.1596 4.93832C73.9084 4.93832 73.713 4.98747 73.5717 5.08751C73.4304 5.18755 73.317 5.3613 73.2298 5.61053ZM75.119 6.76363C74.9376 6.82506 74.6515 6.89702 74.259 6.98126C73.8665 7.06551 73.6101 7.148 73.4897 7.22873C73.3048 7.36036 73.2141 7.5271 73.2141 7.72893C73.2141 7.93077 73.2873 8.09926 73.4356 8.24493C73.5821 8.39061 73.7705 8.46257 73.9991 8.46257C74.2538 8.46257 74.4962 8.37832 74.7283 8.20983C74.8992 8.08171 75.0109 7.92551 75.0649 7.73946C75.1016 7.61836 75.1208 7.38669 75.1208 7.0462V6.76363H75.119Z" fill="white"/>
<path d="M82.7528 9.34187H81.3398V6.60216C81.3398 6.02297 81.3101 5.64738 81.249 5.47714C81.188 5.30689 81.0903 5.17526 80.9542 5.08049C80.8182 4.98571 80.6559 4.93832 80.464 4.93832C80.2198 4.93832 80 5.00502 79.8064 5.14016C79.6128 5.2753 79.4784 5.45432 79.4069 5.67546C79.3354 5.89661 79.2987 6.30906 79.2987 6.9093V9.34187H77.8875V3.97302H79.1993V4.76106C79.6651 4.15379 80.2512 3.85016 80.9577 3.85016C81.27 3.85016 81.5543 3.90632 81.8125 4.01865C82.0707 4.13098 82.2661 4.27489 82.3986 4.4504C82.5312 4.62591 82.6237 4.82424 82.6743 5.04714C82.7249 5.27004 82.7528 5.58771 82.7528 6.00191V9.33836V9.34187Z" fill="white"/>
<path d="M83.618 9.34188V8.23441L85.6189 5.92294C85.9469 5.54559 86.1893 5.27706 86.3481 5.1191C86.1841 5.12963 85.9678 5.13666 85.6991 5.14017L83.8151 5.1507V3.97302H88.2269V4.9787L86.1859 7.34457L85.4671 8.1291C85.8596 8.10629 86.1021 8.094 86.1963 8.094H88.3821V9.34364H83.618V9.34188Z" fill="white"/>
<path d="M89.3311 3.24466V1.93008H90.7441V3.24466H89.3311ZM89.3311 9.34188V3.97302H90.7441V9.34188H89.3311Z" fill="white"/>
<path d="M95.2815 7.63416L96.6892 7.8711C96.5078 8.39061 96.2235 8.7855 95.8327 9.05755C95.4419 9.32959 94.9535 9.46473 94.3674 9.46473C93.4393 9.46473 92.752 9.15934 92.3072 8.55032C91.9548 8.0624 91.7803 7.44461 91.7803 6.70044C91.7803 5.81061 92.0106 5.11383 92.4729 4.61012C92.9352 4.1064 93.5196 3.85367 94.2261 3.85367C95.0198 3.85367 95.646 4.11693 96.1048 4.64522C96.5636 5.17351 96.7834 5.98085 96.7625 7.06902H93.2247C93.2352 7.49024 93.3486 7.81844 93.5667 8.05187C93.7847 8.2853 94.0551 8.40289 94.3813 8.40289C94.6029 8.40289 94.7878 8.34146 94.9395 8.22036C95.0913 8.09926 95.2047 7.90269 95.2815 7.63416ZM95.3617 6.19848C95.3512 5.78779 95.2466 5.47538 95.0442 5.26126C94.8419 5.04714 94.5994 4.94008 94.3098 4.94008C94.001 4.94008 93.7463 5.0524 93.5457 5.27881C93.3451 5.50522 93.2457 5.81061 93.2492 6.19848H95.36H95.3617Z" fill="white"/>
<path d="M99.2676 9.34187H97.8546V3.97302H99.1664V4.73649C99.3914 4.37669 99.592 4.138 99.7717 4.02391C99.9514 3.90983 100.154 3.85191 100.382 3.85191C100.703 3.85191 101.014 3.94142 101.312 4.12044L100.874 5.35955C100.637 5.2051 100.415 5.12612 100.211 5.12612C100.007 5.12612 99.8467 5.18053 99.7089 5.2911C99.5711 5.39991 99.4629 5.59824 99.3844 5.88432C99.3059 6.1704 99.2658 6.77065 99.2658 7.68506V9.34363L99.2676 9.34187Z" fill="white"/>
<path d="M104.368 3.97302V5.10507H103.404V7.26911C103.404 7.70788 103.412 7.96237 103.432 8.03433C103.451 8.10629 103.493 8.16596 103.557 8.21335C103.622 8.26074 103.702 8.28356 103.796 8.28356C103.927 8.28356 104.115 8.23792 104.365 8.14666L104.485 9.24886C104.157 9.39103 103.786 9.46123 103.369 9.46123C103.114 9.46123 102.884 9.41735 102.68 9.33311C102.476 9.24711 102.326 9.13654 102.23 8.99964C102.134 8.86274 102.067 8.67845 102.031 8.44678C102.001 8.2818 101.985 7.94833 101.985 7.44637V5.10507H101.336V3.97302H101.985V2.90592L103.402 2.07751V3.97302H104.367H104.368Z" fill="white"/>
<path d="M109.675 9.34188L107.524 3.97302H109.007L110.012 6.71274L110.303 7.62714C110.38 7.39372 110.429 7.24102 110.45 7.16731C110.497 7.01637 110.547 6.86368 110.6 6.71274L111.615 3.97302H113.068L110.947 9.34188H109.675Z" fill="white"/>
<path d="M113.605 6.5811C113.605 6.10898 113.72 5.65265 113.952 5.21036C114.184 4.76808 114.511 4.4311 114.935 4.19942C115.358 3.966 115.831 3.85016 116.355 3.85016C117.162 3.85016 117.823 4.11342 118.34 4.64171C118.856 5.17 119.114 5.83518 119.114 6.64077C119.114 7.44636 118.854 8.12734 118.333 8.66089C117.811 9.19444 117.155 9.46298 116.365 9.46298C115.877 9.46298 115.409 9.3524 114.966 9.12951C114.523 8.90661 114.184 8.58016 113.952 8.15191C113.722 7.72191 113.605 7.19889 113.605 6.5811ZM115.053 6.65657C115.053 7.18836 115.179 7.5973 115.43 7.87987C115.681 8.16244 115.992 8.30461 116.36 8.30461C116.728 8.30461 117.037 8.16244 117.288 7.87987C117.537 7.5973 117.663 7.18485 117.663 6.64604C117.663 6.10722 117.537 5.71583 117.288 5.43326C117.038 5.15069 116.73 5.00853 116.36 5.00853C115.99 5.00853 115.681 5.15069 115.43 5.43326C115.179 5.71583 115.053 6.12477 115.053 6.65657Z" fill="white"/>
<path d="M125.073 9.34187H123.66V6.60216C123.66 6.02297 123.631 5.64738 123.57 5.47714C123.509 5.30689 123.411 5.17526 123.275 5.08049C123.139 4.98571 122.976 4.93832 122.785 4.93832C122.54 4.93832 122.321 5.00502 122.127 5.14016C121.933 5.2753 121.799 5.45432 121.727 5.67546C121.656 5.89661 121.619 6.30906 121.619 6.9093V9.34187H120.208V3.97302H121.52V4.76106C121.986 4.15379 122.572 3.85016 123.278 3.85016C123.591 3.85016 123.875 3.90632 124.133 4.01865C124.391 4.13098 124.587 4.27489 124.719 4.4504C124.852 4.62591 124.944 4.82424 124.995 5.04714C125.045 5.27004 125.073 5.58771 125.073 6.00191V9.33836V9.34187Z" fill="white"/>
<path d="M134.26 9.34188H132.948V8.55384C132.73 8.86098 132.473 9.08915 132.177 9.23833C131.88 9.38751 131.582 9.46298 131.28 9.46298C130.668 9.46298 130.141 9.21376 129.705 8.71706C129.267 8.22037 129.049 7.52711 129.049 6.63727C129.049 5.74743 129.262 5.03486 129.687 4.56098C130.113 4.08711 130.65 3.85017 131.301 3.85017C131.898 3.85017 132.414 4.09939 132.848 4.59784V1.92833H134.261V9.34013L134.26 9.34188ZM130.49 6.54074C130.49 7.11466 130.568 7.52886 130.725 7.78511C130.954 8.15543 131.271 8.34147 131.68 8.34147C132.004 8.34147 132.281 8.20282 132.508 7.92376C132.737 7.64645 132.85 7.23049 132.85 6.67764C132.85 6.06159 132.74 5.61755 132.519 5.34551C132.297 5.07347 132.015 4.93833 131.669 4.93833C131.324 4.93833 131.053 5.07172 130.827 5.34025C130.6 5.60878 130.486 6.00894 130.486 6.54074H130.49Z" fill="white"/>
<path d="M138.743 7.63416L140.151 7.8711C139.969 8.39061 139.685 8.7855 139.294 9.05755C138.903 9.32959 138.415 9.46473 137.829 9.46473C136.901 9.46473 136.213 9.15934 135.769 8.55032C135.416 8.0624 135.242 7.44461 135.242 6.70044C135.242 5.81061 135.472 5.11383 135.934 4.61012C136.397 4.1064 136.981 3.85367 137.687 3.85367C138.481 3.85367 139.107 4.11693 139.566 4.64522C140.025 5.17351 140.245 5.98085 140.224 7.06902H136.686C136.697 7.49024 136.81 7.81844 137.028 8.05187C137.246 8.2853 137.517 8.40289 137.843 8.40289C138.064 8.40289 138.249 8.34146 138.401 8.22036C138.553 8.09926 138.666 7.90269 138.743 7.63416ZM138.823 6.19848C138.813 5.78779 138.708 5.47538 138.506 5.26126C138.303 5.04714 138.061 4.94008 137.771 4.94008C137.462 4.94008 137.208 5.0524 137.007 5.27881C136.807 5.50522 136.707 5.81061 136.711 6.19848H138.821H138.823Z" fill="white"/>
<path d="M142.729 9.34187H141.316V3.97302H142.628V4.73649C142.853 4.37669 143.053 4.138 143.233 4.02391C143.413 3.90983 143.615 3.85191 143.844 3.85191C144.165 3.85191 144.475 3.94142 144.773 4.12044L144.336 5.35955C144.098 5.2051 143.877 5.12612 143.673 5.12612C143.469 5.12612 143.308 5.18053 143.17 5.2911C143.033 5.39991 142.924 5.59824 142.846 5.88432C142.767 6.1704 142.727 6.77065 142.727 7.68506V9.34363L142.729 9.34187Z" fill="white"/>
<path d="M56.7516 21.768V14.3562H62.2135V15.6093H58.2379V17.2521H61.9362V18.5018H58.2379V20.5184H62.3531V21.768H56.7499H56.7516Z" fill="white"/>
<path d="M67.1189 21.768V20.9642C66.9253 21.2502 66.6689 21.4766 66.3531 21.6416C66.0374 21.8066 65.7024 21.8891 65.3501 21.8891C64.9977 21.8891 64.6697 21.8101 64.3854 21.6522C64.101 21.4942 63.8952 21.2713 63.7678 20.9852C63.6405 20.6991 63.5777 20.3025 63.5777 19.797V16.3991H64.989V18.8668C64.989 19.6215 65.0151 20.0849 65.0675 20.2551C65.1198 20.4253 65.214 20.5605 65.3518 20.6588C65.4896 20.7588 65.6641 20.808 65.8751 20.808C66.1159 20.808 66.3322 20.7413 66.5241 20.6079C66.716 20.4745 66.8451 20.3095 66.9166 20.1129C66.9864 19.9164 67.0213 19.432 67.0213 18.665V16.3991H68.4325V21.768H67.1207H67.1189Z" fill="white"/>
<path d="M71.2446 21.768H69.8316V16.3991H71.1434V17.1626C71.3684 16.8028 71.5691 16.5641 71.7487 16.45C71.9284 16.336 72.1308 16.278 72.3593 16.278C72.6803 16.278 72.9908 16.3675 73.2891 16.5466L72.8512 17.7857C72.614 17.6312 72.3924 17.5522 72.1883 17.5522C71.9842 17.5522 71.8237 17.6067 71.6859 17.7172C71.5481 17.826 71.44 18.0244 71.3615 18.3104C71.283 18.5965 71.2428 19.1968 71.2428 20.1112V21.7698L71.2446 21.768Z" fill="white"/>
<path d="M73.5717 19.0072C73.5717 18.5351 73.6868 18.0788 73.9189 17.6365C74.1509 17.1942 74.4771 16.8572 74.901 16.6255C75.3249 16.3921 75.7976 16.2763 76.321 16.2763C77.1287 16.2763 77.7898 16.5395 78.3062 17.0678C78.8225 17.5961 79.0807 18.2613 79.0807 19.0669C79.0807 19.8725 78.8208 20.5517 78.2992 21.087C77.7776 21.6206 77.1217 21.8891 76.3314 21.8891C75.843 21.8891 75.3755 21.7785 74.9324 21.5556C74.4893 21.3327 74.1509 21.0063 73.9189 20.578C73.6886 20.148 73.5717 19.625 73.5717 19.0072ZM75.0196 19.0827C75.0196 19.6145 75.1452 20.0234 75.3964 20.306C75.6476 20.5886 75.9581 20.7307 76.3262 20.7307C76.6943 20.7307 77.0031 20.5886 77.2543 20.306C77.5037 20.0234 77.6293 19.611 77.6293 19.0722C77.6293 18.5333 77.5037 18.142 77.2543 17.8594C77.0048 17.5768 76.696 17.4347 76.3262 17.4347C75.9564 17.4347 75.6476 17.5768 75.3964 17.8594C75.1452 18.142 75.0196 18.5509 75.0196 19.0827Z" fill="white"/>
<path d="M80.1448 16.3991H81.4619V17.1872C81.6328 16.9169 81.8631 16.6993 82.1544 16.529C82.4457 16.3605 82.7685 16.2763 83.1243 16.2763C83.7436 16.2763 84.2704 16.5202 84.7031 17.0099C85.1357 17.4996 85.352 18.1788 85.352 19.0529C85.352 19.9269 85.134 20.6465 84.6996 21.1432C84.2635 21.6399 83.7366 21.8891 83.1156 21.8891C82.8208 21.8891 82.5539 21.8294 82.3149 21.7118C82.0759 21.5942 81.823 21.3924 81.5578 21.1046V23.8092H80.1448V16.3974V16.3991ZM81.5421 18.9932C81.5421 19.5969 81.6607 20.0427 81.898 20.3306C82.1352 20.6184 82.4266 20.7623 82.7667 20.7623C83.1069 20.7623 83.3686 20.6307 83.5866 20.3657C83.8047 20.1007 83.9128 19.6671 83.9128 19.0634C83.9128 18.5 83.8012 18.0823 83.5762 17.8102C83.3511 17.5364 83.0737 17.4013 82.7423 17.4013C82.4109 17.4013 82.1108 17.5347 81.8823 17.8032C81.6538 18.0718 81.5404 18.4684 81.5404 18.9932H81.5421Z" fill="white"/>
<path d="M87.5273 18.0367L86.2452 17.8032C86.39 17.2837 86.6377 16.8993 86.9883 16.6501C87.3407 16.4009 87.8623 16.2763 88.5566 16.2763C89.1863 16.2763 89.6556 16.3518 89.9643 16.5009C90.2731 16.6501 90.4894 16.8414 90.615 17.0713C90.7406 17.303 90.8034 17.726 90.8034 18.3438L90.7877 20.0024C90.7877 20.4745 90.8104 20.822 90.8558 21.0467C90.9011 21.2713 90.9849 21.5118 91.1105 21.768H89.7131C89.6765 21.6732 89.6312 21.5346 89.5771 21.3485C89.5544 21.2643 89.537 21.2081 89.5265 21.1818C89.2858 21.417 89.0276 21.5942 88.7519 21.7118C88.4763 21.8294 88.1833 21.8891 87.8727 21.8891C87.3232 21.8891 86.8906 21.7399 86.5731 21.4398C86.2574 21.1397 86.0986 20.7606 86.0986 20.3025C86.0986 19.9989 86.1702 19.7286 86.3149 19.4916C86.4597 19.2547 86.6603 19.0722 86.9203 18.9458C87.1802 18.8194 87.5535 18.7089 88.0437 18.6141C88.7031 18.4895 89.1619 18.3736 89.4166 18.2648V18.1227C89.4166 17.8489 89.3503 17.6558 89.216 17.5382C89.0817 17.4224 88.8287 17.3644 88.4571 17.3644C88.2059 17.3644 88.0106 17.4136 87.8693 17.5136C87.7279 17.6137 87.6146 17.7874 87.5273 18.0367ZM86.9185 15.4479V14.2298H88.1292V15.4479H86.9185ZM89.4166 19.1898C89.2352 19.2512 88.9491 19.3231 88.5566 19.4074C88.1641 19.4916 87.9076 19.5741 87.7873 19.6549C87.6024 19.7865 87.5116 19.9532 87.5116 20.1551C87.5116 20.3569 87.5849 20.5254 87.7332 20.6711C87.8797 20.8167 88.0681 20.8887 88.2966 20.8887C88.5513 20.8887 88.7938 20.8044 89.0258 20.636C89.1968 20.5078 89.3084 20.3516 89.3625 20.1656C89.3991 20.0445 89.4183 19.8128 89.4183 19.4723V19.1898H89.4166ZM89.0799 15.4479V14.2298H90.2958V15.4479H89.0799Z" fill="white"/>
<path d="M92.1955 15.6708V14.3562H93.6085V15.6708H92.1955ZM92.1955 21.768V16.3991H93.6085V21.768H92.1955Z" fill="white"/>
<path d="M94.5575 20.2358L95.974 20.0182C96.0351 20.2955 96.1572 20.5043 96.3404 20.6482C96.5253 20.7922 96.7834 20.8624 97.1149 20.8624C97.4795 20.8624 97.7551 20.7957 97.9383 20.6605C98.0621 20.5658 98.1249 20.4394 98.1249 20.2814C98.1249 20.1744 98.0918 20.0849 98.0238 20.0129C97.954 19.9462 97.7952 19.883 97.551 19.8251C96.4119 19.5724 95.6897 19.3407 95.3844 19.1318C94.9622 18.8422 94.7512 18.4386 94.7512 17.9226C94.7512 17.4575 94.9343 17.0661 95.2989 16.7502C95.6635 16.4325 96.2305 16.2745 96.998 16.2745C97.7656 16.2745 98.2715 16.3939 98.6256 16.6343C98.9815 16.873 99.2257 17.2275 99.36 17.6962L98.029 17.9436C97.9714 17.7348 97.8633 17.5751 97.7045 17.4627C97.5458 17.3522 97.319 17.296 97.0242 17.296C96.6526 17.296 96.3857 17.3487 96.2252 17.4522C96.1171 17.5259 96.0647 17.6224 96.0647 17.74C96.0647 17.8418 96.1118 17.9278 96.206 17.998C96.3334 18.0928 96.773 18.2262 97.5249 18.3982C98.2767 18.5702 98.8018 18.7808 99.1001 19.03C99.3949 19.2828 99.5432 19.6355 99.5432 20.0866C99.5432 20.578 99.3391 21.001 98.9309 21.3555C98.5227 21.7101 97.9173 21.8873 97.1166 21.8873C96.3892 21.8873 95.8135 21.7399 95.3896 21.4415C94.9657 21.1432 94.6884 20.7413 94.5575 20.2323V20.2358Z" fill="white"/>
<path d="M105.434 17.9858L104.042 18.2385C103.995 17.9594 103.889 17.7488 103.723 17.6067C103.557 17.4645 103.341 17.3943 103.077 17.3943C102.725 17.3943 102.446 17.5171 102.235 17.7611C102.026 18.0051 101.921 18.414 101.921 18.9879C101.921 19.625 102.027 20.0743 102.24 20.3376C102.453 20.6009 102.739 20.7325 103.097 20.7325C103.365 20.7325 103.583 20.6553 103.754 20.5026C103.925 20.3499 104.046 20.0849 104.115 19.711L105.502 19.948C105.357 20.5886 105.082 21.073 104.674 21.3994C104.265 21.7259 103.718 21.8891 103.03 21.8891C102.251 21.8891 101.628 21.6416 101.164 21.1449C100.7 20.6482 100.468 19.9638 100.468 19.088C100.468 18.2122 100.7 17.5119 101.166 17.0169C101.631 16.5238 102.261 16.2763 103.055 16.2763C103.705 16.2763 104.222 16.4167 104.606 16.6993C104.989 16.9801 105.265 17.4101 105.432 17.9858H105.434Z" fill="white"/>
<path d="M107.911 14.3562V17.0819C108.367 16.5466 108.911 16.278 109.544 16.278C109.869 16.278 110.162 16.3395 110.423 16.4606C110.685 16.5817 110.882 16.7379 111.015 16.9257C111.147 17.1152 111.238 17.3241 111.287 17.5522C111.336 17.7822 111.36 18.1367 111.36 18.6193V21.7698H109.947V18.9335C109.947 18.3701 109.921 18.0138 109.867 17.8611C109.813 17.7102 109.719 17.5891 109.583 17.4996C109.446 17.4101 109.277 17.3662 109.073 17.3662C108.839 17.3662 108.63 17.4241 108.445 17.5382C108.26 17.6523 108.126 17.826 108.04 18.056C107.955 18.2876 107.911 18.6281 107.911 19.0792V21.7698H106.5V14.358H107.911V14.3562Z" fill="white"/>
<path d="M115.882 20.0603L117.29 20.2972C117.108 20.8167 116.824 21.2116 116.433 21.4837C116.042 21.7557 115.554 21.8909 114.968 21.8909C114.04 21.8909 113.352 21.5855 112.907 20.9765C112.555 20.4885 112.381 19.8707 112.381 19.1266C112.381 18.2367 112.611 17.54 113.073 17.0363C113.535 16.5325 114.12 16.2798 114.826 16.2798C115.62 16.2798 116.246 16.5431 116.705 17.0714C117.164 17.5996 117.384 18.407 117.363 19.4951H113.825C113.836 19.9164 113.949 20.2446 114.167 20.478C114.385 20.7114 114.655 20.829 114.982 20.829C115.203 20.829 115.388 20.7676 115.54 20.6465C115.692 20.5254 115.805 20.3288 115.882 20.0603ZM115.962 18.6246C115.952 18.2139 115.847 17.9015 115.645 17.6874C115.442 17.4733 115.2 17.3662 114.91 17.3662C114.601 17.3662 114.347 17.4785 114.146 17.7049C113.945 17.9314 113.846 18.2367 113.849 18.6246H115.96H115.962Z" fill="white"/>
<path d="M123.371 21.768H121.958V19.0283C121.958 18.4491 121.928 18.0735 121.867 17.9033C121.806 17.733 121.708 17.6014 121.572 17.5066C121.436 17.4118 121.274 17.3644 121.082 17.3644C120.838 17.3644 120.618 17.4311 120.424 17.5663C120.231 17.7014 120.096 17.8804 120.025 18.1016C119.953 18.3227 119.917 18.7352 119.917 19.3354V21.768H118.505V16.3991H119.817V17.1872C120.283 16.5799 120.869 16.2763 121.576 16.2763C121.888 16.2763 122.172 16.3324 122.43 16.4448C122.689 16.5571 122.884 16.701 123.017 16.8765C123.149 17.052 123.242 17.2504 123.292 17.4733C123.343 17.6962 123.371 18.0138 123.371 18.428V21.7645V21.768Z" fill="white"/>
<path d="M127.662 14.3562H129.15V18.3701C129.15 19.0072 129.169 19.4197 129.206 19.6092C129.269 19.9129 129.421 20.1568 129.661 20.3393C129.9 20.5236 130.228 20.6149 130.643 20.6149C131.059 20.6149 131.383 20.5289 131.598 20.3551C131.812 20.1814 131.941 19.969 131.985 19.7163C132.028 19.4635 132.051 19.0441 132.051 18.4579V14.358H133.539V18.2508C133.539 19.1406 133.499 19.7689 133.419 20.1375C133.339 20.5043 133.19 20.815 132.974 21.0677C132.758 21.3204 132.468 21.5223 132.107 21.6715C131.746 21.8207 131.273 21.8961 130.69 21.8961C129.987 21.8961 129.454 21.8136 129.089 21.6504C128.726 21.4872 128.438 21.2748 128.227 21.0133C128.016 20.7518 127.877 20.478 127.81 20.1919C127.713 19.7672 127.664 19.1406 127.664 18.3104V14.3562H127.662Z" fill="white"/>
<path d="M139.948 21.768H138.535V19.0283C138.535 18.4491 138.506 18.0735 138.445 17.9033C138.384 17.733 138.286 17.6014 138.15 17.5066C138.014 17.4118 137.851 17.3644 137.66 17.3644C137.415 17.3644 137.196 17.4311 137.002 17.5663C136.808 17.7014 136.674 17.8804 136.602 18.1016C136.531 18.3227 136.494 18.7352 136.494 19.3354V21.768H135.083V16.3991H136.395V17.1872C136.861 16.5799 137.447 16.2763 138.153 16.2763C138.466 16.2763 138.75 16.3324 139.008 16.4448C139.266 16.5571 139.462 16.701 139.594 16.8765C139.727 17.052 139.819 17.2504 139.87 17.4733C139.92 17.6962 139.948 18.0138 139.948 18.428V21.7645V21.768Z" fill="white"/>
<path d="M141.38 15.6708V14.3562H142.794V15.6708H141.38ZM141.38 21.768V16.3991H142.794V21.768H141.38Z" fill="white"/>
<path d="M143.913 19.0072C143.913 18.5351 144.029 18.0788 144.261 17.6365C144.493 17.1942 144.819 16.8572 145.243 16.6255C145.667 16.3921 146.139 16.2763 146.663 16.2763C147.47 16.2763 148.132 16.5395 148.648 17.0678C149.164 17.5961 149.422 18.2613 149.422 19.0669C149.422 19.8725 149.163 20.5517 148.641 21.087C148.119 21.6206 147.463 21.8891 146.673 21.8891C146.185 21.8891 145.717 21.7785 145.274 21.5556C144.831 21.3327 144.493 21.0063 144.261 20.578C144.03 20.148 143.913 19.625 143.913 19.0072ZM145.361 19.0827C145.361 19.6145 145.487 20.0234 145.738 20.306C145.989 20.5886 146.3 20.7307 146.668 20.7307C147.036 20.7307 147.345 20.5886 147.596 20.306C147.845 20.0234 147.971 19.611 147.971 19.0722C147.971 18.5333 147.845 18.142 147.596 17.8594C147.347 17.5768 147.038 17.4347 146.668 17.4347C146.298 17.4347 145.989 17.5768 145.738 17.8594C145.487 18.142 145.361 18.5509 145.361 19.0827Z" fill="white"/>
<path d="M155.383 21.768H153.97V19.0283C153.97 18.4491 153.941 18.0735 153.88 17.9033C153.818 17.733 153.721 17.6014 153.585 17.5066C153.449 17.4118 153.286 17.3644 153.095 17.3644C152.85 17.3644 152.631 17.4311 152.437 17.5663C152.243 17.7014 152.109 17.8804 152.037 18.1016C151.966 18.3227 151.929 18.7352 151.929 19.3354V21.768H150.518V16.3991H151.83V17.1872C152.296 16.5799 152.882 16.2763 153.588 16.2763C153.9 16.2763 154.185 16.3324 154.443 16.4448C154.701 16.5571 154.897 16.701 155.029 16.8765C155.162 17.052 155.254 17.2504 155.305 17.4733C155.355 17.6962 155.383 18.0138 155.383 18.428V21.7645V21.768Z" fill="white"/>
<path d="M56.7534 35.1033V28.6954H57.6186L60.9645 33.7255V28.6954H61.7722V35.1033H60.9069L57.5628 30.0679V35.1033H56.7551H56.7534Z" fill="white"/>
<path d="M66.245 33.6097L67.0527 33.7097C66.9253 34.1853 66.6898 34.5539 66.3444 34.8154C65.999 35.0769 65.5594 35.2086 65.0239 35.2086C64.3487 35.2086 63.8132 34.9997 63.419 34.582C63.023 34.1643 62.8258 33.5781 62.8258 32.8234C62.8258 32.0687 63.0264 31.4369 63.4259 31.0051C63.8254 30.5733 64.3435 30.3575 64.9802 30.3575C65.617 30.3575 66.1019 30.5681 66.4927 30.9911C66.8834 31.414 67.0788 32.0073 67.0788 32.7742C67.0788 32.8216 67.0788 32.8901 67.0753 32.9849H63.6353C63.6649 33.4956 63.808 33.8852 64.0644 34.1555C64.3208 34.4258 64.6436 34.5627 65.0291 34.5627C65.3152 34.5627 65.5611 34.4872 65.7635 34.3363C65.9659 34.1853 66.1264 33.9431 66.245 33.6114V33.6097ZM63.6771 32.3372H66.2537C66.2188 31.9476 66.1211 31.6545 65.9589 31.4597C65.7094 31.156 65.3867 31.0051 64.9907 31.0051C64.6314 31.0051 64.3296 31.1262 64.0853 31.3684C63.8411 31.6106 63.705 31.9336 63.6789 32.339L63.6771 32.3372Z" fill="white"/>
<path d="M67.5132 35.1033L69.1983 32.69L67.6388 30.461H68.6157L69.3239 31.5492C69.4565 31.7563 69.5647 31.93 69.6449 32.0687C69.7723 31.8756 69.8891 31.7054 69.9973 31.558L70.7753 30.461H71.7086L70.1142 32.6461L71.8307 35.1033H70.8713L69.924 33.6606L69.6728 33.2709L68.4604 35.1015H67.5132V35.1033Z" fill="white"/>
<path d="M74.191 34.3995L74.3044 35.0945C74.0846 35.1401 73.8874 35.1647 73.713 35.1647C73.4287 35.1647 73.2089 35.1191 73.0519 35.0296C72.8949 34.94 72.7849 34.8207 72.7221 34.6733C72.6576 34.5258 72.6262 34.2169 72.6262 33.7448V31.0753H72.0523V30.4628H72.6262V29.3132L73.4042 28.8411V30.4628H74.191V31.0753H73.4042V33.7887C73.4042 34.0134 73.4182 34.1573 73.4461 34.2222C73.474 34.2871 73.5176 34.338 73.5804 34.3749C73.6432 34.4135 73.7322 34.4311 73.8473 34.4311C73.9345 34.4311 74.0479 34.4205 74.191 34.4012V34.3995Z" fill="white"/>
<path d="M78.0358 32.59V31.8388L80.7327 31.8353V34.2134C80.3175 34.5451 79.8919 34.7961 79.4505 34.9629C79.0092 35.1296 78.5591 35.2138 78.0951 35.2138C77.4688 35.2138 76.9019 35.0787 76.3907 34.8102C75.8796 34.5399 75.4941 34.1502 75.2324 33.6413C74.9725 33.1323 74.8417 32.5619 74.8417 31.9318C74.8417 31.3017 74.9708 30.726 75.2307 30.1855C75.4906 29.6449 75.8622 29.243 76.3489 28.9815C76.8356 28.72 77.3956 28.5883 78.0305 28.5883C78.4911 28.5883 78.908 28.6638 79.2796 28.813C79.6511 28.9622 79.9442 29.1728 80.1553 29.4396C80.3664 29.7063 80.5269 30.0573 80.6368 30.4891L79.8762 30.6997C79.7802 30.3733 79.6616 30.117 79.5203 29.931C79.379 29.7449 79.1749 29.5958 78.9115 29.4834C78.6481 29.3711 78.355 29.3149 78.034 29.3149C77.6485 29.3149 77.3153 29.3746 77.0345 29.4922C76.7536 29.6098 76.5268 29.766 76.3541 29.9573C76.1814 30.1486 76.0471 30.361 75.9529 30.5909C75.7907 30.9876 75.7104 31.4176 75.7104 31.8809C75.7104 32.4513 75.8081 32.9304 76.0035 33.3148C76.1989 33.6992 76.4832 33.9853 76.8565 34.1713C77.2298 34.3573 77.6276 34.4504 78.0462 34.4504C78.4108 34.4504 78.7667 34.3802 79.1156 34.238C79.4627 34.0976 79.7262 33.9467 79.9058 33.7852V32.5917H78.034L78.0358 32.59Z" fill="white"/>
<path d="M85.0328 33.6097L85.8405 33.7097C85.7131 34.1853 85.4776 34.5539 85.1322 34.8154C84.7868 35.0769 84.3472 35.2086 83.8117 35.2086C83.1366 35.2086 82.601 34.9997 82.2068 34.582C81.8108 34.1643 81.6136 33.5781 81.6136 32.8234C81.6136 32.0687 81.8143 31.4369 82.2137 31.0051C82.6132 30.5733 83.1313 30.3575 83.7681 30.3575C84.4048 30.3575 84.8897 30.5681 85.2805 30.9911C85.6713 31.414 85.8666 32.0073 85.8666 32.7742C85.8666 32.8216 85.8666 32.8901 85.8631 32.9849H82.4231C82.4527 33.4956 82.5958 33.8852 82.8522 34.1555C83.1086 34.4258 83.4314 34.5627 83.8169 34.5627C84.103 34.5627 84.349 34.4872 84.5513 34.3363C84.7537 34.1853 84.9142 33.9431 85.0328 33.6114V33.6097ZM82.4649 32.3372H85.0415C85.0066 31.9476 84.9089 31.6545 84.7467 31.4597C84.4972 31.156 84.1745 31.0051 83.7785 31.0051C83.4192 31.0051 83.1174 31.1262 82.8731 31.3684C82.6289 31.6106 82.4929 31.9336 82.4667 32.339L82.4649 32.3372Z" fill="white"/>
<path d="M86.8226 35.1033V30.461H87.5274V31.1209C87.8658 30.612 88.356 30.3557 88.9962 30.3557C89.2736 30.3557 89.53 30.4066 89.7638 30.5067C89.9975 30.6067 90.172 30.7383 90.2871 30.9015C90.4022 31.0648 90.4842 31.2578 90.5296 31.4825C90.5592 31.6282 90.5732 31.8827 90.5732 32.2477V35.1015H89.7917V32.2775C89.7917 31.9564 89.762 31.7177 89.701 31.558C89.6399 31.4 89.5317 31.2719 89.3765 31.1771C89.2212 31.0823 89.0398 31.0349 88.8322 31.0349C88.499 31.0349 88.2112 31.142 87.9705 31.3544C87.728 31.5667 87.6076 31.9704 87.6076 32.5654V35.0998H86.8261L86.8226 35.1033Z" fill="white"/>
<path d="M94.9291 33.6097L95.7368 33.7097C95.6094 34.1853 95.3739 34.5539 95.0285 34.8154C94.6831 35.0769 94.2435 35.2086 93.708 35.2086C93.0329 35.2086 92.4973 34.9997 92.1031 34.582C91.7071 34.1643 91.5099 33.5781 91.5099 32.8234C91.5099 32.0687 91.7106 31.4369 92.11 31.0051C92.5095 30.5733 93.0276 30.3575 93.6644 30.3575C94.3011 30.3575 94.786 30.5681 95.1768 30.9911C95.5676 31.414 95.7629 32.0073 95.7629 32.7742C95.7629 32.8216 95.7629 32.8901 95.7595 32.9849H92.3194C92.349 33.4956 92.4921 33.8852 92.7485 34.1555C93.005 34.4258 93.3277 34.5627 93.7132 34.5627C93.9993 34.5627 94.2453 34.4872 94.4476 34.3363C94.65 34.1853 94.8105 33.9431 94.9291 33.6114V33.6097ZM92.3612 32.3372H94.9378C94.9029 31.9476 94.8052 31.6545 94.643 31.4597C94.3935 31.156 94.0708 31.0051 93.6748 31.0051C93.3155 31.0051 93.0137 31.1262 92.7695 31.3684C92.5252 31.6106 92.3892 31.9336 92.363 32.339L92.3612 32.3372Z" fill="white"/>
<path d="M96.7102 35.1033V30.461H97.4132V31.1648C97.5929 30.8349 97.7586 30.619 97.9104 30.5137C98.0621 30.4084 98.2296 30.3557 98.4128 30.3557C98.6762 30.3557 98.9448 30.44 99.217 30.6084L98.9483 31.3386C98.7564 31.2245 98.5663 31.1683 98.3744 31.1683C98.2034 31.1683 98.0499 31.2192 97.9138 31.3228C97.7778 31.4263 97.6801 31.5702 97.6225 31.7528C97.5353 32.0318 97.4917 32.339 97.4917 32.6707V35.1015H96.7102V35.1033Z" fill="white"/>
<path d="M102.692 34.5311C102.402 34.7786 102.123 34.9541 101.856 35.0559C101.589 35.1577 101.302 35.2086 100.995 35.2086C100.487 35.2086 100.098 35.084 99.8258 34.8347C99.5536 34.5855 99.4176 34.2678 99.4176 33.88C99.4176 33.6536 99.4682 33.4447 99.5711 33.2569C99.674 33.0691 99.8083 32.9182 99.9758 32.8041C100.142 32.69 100.33 32.604 100.538 32.5461C100.691 32.5057 100.923 32.4653 101.232 32.4285C101.863 32.353 102.327 32.2618 102.626 32.1582C102.629 32.0511 102.629 31.9827 102.629 31.9529C102.629 31.6317 102.556 31.407 102.408 31.2754C102.209 31.0981 101.91 31.0086 101.518 31.0086C101.15 31.0086 100.878 31.0736 100.703 31.2034C100.529 31.3333 100.398 31.5632 100.314 31.8914L99.5502 31.7861C99.6199 31.4562 99.7333 31.1911 99.8938 30.9893C100.053 30.7875 100.283 30.6313 100.585 30.5207C100.886 30.4119 101.235 30.3575 101.631 30.3575C102.027 30.3575 102.345 30.4049 102.591 30.4979C102.837 30.5909 103.018 30.7085 103.133 30.8489C103.248 30.9893 103.33 31.1683 103.376 31.3842C103.402 31.5176 103.414 31.7598 103.414 32.1091V33.1586C103.414 33.8905 103.432 34.3521 103.465 34.5469C103.498 34.74 103.564 34.926 103.662 35.1033H102.845C102.765 34.94 102.713 34.7487 102.688 34.5311H102.692ZM102.627 32.7742C102.343 32.8901 101.917 32.9901 101.35 33.0709C101.029 33.1182 100.801 33.1691 100.668 33.2288C100.536 33.2867 100.433 33.3727 100.36 33.4851C100.286 33.5974 100.251 33.722 100.251 33.8589C100.251 34.0695 100.33 34.2433 100.489 34.3837C100.646 34.5241 100.878 34.5943 101.181 34.5943C101.485 34.5943 101.75 34.5276 101.985 34.396C102.219 34.2643 102.392 34.0818 102.502 33.8519C102.586 33.6746 102.627 33.4113 102.627 33.0656V32.7778V32.7742Z" fill="white"/>
<path d="M106.336 34.3995L106.449 35.0945C106.23 35.1401 106.033 35.1647 105.858 35.1647C105.574 35.1647 105.354 35.1191 105.197 35.0296C105.04 34.94 104.93 34.8207 104.867 34.6733C104.803 34.5258 104.771 34.2169 104.771 33.7448V31.0753H104.197V30.4628H104.771V29.3132L105.549 28.8411V30.4628H106.336V31.0753H105.549V33.7887C105.549 34.0134 105.563 34.1573 105.591 34.2222C105.619 34.2871 105.663 34.338 105.726 34.3749C105.788 34.4135 105.877 34.4311 105.992 34.4311C106.08 34.4311 106.193 34.4205 106.336 34.4012V34.3995Z" fill="white"/>
<path d="M107.105 29.601V28.6971H107.887V29.601H107.105ZM107.105 35.1033V30.461H107.887V35.1033H107.105Z" fill="white"/>
<path d="M108.787 32.783C108.787 31.923 109.024 31.2877 109.499 30.8735C109.895 30.5295 110.38 30.3575 110.95 30.3575C111.585 30.3575 112.103 30.5663 112.506 30.984C112.909 31.4018 113.11 31.9792 113.11 32.7163C113.11 33.3131 113.021 33.7834 112.843 34.1257C112.665 34.4679 112.405 34.7329 112.065 34.9225C111.725 35.112 111.353 35.2068 110.95 35.2068C110.305 35.2068 109.781 34.998 109.384 34.582C108.986 34.166 108.787 33.5658 108.787 32.7813V32.783ZM109.591 32.783C109.591 33.378 109.72 33.822 109.979 34.1187C110.237 34.4135 110.561 34.5627 110.952 34.5627C111.343 34.5627 111.664 34.4135 111.92 34.1169C112.178 33.8203 112.307 33.3675 112.307 32.7567C112.307 32.1828 112.178 31.7475 111.918 31.4527C111.658 31.156 111.337 31.0086 110.952 31.0086C110.566 31.0086 110.237 31.156 109.979 31.4509C109.72 31.7458 109.591 32.1898 109.591 32.783Z" fill="white"/>
<path d="M114.026 35.1033V30.461H114.73V31.1209C115.069 30.612 115.559 30.3557 116.199 30.3557C116.477 30.3557 116.733 30.4066 116.967 30.5067C117.201 30.6067 117.375 30.7383 117.49 30.9015C117.605 31.0648 117.687 31.2578 117.733 31.4825C117.762 31.6282 117.776 31.8827 117.776 32.2477V35.1015H116.995V32.2775C116.995 31.9564 116.965 31.7177 116.904 31.558C116.843 31.4 116.735 31.2719 116.58 31.1771C116.424 31.0823 116.243 31.0349 116.035 31.0349C115.702 31.0349 115.414 31.142 115.174 31.3544C114.931 31.5667 114.811 31.9704 114.811 32.5654V35.0998H114.029L114.026 35.1033Z" fill="white"/>
<path d="M119.092 35.1033V28.6954H123.697V29.4518H119.934V31.414H123.458V32.1652H119.934V34.3468H123.843V35.1033H119.092Z" fill="white"/>
<path d="M129.187 28.6971H130.029V32.3987C130.029 33.0428 129.956 33.5535 129.811 33.9326C129.666 34.3117 129.405 34.6189 129.026 34.8576C128.648 35.0945 128.152 35.2138 127.538 35.2138C126.924 35.2138 126.453 35.1103 126.075 34.9032C125.696 34.6961 125.424 34.3977 125.262 34.0046C125.099 33.6132 125.019 33.0779 125.019 32.3987V28.6971H125.862V32.3951C125.862 32.9515 125.912 33.3622 126.015 33.6255C126.118 33.8887 126.294 34.0923 126.546 34.2345C126.797 34.3767 127.102 34.4486 127.465 34.4486C128.084 34.4486 128.526 34.3065 128.791 34.0239C129.054 33.7413 129.187 33.1972 129.187 32.3934V28.6954V28.6971Z" fill="white"/>
</g>
<defs>
<clipPath id="clip0_1_2828">
<rect width="156" height="37" fill="white"/>
</clipPath>
</defs>
</svg>
