<svg width="245" height="20" viewBox="0 0 245 20" fill="none" xmlns="http://www.w3.org/2000/svg">
<g clip-path="url(#clip0_8_1891)">
<path d="M1.5921 7.51187L0.0306069 7.51187L0.030607 4.78604L1.5921 4.78604L1.5921 3.74008C1.5921 2.53564 1.89826 1.61647 2.54123 0.950857C3.18419 0.316942 4.01086 -1.53873e-05 5.05185 -1.53418e-05C5.32741 -1.53297e-05 5.57236 -1.5319e-05 5.78668 0.0633762C6.03162 0.0950719 6.21532 0.126768 6.39902 0.190159C6.58273 0.253551 6.76643 0.285246 6.95013 0.348638L6.95013 2.94769C6.95013 2.94769 6.73581 2.8843 6.61334 2.8526C6.49087 2.8526 6.36839 2.78921 6.24592 2.78921C6.09284 2.78921 5.97037 2.78921 5.81728 2.78921C5.38864 2.78921 5.05187 2.91599 4.80693 3.16956C4.56199 3.42312 4.43951 3.77178 4.43951 4.24721L4.43951 4.88113L6.73581 4.88113L6.73581 7.60696L4.43951 7.60696L4.43951 15.5309L1.5921 15.5309L1.5921 7.60696L1.5921 7.51187Z" fill="#838179"/>
<path d="M13.5635 15.6577C12.7981 15.6577 12.0938 15.4992 11.4203 15.2139C10.7467 14.9287 10.165 14.5166 9.67508 14.0095C9.1852 13.5024 8.78718 12.9001 8.51162 12.2345C8.23607 11.5689 8.08298 10.8399 8.08298 10.0792C8.08298 9.31853 8.23607 8.62122 8.51162 7.92392C8.78718 7.25831 9.1852 6.65609 9.67508 6.14896C10.165 5.64182 10.7467 5.22978 11.4203 4.94452C12.0938 4.65926 12.7981 4.50078 13.5635 4.50078C14.3289 4.50078 15.0331 4.65926 15.7067 4.94452C16.3803 5.22978 16.962 5.64183 17.4519 6.14896C17.9418 6.65609 18.3398 7.25831 18.6153 7.92392C18.8909 8.58953 19.044 9.31853 19.044 10.0792C19.044 10.8399 18.8909 11.5689 18.6153 12.2345C18.3398 12.9001 17.9418 13.5024 17.4519 14.0095C16.962 14.5166 16.3803 14.9287 15.7067 15.2139C15.0331 15.4992 14.3289 15.6577 13.5635 15.6577ZM13.5635 12.9318C13.9309 12.9318 14.2677 12.8685 14.6045 12.71C14.9413 12.5515 15.2168 12.3613 15.4311 12.1078C15.6761 11.8542 15.8598 11.5689 15.9822 11.2203C16.1047 10.8716 16.1966 10.4913 16.1966 10.0792C16.1966 9.66718 16.1353 9.28683 15.9822 8.93818C15.8598 8.58953 15.6761 8.30427 15.4311 8.0507C15.1862 7.79713 14.9106 7.60696 14.6045 7.48018C14.2983 7.35339 13.9309 7.25831 13.5635 7.25831C13.1961 7.25831 12.8593 7.3217 12.5225 7.48018C12.1857 7.63866 11.9102 7.82883 11.6958 8.0507C11.4815 8.27257 11.2672 8.58953 11.1447 8.93818C11.0222 9.28683 10.9304 9.66718 10.9304 10.0792C10.9304 10.4913 10.9916 10.8716 11.1447 11.2203C11.2978 11.5689 11.4509 11.8542 11.6958 12.1078C11.9408 12.3613 12.2163 12.5515 12.5225 12.71C12.8287 12.8685 13.1961 12.9318 13.5635 12.9318Z" fill="#838179"/>
<path d="M21.0953 4.78605L23.9427 4.78605L23.9427 6.30744L24.0346 6.30744C24.2489 5.99049 24.5245 5.70522 24.8 5.45166C25.045 5.22979 25.3818 5.03961 25.7492 4.84944C26.1166 4.65927 26.5758 4.56418 27.0657 4.56418L27.28 4.56418L27.28 7.70206C27.28 7.70206 27.1269 7.70206 27.0351 7.67036C26.9432 7.67036 26.8514 7.67036 26.7289 7.63867C26.6064 7.63867 26.484 7.63867 26.3309 7.63867C25.6573 7.63867 25.0756 7.89223 24.6163 8.39936C24.1571 8.90649 23.9121 9.6038 23.9121 10.4596L23.9121 15.4675L21.0647 15.4675L21.0647 4.78605L21.0953 4.78605Z" fill="#838179"/>
<path d="M30.7704 20C30.4949 20 30.2499 20 30.0356 19.9683C29.7907 19.9683 29.6069 19.9049 29.4232 19.8732C29.2395 19.8098 29.0559 19.7464 28.8722 19.7147L28.8722 16.9889C28.8722 16.9889 29.0865 17.084 29.2089 17.084C29.4539 17.1474 29.7294 17.1791 30.0356 17.1791C30.5255 17.1791 30.8929 17.0523 31.1685 16.7987C31.444 16.5452 31.6583 16.2282 31.8114 15.8796L32.0257 15.3407L28.0455 4.78604L31.0766 4.78604L33.4954 11.8542L33.5872 11.8542L35.8835 4.78604L38.9146 4.78604L34.7201 16.2916C34.2914 17.496 33.7403 18.4152 33.128 19.0491C32.485 19.683 31.6889 20 30.7398 20L30.7704 20Z" fill="#838179"/>
<path d="M45.0381 15.6577C44.2727 15.6577 43.5685 15.4992 42.8949 15.214C42.2213 14.9287 41.6396 14.5166 41.1497 14.0095C40.6598 13.5024 40.2618 12.9002 39.9863 12.2346C39.7107 11.5689 39.5576 10.8399 39.5576 10.0792C39.5576 9.31855 39.7107 8.62124 39.9863 7.92393C40.2618 7.25832 40.6598 6.6561 41.1497 6.14897C41.6396 5.64184 42.2213 5.2298 42.8949 4.94453C43.5685 4.65927 44.2727 4.50079 45.0381 4.50079C45.8036 4.50079 46.5077 4.65927 47.1813 4.94453C47.8549 5.2298 48.4366 5.64184 48.9265 6.14897C49.4164 6.6561 49.8144 7.25832 50.09 7.92393C50.3655 8.58954 50.5186 9.31855 50.5186 10.0792C50.5186 10.8399 50.3655 11.5689 50.09 12.2346C49.8144 12.9002 49.4164 13.5024 48.9265 14.0095C48.4366 14.5166 47.8549 14.9287 47.1813 15.214C46.5077 15.4992 45.8036 15.6577 45.0381 15.6577ZM45.0381 12.9319C45.4055 12.9319 45.7423 12.8685 46.0791 12.71C46.4159 12.5515 46.6915 12.3613 46.9058 12.1078C47.1507 11.8542 47.3344 11.5689 47.4569 11.2203C47.5794 10.8716 47.6712 10.4913 47.6712 10.0792C47.6712 9.6672 47.61 9.28685 47.4569 8.9382C47.3344 8.58954 47.1507 8.30428 46.9058 8.05072C46.6608 7.79715 46.3853 7.60698 46.0791 7.48019C45.7729 7.35341 45.4055 7.25832 45.0381 7.25832C44.6707 7.25832 44.3339 7.32171 43.9971 7.48019C43.6603 7.63867 43.3848 7.82885 43.1705 8.05072C42.9561 8.27259 42.7418 8.58954 42.6193 8.9382C42.4969 9.28685 42.405 9.6672 42.405 10.0792C42.405 10.4913 42.4663 10.8716 42.6193 11.2203C42.7724 11.5689 42.9255 11.8542 43.1705 12.1078C43.4154 12.3613 43.6909 12.5515 43.9971 12.71C44.3033 12.8685 44.6707 12.9319 45.0381 12.9319Z" fill="#838179"/>
<path d="M56.3665 15.6577C55.846 15.6577 55.3562 15.5626 54.8969 15.3407C54.4376 15.1189 54.0396 14.8336 53.7028 14.4532C53.366 14.0729 53.0905 13.5975 52.9068 13.0586C52.7231 12.5198 52.6006 11.8859 52.6006 11.2203L52.6006 4.78604L55.448 4.78604L55.448 10.7765C55.448 11.4421 55.6011 11.9493 55.9379 12.2979C56.2747 12.6466 56.7339 12.8368 57.3157 12.8368C57.9586 12.8368 58.4791 12.6149 58.8771 12.1711C59.3058 11.7274 59.5201 11.1569 59.5201 10.4596L59.5201 4.81774L62.3675 4.81774L62.3675 15.4675L59.5201 15.4675L59.5201 13.9461L59.4283 13.9461C59.2139 14.2631 58.9384 14.5483 58.6628 14.8019C58.4179 15.0238 58.0811 15.2139 57.7137 15.4041C57.3157 15.5943 56.887 15.6894 56.3971 15.6894L56.3665 15.6577Z" fill="#838179"/>
<path d="M67.7255 15.6577C67.2357 15.6577 66.807 15.5943 66.4396 15.4358C66.0416 15.2773 65.7354 15.0555 65.4599 14.8019C65.1843 14.5166 64.97 14.1997 64.8169 13.8193C64.6638 13.439 64.572 13.0586 64.572 12.6149C64.572 11.7591 64.8475 10.9984 65.368 10.3962C65.9191 9.79397 66.6539 9.38192 67.6031 9.22345L70.8485 8.62123C70.7873 8.24088 70.6036 7.92392 70.328 7.63866C70.0218 7.3534 69.6238 7.22661 69.0727 7.22661C68.7053 7.22661 68.3685 7.29 68.093 7.41679C67.8174 7.54357 67.5725 7.67035 67.3581 7.82883C67.1132 7.98731 66.9295 8.20918 66.7458 8.43105L65.0618 6.68779C65.368 6.30744 65.7048 5.95878 66.1334 5.67352C66.5009 5.41996 66.9295 5.16639 67.45 4.94452C67.9705 4.72265 68.5828 4.62756 69.2564 4.62756C69.93 4.62756 70.5117 4.72265 71.0628 4.94452C71.6139 5.16639 72.0732 5.45165 72.4712 5.832C72.8693 6.21235 73.1754 6.65609 73.3591 7.16322C73.5735 7.67035 73.6653 8.24088 73.6653 8.8114L73.6653 15.4358L70.8179 15.4358L70.8179 14.1363L70.7261 14.1363C70.5117 14.4215 70.2362 14.6751 69.9606 14.897C69.7157 15.0872 69.3789 15.2773 69.0115 15.4358C68.6134 15.5943 68.1848 15.6577 67.6949 15.6577L67.7255 15.6577ZM68.6747 13.2805C69.3176 13.2805 69.8381 13.0586 70.2362 12.6149C70.6648 12.1711 70.8791 11.6006 70.8791 10.8716L70.8791 10.6498L68.5828 11.0935C68.2154 11.1569 67.9399 11.2837 67.7255 11.4738C67.5112 11.664 67.4194 11.8859 67.4194 12.1711C67.4194 12.5198 67.5112 12.7734 67.7255 12.9635C67.9399 13.1537 68.246 13.2488 68.6747 13.2488L68.6747 13.2805Z" fill="#838179"/>
<path d="M76.4209 4.78605L79.2683 4.78605L79.2683 6.30744L79.3602 6.30744C79.5745 5.99049 79.85 5.70522 80.1256 5.45166C80.3705 5.22979 80.7073 5.03961 81.0747 4.84944C81.4421 4.65927 81.9014 4.56418 82.3913 4.56418C82.8811 4.56418 83.4016 4.65927 83.8609 4.88114C84.3202 5.10301 84.7182 5.38827 85.055 5.76862C85.3918 6.14897 85.6673 6.6244 85.851 7.16323C86.0347 7.70206 86.1572 8.33597 86.1572 9.00158L86.1572 15.4041L83.3098 15.4041L83.3098 9.41363C83.3098 8.74802 83.1567 8.24088 82.8199 7.89223C82.4831 7.54358 82.0239 7.3534 81.4421 7.3534C80.7992 7.3534 80.2787 7.57527 79.8806 8.01901C79.452 8.46275 79.2377 9.03328 79.2377 9.76228L79.2377 15.4041L76.3903 15.4041L76.3903 4.78605L76.4209 4.78605Z" fill="#838179"/>
<path d="M92.893 15.6577C92.2807 15.6577 91.6989 15.5309 91.1478 15.2456C90.5967 14.9604 90.1068 14.6117 89.6782 14.1046C89.2496 13.5975 88.9128 13.0269 88.6678 12.3296C88.4229 11.664 88.3004 10.9033 88.3004 10.0792C88.3004 9.25515 88.4229 8.52615 88.6678 7.82884C88.9128 7.16323 89.2496 6.56101 89.6782 6.08557C90.1068 5.61014 90.5967 5.22979 91.1478 4.94453C91.6989 4.65927 92.2807 4.53248 92.893 4.53248C93.4441 4.53248 93.9034 4.62757 94.332 4.81774C94.7301 5.00792 95.0669 5.19809 95.373 5.41996C95.7098 5.67353 95.9548 5.95879 96.1691 6.27575L96.2609 6.27575L96.2609 0.221863L99.1083 0.221863L99.1083 15.4358L96.2609 15.4358L96.2609 13.9144L96.1691 13.9144C95.9548 14.2314 95.6792 14.5166 95.373 14.7702C95.0975 14.9921 94.7607 15.1822 94.332 15.3724C93.934 15.5626 93.4441 15.6577 92.893 15.6577ZM93.7197 12.9319C94.0871 12.9319 94.4239 12.8685 94.7607 12.71C95.0975 12.5515 95.373 12.3613 95.5873 12.1078C95.8323 11.8542 96.016 11.5689 96.1385 11.2203C96.2609 10.8716 96.3528 10.4913 96.3528 10.0792C96.3528 9.66719 96.2915 9.28684 96.1385 8.93819C96.016 8.58954 95.8323 8.30428 95.5873 8.05071C95.3424 7.79714 95.0669 7.60697 94.7607 7.48019C94.4545 7.3534 94.0871 7.25832 93.7197 7.25832C93.3523 7.25832 93.0155 7.32171 92.6787 7.48019C92.3419 7.63866 92.0664 7.82884 91.852 8.05071C91.6377 8.27258 91.4234 8.58954 91.3009 8.93819C91.1784 9.28684 91.0866 9.66719 91.0866 10.0792C91.0866 10.4913 91.1478 10.8716 91.3009 11.2203C91.454 11.5689 91.6071 11.8542 91.852 12.1078C92.097 12.3613 92.3725 12.5515 92.6787 12.71C92.9849 12.8685 93.3523 12.9319 93.7197 12.9319Z" fill="#838179"/>
<path d="M103.18 20C102.905 20 102.66 20 102.446 19.9683C102.201 19.9683 102.017 19.9049 101.833 19.8732C101.65 19.8098 101.466 19.7464 101.282 19.7147L101.282 16.9889C101.282 16.9889 101.496 17.084 101.619 17.084C101.864 17.1474 102.139 17.1791 102.446 17.1791C102.936 17.1791 103.303 17.0523 103.578 16.7987C103.854 16.5452 104.068 16.2282 104.221 15.8796L104.436 15.3407L100.456 4.78606L103.487 4.78606L105.905 11.8542L105.997 11.8542L108.294 4.78606L111.325 4.78606L107.13 16.2916C106.701 17.496 106.15 18.4152 105.538 19.0491C104.895 19.6831 104.099 20 103.15 20L103.18 20Z" fill="#838179"/>
<path d="M117.479 15.6577C116.713 15.6577 116.009 15.4992 115.336 15.214C114.662 14.9287 114.08 14.5166 113.59 14.0095C113.1 13.5024 112.702 12.9002 112.427 12.2346C112.151 11.5689 111.998 10.8399 111.998 10.0792C111.998 9.31855 112.151 8.62124 112.427 7.92393C112.702 7.25832 113.1 6.6561 113.59 6.14897C114.08 5.64184 114.662 5.2298 115.336 4.94453C116.009 4.65927 116.713 4.50079 117.479 4.50079C118.244 4.50079 118.948 4.65927 119.622 4.94453C120.296 5.2298 120.877 5.64184 121.367 6.14897C121.857 6.6561 122.255 7.25832 122.531 7.92393C122.806 8.58954 122.959 9.31855 122.959 10.0792C122.959 10.8399 122.806 11.5689 122.531 12.2346C122.255 12.9002 121.857 13.5024 121.367 14.0095C120.877 14.5166 120.296 14.9287 119.622 15.214C118.948 15.4992 118.244 15.6577 117.479 15.6577ZM117.479 12.9319C117.846 12.9319 118.183 12.8685 118.52 12.71C118.857 12.5515 119.132 12.3613 119.346 12.1078C119.591 11.8542 119.775 11.5689 119.898 11.2203C120.02 10.8716 120.112 10.4913 120.112 10.0792C120.112 9.6672 120.051 9.28685 119.898 8.9382C119.775 8.58954 119.591 8.30428 119.346 8.05072C119.101 7.79715 118.826 7.60698 118.52 7.48019C118.214 7.35341 117.846 7.25832 117.479 7.25832C117.111 7.25832 116.775 7.32171 116.438 7.48019C116.101 7.63867 115.825 7.82885 115.611 8.05072C115.397 8.27259 115.182 8.58954 115.06 8.9382C114.938 9.28685 114.846 9.6672 114.846 10.0792C114.846 10.4913 114.907 10.8716 115.06 11.2203C115.213 11.5689 115.366 11.8542 115.611 12.1078C115.856 12.3613 116.132 12.5515 116.438 12.71C116.744 12.8685 117.111 12.9319 117.479 12.9319Z" fill="#838179"/>
<path d="M128.807 15.6577C128.287 15.6577 127.797 15.5626 127.338 15.3407C126.878 15.1189 126.48 14.8336 126.143 14.4533C125.807 14.0729 125.531 13.5975 125.347 13.0586C125.164 12.5198 125.041 11.8859 125.041 11.2203L125.041 4.78606L127.889 4.78606L127.889 10.7766C127.889 11.4422 128.042 11.9493 128.379 12.2979C128.715 12.6466 129.175 12.8368 129.756 12.8368C130.399 12.8368 130.92 12.6149 131.318 12.1712C131.746 11.7274 131.961 11.1569 131.961 10.4596L131.961 4.81775L134.808 4.81775L134.808 15.4675L131.961 15.4675L131.961 13.9461L131.869 13.9461C131.655 14.2631 131.379 14.5483 131.103 14.8019C130.859 15.0238 130.522 15.214 130.154 15.4041C129.756 15.5943 129.328 15.6894 128.838 15.6894L128.807 15.6577Z" fill="#838179"/>
<path d="M137.502 4.78605L140.35 4.78605L140.35 6.30744L140.442 6.30744C140.656 5.99049 140.932 5.70522 141.207 5.45166C141.452 5.22979 141.789 5.03961 142.156 4.84944C142.524 4.65927 142.983 4.56418 143.473 4.56418L143.687 4.56418L143.687 7.70206C143.687 7.70206 143.534 7.70206 143.442 7.67036C143.35 7.67036 143.259 7.67036 143.136 7.63867C143.014 7.63867 142.891 7.63867 142.738 7.63867C142.064 7.63867 141.483 7.89223 141.023 8.39936C140.564 8.90649 140.319 9.6038 140.319 10.4596L140.319 15.4675L137.472 15.4675L137.472 4.78605L137.502 4.78605Z" fill="#838179"/>
<path d="M150.117 15.6577C149.351 15.6577 148.647 15.4992 147.974 15.214C147.3 14.9287 146.718 14.5166 146.228 14.0095C145.739 13.5024 145.341 12.9002 145.065 12.2346C144.789 11.5689 144.636 10.8399 144.636 10.0792C144.636 9.31855 144.789 8.62124 145.065 7.92393C145.341 7.25832 145.739 6.6561 146.228 6.14897C146.718 5.64184 147.3 5.2298 147.974 4.94453C148.647 4.65927 149.351 4.50079 150.117 4.50079C150.882 4.50079 151.495 4.62758 152.015 4.84945C152.536 5.07132 152.995 5.32488 153.362 5.61014C153.791 5.9271 154.128 6.27575 154.403 6.6878L152.627 8.52615C152.444 8.27259 152.199 8.05072 151.954 7.86054C151.74 7.70206 151.464 7.54358 151.158 7.4168C150.852 7.29002 150.484 7.19493 150.117 7.19493C149.749 7.19493 149.413 7.25832 149.076 7.4168C148.739 7.57528 148.463 7.76545 148.249 7.98732C148.035 8.20919 147.821 8.52615 147.698 8.87481C147.576 9.22346 147.484 9.60381 147.484 10.0159C147.484 10.4279 147.545 10.8082 147.698 11.1569C147.851 11.5056 148.004 11.7908 148.249 12.0444C148.494 12.2979 148.77 12.4881 149.076 12.6466C149.382 12.8051 149.749 12.8685 150.117 12.8685C150.515 12.8685 150.852 12.8051 151.158 12.6466C151.464 12.5198 151.74 12.3613 151.954 12.2029C152.199 12.0127 152.444 11.7908 152.627 11.5372L154.403 13.3756C154.128 13.7876 153.76 14.1363 153.362 14.4533C152.995 14.7385 152.536 14.9921 152.015 15.214C151.495 15.4358 150.852 15.5626 150.117 15.5626L150.117 15.6577Z" fill="#838179"/>
<path d="M159.976 15.6577C159.455 15.6577 158.965 15.5626 158.506 15.3407C158.047 15.1189 157.649 14.8336 157.312 14.4533C156.975 14.0729 156.7 13.5975 156.516 13.0586C156.332 12.5198 156.21 11.8859 156.21 11.2203L156.21 4.78606L159.057 4.78606L159.057 10.7766C159.057 11.4422 159.21 11.9493 159.547 12.2979C159.884 12.6466 160.343 12.8368 160.925 12.8368C161.568 12.8368 162.088 12.6149 162.486 12.1712C162.915 11.7274 163.129 11.1569 163.129 10.4596L163.129 4.81775L165.977 4.81775L165.977 15.4675L163.129 15.4675L163.129 13.9461L163.037 13.9461C162.823 14.2631 162.547 14.5483 162.272 14.8019C162.027 15.0238 161.69 15.214 161.323 15.4041C160.925 15.5943 160.496 15.6894 160.006 15.6894L159.976 15.6577Z" fill="#838179"/>
<path d="M172.039 15.6577C171.335 15.6577 170.692 15.5626 170.141 15.3407C169.589 15.1506 169.13 14.9287 168.763 14.6751C168.304 14.3899 167.936 14.0729 167.63 13.6926L169.314 11.8542C169.528 12.0761 169.773 12.2979 170.049 12.4564C170.294 12.6149 170.569 12.7417 170.906 12.8685C171.243 12.9952 171.61 13.0269 172.039 13.0269C172.529 13.0269 172.835 12.9636 173.019 12.8051C173.202 12.6466 173.294 12.4881 173.294 12.2662C173.294 12.0761 173.172 11.8859 172.896 11.7591C172.651 11.6323 172.314 11.4739 171.916 11.3471C171.518 11.2203 171.09 11.0618 170.661 10.9033C170.202 10.7449 169.804 10.523 169.406 10.2377C169.008 9.98415 168.702 9.6355 168.426 9.25515C168.181 8.8748 168.028 8.36767 168.028 7.79715C168.028 7.35341 168.12 6.94136 168.304 6.56101C168.487 6.18066 168.763 5.83201 169.1 5.51505C169.436 5.1981 169.865 4.97623 170.386 4.78605C170.906 4.59588 171.488 4.53249 172.131 4.53249C172.774 4.53249 173.355 4.62757 173.876 4.78605C174.366 4.94453 174.794 5.13471 175.131 5.35658C175.529 5.61014 175.866 5.86371 176.142 6.14897L174.458 7.98732C174.305 7.82884 174.09 7.67036 173.845 7.54358C173.662 7.4168 173.417 7.32171 173.11 7.22662C172.835 7.13154 172.498 7.09984 172.131 7.09984C171.763 7.09984 171.488 7.16323 171.335 7.32171C171.182 7.44849 171.09 7.60697 171.09 7.76545C171.09 7.95563 171.212 8.1458 171.488 8.27258C171.763 8.39937 172.069 8.55784 172.468 8.68463C172.866 8.81141 173.294 8.96989 173.723 9.12837C174.182 9.28685 174.58 9.50872 174.978 9.79398C175.376 10.0792 175.682 10.3962 175.958 10.7765C176.233 11.1569 176.356 11.664 176.356 12.2345C176.356 12.71 176.264 13.122 176.08 13.5341C175.897 13.9461 175.621 14.2948 175.254 14.6117C174.886 14.9287 174.427 15.1506 173.907 15.3407C173.386 15.5309 172.743 15.626 172.039 15.626L172.039 15.6577Z" fill="#838179"/>
<path d="M182.541 15.6577C181.5 15.6577 180.642 15.309 180.03 14.6434C179.387 13.9778 179.081 12.9952 179.081 11.7274L179.081 7.70206L177.305 7.70206L177.305 4.97622L178.254 4.97622C179.02 4.97622 179.418 4.53248 179.418 3.6767L179.418 1.71156L181.928 1.71156L181.928 4.97622L184.225 4.97622L184.225 7.70206L181.928 7.70206L181.928 11.2837C181.928 11.7908 182.051 12.1395 182.296 12.4247C182.541 12.6783 182.877 12.8051 183.306 12.8051C183.612 12.8051 183.888 12.7734 184.133 12.71C184.255 12.71 184.378 12.6466 184.469 12.6149L184.469 15.3407C184.316 15.4041 184.133 15.4675 183.918 15.4992C183.765 15.5309 183.551 15.5943 183.306 15.5943C183.061 15.5943 182.816 15.626 182.571 15.626L182.541 15.6577Z" fill="#838179"/>
<path d="M191.267 15.6577C190.501 15.6577 189.797 15.4992 189.123 15.214C188.45 14.9287 187.868 14.5166 187.378 14.0095C186.888 13.5024 186.49 12.9002 186.215 12.2346C185.939 11.5689 185.786 10.8399 185.786 10.0792C185.786 9.31855 185.939 8.62124 186.215 7.92393C186.49 7.25832 186.888 6.6561 187.378 6.14897C187.868 5.64184 188.45 5.2298 189.123 4.94453C189.797 4.65927 190.501 4.50079 191.267 4.50079C192.032 4.50079 192.736 4.65927 193.41 4.94453C194.083 5.2298 194.665 5.64184 195.155 6.14897C195.645 6.6561 196.043 7.25832 196.318 7.92393C196.594 8.58954 196.747 9.31855 196.747 10.0792C196.747 10.8399 196.594 11.5689 196.318 12.2346C196.043 12.9002 195.645 13.5024 195.155 14.0095C194.665 14.5166 194.083 14.9287 193.41 15.214C192.736 15.4992 192.032 15.6577 191.267 15.6577ZM191.267 12.9319C191.634 12.9319 191.971 12.8685 192.308 12.71C192.644 12.5515 192.92 12.3613 193.134 12.1078C193.379 11.8542 193.563 11.5689 193.685 11.2203C193.808 10.8716 193.9 10.4913 193.9 10.0792C193.9 9.6672 193.838 9.28685 193.685 8.9382C193.563 8.58954 193.379 8.30428 193.134 8.05072C192.889 7.79715 192.614 7.60698 192.308 7.48019C192.001 7.35341 191.634 7.25832 191.267 7.25832C190.899 7.25832 190.562 7.32171 190.226 7.48019C189.889 7.63867 189.613 7.82885 189.399 8.05072C189.185 8.27259 188.97 8.58954 188.848 8.9382C188.725 9.28685 188.633 9.6672 188.633 10.0792C188.633 10.4913 188.695 10.8716 188.848 11.2203C189.001 11.5689 189.154 11.8542 189.399 12.1078C189.644 12.3613 189.919 12.5515 190.226 12.71C190.532 12.8685 190.899 12.9319 191.267 12.9319Z" fill="#838179"/>
<path d="M198.798 4.78605L201.646 4.78605L201.646 6.30744L201.738 6.30744C201.921 5.99049 202.136 5.70522 202.411 5.45166C202.656 5.22979 202.932 5.03961 203.299 4.84944C203.636 4.65926 204.065 4.56418 204.585 4.56418C205.136 4.56418 205.595 4.65927 205.994 4.84944C206.392 5.03961 206.698 5.26148 206.943 5.48335C207.218 5.73692 207.463 6.05388 207.647 6.40253L207.739 6.40253C207.984 6.05388 208.259 5.73692 208.596 5.48335C208.872 5.26148 209.208 5.03961 209.637 4.84944C210.066 4.65927 210.525 4.56418 211.107 4.56418C211.596 4.56418 212.086 4.65927 212.515 4.84944C212.944 5.03961 213.342 5.32488 213.648 5.70522C213.954 6.08557 214.23 6.52931 214.413 7.03645C214.597 7.54358 214.689 8.1458 214.689 8.81141L214.689 15.4358L211.841 15.4358L211.841 9.25515C211.841 8.65293 211.688 8.17749 211.413 7.86054C211.107 7.54358 210.709 7.3851 210.188 7.3851C209.606 7.3851 209.116 7.57527 208.749 7.98732C208.382 8.39936 208.198 8.90649 208.198 9.57211L208.198 15.4358L205.351 15.4358L205.351 9.25515C205.351 8.65293 205.197 8.17749 204.922 7.86053C204.616 7.54358 204.218 7.3851 203.697 7.3851C203.115 7.3851 202.626 7.57527 202.258 7.98732C201.891 8.39936 201.707 8.90649 201.707 9.5721L201.707 15.4358L198.86 15.4358L198.86 4.78605L198.798 4.78605Z" fill="#838179"/>
<path d="M222.221 15.6577C221.455 15.6577 220.751 15.4992 220.077 15.214C219.404 14.9287 218.822 14.5166 218.332 14.0095C217.842 13.5024 217.444 12.9002 217.169 12.2346C216.893 11.5689 216.74 10.8399 216.74 10.0792C216.74 9.31855 216.893 8.62124 217.169 7.92393C217.444 7.25832 217.842 6.6561 218.332 6.14897C218.822 5.64184 219.404 5.2298 220.047 4.94453C220.69 4.65927 221.394 4.50079 222.129 4.50079C222.864 4.50079 223.507 4.62758 224.119 4.91284C224.731 5.1981 225.282 5.57845 225.742 6.05388C226.201 6.52932 226.568 7.09984 226.844 7.73376C227.119 8.36767 227.242 9.06498 227.242 9.79398C227.242 9.98416 227.242 10.1743 227.242 10.3328C227.242 10.4913 227.242 10.6181 227.211 10.7449C227.211 10.9033 227.211 10.9984 227.181 11.1252L219.741 11.1252C219.894 11.6323 220.2 12.0444 220.629 12.4247C221.057 12.8051 221.67 12.9636 222.466 12.9636C222.925 12.9636 223.292 12.9002 223.629 12.8051C223.966 12.71 224.241 12.5515 224.486 12.393C224.762 12.2346 224.976 12.0127 225.191 11.7908L226.66 13.851C226.354 14.168 225.987 14.4533 225.527 14.7068C225.16 14.9287 224.701 15.1189 224.15 15.309C223.598 15.4992 222.986 15.5943 222.251 15.5943L222.221 15.6577ZM224.333 9.03328C224.18 8.52615 223.905 8.11411 223.507 7.73376C223.109 7.35341 222.619 7.19493 222.037 7.19493C221.455 7.19493 220.965 7.38511 220.567 7.73376C220.169 8.11411 219.894 8.52615 219.741 9.03328L224.364 9.03328L224.333 9.03328Z" fill="#838179"/>
<path d="M229.355 4.78606L232.202 4.78606L232.202 6.30746L232.294 6.30746C232.508 5.9905 232.784 5.70524 233.059 5.45167C233.304 5.2298 233.641 5.03963 234.008 4.84946C234.376 4.65928 234.835 4.56419 235.325 4.56419L235.539 4.56419L235.539 7.70207C235.539 7.70207 235.386 7.70207 235.294 7.67038C235.202 7.67038 235.111 7.67038 234.988 7.63868C234.866 7.63868 234.743 7.63868 234.59 7.63868C233.917 7.63868 233.335 7.89225 232.876 8.39938C232.416 8.90651 232.171 9.60382 232.171 10.4596L232.171 15.4675L229.324 15.4675L229.324 4.78606L229.355 4.78606Z" fill="#838179"/>
<path d="M240.683 15.6577C239.979 15.6577 239.336 15.5626 238.785 15.3407C238.234 15.1506 237.774 14.9287 237.407 14.6751C236.948 14.3899 236.58 14.0729 236.274 13.6926L237.958 11.8542C238.172 12.0761 238.417 12.2979 238.693 12.4564C238.938 12.6149 239.213 12.7417 239.55 12.8685C239.887 12.9952 240.254 13.0269 240.683 13.0269C241.173 13.0269 241.479 12.9636 241.663 12.8051C241.846 12.6466 241.938 12.4881 241.938 12.2662C241.938 12.0761 241.816 11.8859 241.54 11.7591C241.295 11.6323 240.959 11.4739 240.56 11.3471C240.162 11.2203 239.734 11.0618 239.305 10.9033C238.846 10.7449 238.448 10.523 238.05 10.2377C237.652 9.98415 237.346 9.6355 237.07 9.25515C236.825 8.8748 236.672 8.36767 236.672 7.79715C236.672 7.35341 236.764 6.94136 236.948 6.56101C237.131 6.18066 237.407 5.83201 237.744 5.51505C238.08 5.1981 238.509 4.97623 239.03 4.78605C239.55 4.59588 240.132 4.53249 240.775 4.53249C241.418 4.53249 242 4.62757 242.52 4.78605C243.01 4.94453 243.439 5.13471 243.775 5.35658C244.173 5.61014 244.51 5.86371 244.786 6.14897L243.102 7.98732C242.949 7.82884 242.734 7.67036 242.489 7.54358C242.306 7.4168 242.061 7.32171 241.755 7.22662C241.479 7.13154 241.142 7.09984 240.775 7.09984C240.407 7.09984 240.132 7.16323 239.979 7.32171C239.826 7.44849 239.734 7.60697 239.734 7.76545C239.734 7.95563 239.856 8.1458 240.132 8.27258C240.407 8.39937 240.714 8.55784 241.112 8.68463C241.51 8.81141 241.938 8.96989 242.367 9.12837C242.826 9.28685 243.224 9.50872 243.622 9.79398C244.02 10.0792 244.326 10.3962 244.602 10.7765C244.878 11.1569 245 11.664 245 12.2345C245 12.71 244.908 13.122 244.724 13.5341C244.541 13.9461 244.265 14.2948 243.898 14.6117C243.53 14.9287 243.071 15.1506 242.551 15.3407C242.03 15.5309 241.387 15.626 240.683 15.626L240.683 15.6577Z" fill="#838179"/>
</g>
<defs>
<clipPath id="clip0_8_1891">
<rect width="20" height="245" fill="white" transform="translate(245) rotate(90)"/>
</clipPath>
</defs>
</svg>
