<svg width="120" height="87" viewBox="0 0 120 87" fill="none" xmlns="http://www.w3.org/2000/svg">
<g clip-path="url(#clip0_1_2656)">
<path d="M2.00066 79.4344H2.61788V82.9549C2.61788 83.214 2.64074 83.5493 2.70933 83.7093C2.80839 83.9387 3.09033 84.2207 3.73041 84.2207C4.16475 84.2207 4.49156 84.1055 4.65243 83.8922C4.82769 83.6568 4.8497 83.4273 4.8497 83.0768V79.4344H5.46692V83.153C5.46692 83.7855 5.3831 84.0835 5.07068 84.3494C4.75064 84.6237 4.33154 84.7541 3.69908 84.7541C2.89136 84.7541 2.43416 84.5178 2.15222 83.9988C2.01506 83.7474 1.99982 83.4129 1.99982 83.1835L2.00066 79.4344Z" fill="#AAA097"/>
<path d="M6.5278 80.9348L7.10692 80.7756C7.10692 80.7756 7.24408 81.0575 7.24408 81.3699C7.64032 80.9737 8.03741 80.7832 8.44043 80.7832C8.85191 80.7832 9.21767 81.0042 9.37091 81.3395C9.43103 81.4766 9.46151 81.629 9.46151 81.7806V84.6609H8.85953V82.093C8.85953 81.6891 8.82905 81.5901 8.72237 81.4605C8.63855 81.3623 8.47853 81.3014 8.30327 81.3014C7.99931 81.3014 7.52602 81.5452 7.2517 81.8348V84.6618H6.67258V81.7357C6.67258 81.1947 6.5278 80.9348 6.5278 80.9348Z" fill="#AAA097"/>
<path d="M10.4843 80.8822L11.1015 80.7832V84.6618H10.4843V80.8822ZM10.8043 79.2287C11.0643 79.2287 11.2692 79.4344 11.2692 79.6935C11.2692 79.9534 11.0643 80.1583 10.8043 80.1583C10.5452 80.1583 10.3395 79.9534 10.3395 79.7011C10.3395 79.4421 10.5452 79.2287 10.8043 79.2287Z" fill="#AAA097"/>
<path d="M11.8085 80.8966L12.4181 80.7679L13.302 83.3816C13.4087 83.694 13.4849 84.0293 13.4849 84.0293H13.501C13.501 84.0293 13.5611 83.7321 13.6838 83.3892L14.5517 80.867H15.1841L13.7592 84.699H13.1725L11.8085 80.8966Z" fill="#AAA097"/>
<path d="M17.1848 81.2328C17.4744 81.2328 17.7402 81.3623 17.8706 81.568C17.9849 81.7518 18.0382 82.0032 18.0459 82.4139H16.3085C16.3381 81.629 16.6438 81.2328 17.1848 81.2328ZM17.4278 84.2495C17.0476 84.2495 16.6971 84.1131 16.4838 83.7846C16.3551 83.5874 16.3085 83.3122 16.3085 82.9549V82.8635H18.6783V82.7796C18.6783 81.8729 18.5717 81.5147 18.2431 81.1786C17.9841 80.9127 17.6259 80.7679 17.2144 80.7679C16.7581 80.7679 16.3847 80.9347 16.0799 81.2937C15.759 81.6739 15.6219 82.0862 15.6219 82.7254C15.6219 83.9827 16.2552 84.7448 17.3067 84.7448C17.7936 84.7448 18.2508 84.578 18.586 84.2723L18.3574 83.8913C18.0907 84.136 17.7944 84.2495 17.4278 84.2495Z" fill="#AAA097"/>
<path d="M19.5242 80.9271L20.1177 80.768C20.1177 80.768 20.2633 81.0651 20.2405 81.3852C20.5148 80.9966 20.9186 80.7527 21.3073 80.7527C21.4063 80.7527 21.513 80.7908 21.513 80.7908L21.2692 81.4394C21.2311 81.4233 21.1625 81.4089 21.1015 81.4089C20.8729 81.4089 20.6443 81.5079 20.4691 81.6832C20.2938 81.8585 20.2481 81.9728 20.2481 82.2852V84.6626H19.6537V81.7365C19.6529 81.1786 19.5242 80.9271 19.5242 80.9271Z" fill="#AAA097"/>
<path d="M24.3933 81.027L24.1715 81.469C23.8362 81.309 23.5543 81.1947 23.219 81.1947C22.7847 81.1947 22.5027 81.4461 22.5027 81.8195C22.5027 82.1091 22.6475 82.2843 23.0514 82.3673L23.5543 82.474C24.2401 82.6188 24.5677 82.9693 24.5677 83.5332C24.5677 84.2723 23.9878 84.7752 23.1352 84.7752C22.6551 84.7752 22.1293 84.6304 21.7407 84.3951L21.9702 83.9531C22.3588 84.1893 22.755 84.3112 23.1741 84.3112C23.639 84.3112 23.9438 84.0598 23.9438 83.6568C23.9438 83.3139 23.7524 83.1225 23.3189 83.0319L22.8465 82.9329C22.2216 82.8033 21.8864 82.4147 21.8864 81.8889C21.8864 81.2031 22.4418 80.7231 23.2351 80.7231C23.6305 80.7214 24.0733 80.8441 24.3933 81.027Z" fill="#AAA097"/>
<path d="M25.4441 80.8822L26.0613 80.7832V84.6618H25.4441V80.8822ZM25.7641 79.2287C26.024 79.2287 26.2298 79.4344 26.2298 79.6935C26.2298 79.9534 26.024 80.1583 25.7641 80.1583C25.505 80.1583 25.2993 79.9534 25.2993 79.7011C25.2993 79.4421 25.505 79.2287 25.7641 79.2287Z" fill="#AAA097"/>
<path d="M28.9933 80.867L28.8096 81.3157H28.0171V83.7626C28.0171 84.1817 28.1314 84.3265 28.5048 84.3265C28.6716 84.3265 28.7706 84.3036 28.8773 84.2494L28.962 84.6304C28.7706 84.7295 28.5573 84.7837 28.2914 84.7837C28.0933 84.7837 27.9409 84.7447 27.7961 84.677C27.5294 84.5475 27.4295 84.3036 27.4295 83.9218V81.3157H26.9342V80.867H27.4295C27.4295 80.5004 27.4905 79.906 27.4905 79.906L28.1153 79.7689C28.1153 79.7689 28.0391 80.3632 28.0391 80.867H28.9933Z" fill="#AAA097"/>
<path d="M31.5706 83.7245C31.3953 84.0826 31.0363 84.318 30.6477 84.318C30.2133 84.318 29.9932 84.0742 29.9932 83.6254C29.9932 83.0455 30.3361 82.7187 31.2962 82.7187C31.4029 82.7187 31.4935 82.7263 31.5934 82.7339L31.5706 83.7245ZM29.7798 79.9297C29.7798 80.1507 29.9551 80.3336 30.1761 80.3336C30.3971 80.3336 30.5647 80.1507 30.5647 79.9297C30.5647 79.7164 30.3894 79.5411 30.1685 79.5411C29.9551 79.5411 29.7798 79.7164 29.7798 79.9297ZM31.3487 79.9297C31.3487 80.1507 31.5316 80.3336 31.7534 80.3336C31.9668 80.3336 32.1421 80.1507 32.1421 79.9297C32.1421 79.7164 31.9592 79.5411 31.7458 79.5411C31.524 79.5411 31.3487 79.7164 31.3487 79.9297ZM29.7638 81.7043C30.0084 81.4834 30.5495 81.2556 30.9762 81.2556C31.2116 81.2556 31.3648 81.3233 31.4867 81.4605C31.5934 81.5833 31.6095 81.7204 31.6095 82.0549V82.3216C31.6095 82.3216 31.5028 82.3139 31.3428 82.3139C30.0703 82.3139 29.3311 82.8169 29.3311 83.6771C29.3311 84.1885 29.6131 84.7591 30.5503 84.7591C30.9847 84.7591 31.281 84.6143 31.6476 84.2477C31.7162 84.5144 31.9067 84.721 32.1649 84.804L32.4697 84.3773C32.1878 84.2249 32.1497 84.0649 32.1649 83.4476L32.1954 82.1971C32.203 81.8551 32.1954 81.5646 32.1116 81.3598C31.9516 80.9711 31.5858 80.7654 31.06 80.7654C30.5122 80.7654 29.9703 80.9407 29.4674 81.2759L29.7638 81.7043Z" fill="#AAA097"/>
<path d="M34.9911 80.867L34.8082 81.3157H34.0157V83.7626C34.0157 84.1817 34.1301 84.3265 34.5034 84.3265C34.6702 84.3265 34.7693 84.3036 34.876 84.2494L34.9606 84.6304C34.7693 84.7295 34.5559 84.7837 34.2901 84.7837C34.092 84.7837 33.9396 84.7447 33.7939 84.677C33.5281 84.5475 33.4282 84.3036 33.4282 83.9218V81.3157H32.9329V80.867H33.4282C33.4282 80.5004 33.4891 79.906 33.4891 79.906L34.114 79.7689C34.114 79.7689 34.0369 80.3632 34.0369 80.867H34.9911Z" fill="#AAA097"/>
<path d="M39.5944 83.694C39.5944 83.694 39.5259 83.8532 39.365 83.9675C39.1212 84.1428 38.9459 84.2113 38.6335 84.2113C38.2838 84.2113 38.0476 84.0826 37.8723 83.7702C37.7496 83.5492 37.7199 83.2216 37.7199 82.7796C37.7199 82.2462 37.78 81.9719 37.9629 81.6823C38.1229 81.4224 38.3744 81.2852 38.6724 81.2852C39.1212 81.2852 39.4031 81.4148 39.5944 81.6823V83.694ZM39.6012 79.0983V80.6917C39.6012 80.9652 39.6088 81.2776 39.6088 81.2776C39.3802 80.9737 39.0069 80.7984 38.5801 80.7984C38.3058 80.7984 38.0925 80.867 37.8486 81.0338C37.3313 81.3919 37.0638 81.9863 37.0638 82.794C37.0638 84.0064 37.6276 84.7151 38.6106 84.7151C39.0517 84.7151 39.3421 84.5856 39.6165 84.2731C39.6249 84.4713 39.7011 84.6618 39.7011 84.6618H40.3107C40.2269 84.4408 40.1964 84.0903 40.1964 83.4349V79.1982L39.6012 79.0983Z" fill="#AAA097"/>
<path d="M42.6873 81.2328C42.9769 81.2328 43.2427 81.3623 43.3731 81.568C43.4874 81.7518 43.5408 82.0032 43.5484 82.4139H41.811C41.8415 81.629 42.1463 81.2328 42.6873 81.2328ZM42.9312 84.2495C42.5502 84.2495 42.1996 84.1131 41.9863 83.7846C41.8576 83.5874 41.811 83.3122 41.811 82.9549V82.8635H44.1808V82.7796C44.1808 81.8729 44.0742 81.5147 43.7465 81.1786C43.4866 80.9127 43.1293 80.7679 42.7178 80.7679C42.2606 80.7679 41.8872 80.9347 41.5824 81.2937C41.2624 81.6739 41.1252 82.0862 41.1252 82.7254C41.1252 83.9827 41.7577 84.7448 42.8092 84.7448C43.2969 84.7448 43.7533 84.578 44.0886 84.2723L43.86 83.8913C43.5933 84.136 43.2978 84.2495 42.9312 84.2495Z" fill="#AAA097"/>
<path d="M45.0267 80.9271L45.621 80.768C45.621 80.768 45.7658 81.0651 45.743 81.3852C46.0173 80.9966 46.4211 80.7527 46.8098 80.7527C46.9088 80.7527 47.0155 80.7908 47.0155 80.7908L46.7717 81.4394C46.7336 81.4233 46.665 81.4089 46.6049 81.4089C46.3754 81.4089 46.1477 81.5079 45.9724 81.6832C45.7971 81.8585 45.7506 81.9728 45.7506 82.2852V84.6626H45.1571V81.7365C45.1562 81.1786 45.0267 80.9271 45.0267 80.9271Z" fill="#AAA097"/>
<path d="M50.6189 79.9602C50.8856 79.9602 51.0456 79.9678 51.1913 80.0059C51.5494 80.0974 51.7848 80.4174 51.7848 80.8289C51.7848 80.9745 51.7543 81.1108 51.7009 81.2336C51.5485 81.5841 51.3504 81.6832 50.7865 81.6832H49.8798V79.9611L50.6189 79.9602ZM49.2778 84.6618H50.6274C51.4046 84.6618 51.6019 84.6161 51.8838 84.5094C52.3952 84.3113 52.6992 83.8007 52.6992 83.2284C52.6992 82.8482 52.5705 82.4215 52.2267 82.1616C52.0515 82.0244 51.861 81.9482 51.5401 81.8872C52.1344 81.6967 52.4773 81.2853 52.4773 80.7442C52.4773 80.2108 52.1192 79.7308 51.5858 79.5479C51.3191 79.4573 51.0676 79.4336 50.0313 79.4336H49.2761V84.6618H49.2778ZM50.8018 82.1997C51.0617 82.1997 51.2675 82.2225 51.4122 82.253C51.7848 82.3292 52.0447 82.7178 52.0447 83.175C52.0447 83.7999 51.7628 84.1504 50.9931 84.1504H49.8806V82.1988L50.8018 82.1997Z" fill="#AAA097"/>
<path d="M53.5323 80.8966L54.119 80.7823V83.5103C54.119 83.8693 54.1724 84.0285 54.3476 84.1512C54.4704 84.2351 54.6448 84.2799 54.8124 84.2799C55.1858 84.2799 55.5745 84.0065 55.7802 83.5941V80.9043L56.3669 80.8052V83.5713C56.3669 84.0513 56.4355 84.2418 56.626 84.4171L56.2459 84.8218C55.9936 84.6161 55.8877 84.4628 55.8344 84.2114C55.5448 84.6 55.1486 84.7913 54.6304 84.7913C54.1504 84.7913 53.7922 84.5856 53.6322 84.2495C53.5636 84.1047 53.5331 83.9074 53.5331 83.6856L53.5323 80.8966Z" fill="#AAA097"/>
<path d="M57.4795 80.9348L58.0586 80.7756C58.0586 80.7756 58.1957 81.0575 58.1957 81.3699C58.592 80.9737 58.9882 80.7832 59.3921 80.7832C59.8027 80.7832 60.1693 81.0042 60.3217 81.3395C60.3827 81.4766 60.4132 81.629 60.4132 81.7806V84.6609H59.8112V82.093C59.8112 81.6891 59.7807 81.5901 59.674 81.4605C59.5894 81.3623 59.4302 81.3014 59.2549 81.3014C58.9501 81.3014 58.4777 81.5452 58.2034 81.8348V84.6618H57.6242V81.7357C57.6242 81.1947 57.4795 80.9348 57.4795 80.9348Z" fill="#AAA097"/>
<path d="M63.8193 83.694C63.8193 83.694 63.7507 83.8532 63.5899 83.9675C63.346 84.1428 63.1716 84.2113 62.8592 84.2113C62.5087 84.2113 62.2724 84.0826 62.0972 83.7702C61.9753 83.5492 61.9448 83.2216 61.9448 82.7796C61.9448 82.2462 62.0049 81.9719 62.1886 81.6823C62.3478 81.4224 62.5993 81.2852 62.8973 81.2852C63.346 81.2852 63.628 81.4148 63.8193 81.6823V83.694ZM63.8269 79.0983V80.6917C63.8269 80.9652 63.8345 81.2776 63.8345 81.2776C63.6059 80.9737 63.2326 80.7984 62.8058 80.7984C62.5315 80.7984 62.3182 80.867 62.0743 81.0338C61.557 81.3919 61.2895 81.9863 61.2895 82.794C61.2895 84.0064 61.8533 84.7151 62.8363 84.7151C63.2783 84.7151 63.5678 84.5856 63.8422 84.2731C63.8498 84.4713 63.926 84.6618 63.926 84.6618H64.5356C64.4518 84.4408 64.4213 84.0903 64.4213 83.4349V79.1982L63.8269 79.0983Z" fill="#AAA097"/>
<path d="M66.9122 81.2328C67.2018 81.2328 67.4676 81.3623 67.598 81.568C67.7123 81.7518 67.7656 82.0032 67.7733 82.4139H66.0367C66.0672 81.629 66.3712 81.2328 66.9122 81.2328ZM67.1552 84.2495C66.775 84.2495 66.4245 84.1131 66.212 83.7846C66.0825 83.5874 66.0367 83.3122 66.0367 82.9549V82.8635H68.4057V82.7796C68.4057 81.8729 68.299 81.5147 67.9714 81.1786C67.7115 80.9127 67.3542 80.7679 66.9418 80.7679C66.4846 80.7679 66.1129 80.9347 65.8073 81.2937C65.4873 81.6739 65.3501 82.0862 65.3501 82.7254C65.3501 83.9827 65.9826 84.7448 67.0333 84.7448C67.521 84.7448 67.9782 84.578 68.3134 84.2723L68.0848 83.8913C67.819 84.136 67.5218 84.2495 67.1552 84.2495Z" fill="#AAA097"/>
<path d="M71.7941 81.027L71.5731 81.469C71.2378 81.309 70.9559 81.1947 70.6206 81.1947C70.1863 81.1947 69.9043 81.4461 69.9043 81.8195C69.9043 82.1091 70.0491 82.2843 70.4521 82.3673L70.9559 82.474C71.6417 82.6188 71.9685 82.9693 71.9685 83.5332C71.9685 84.2723 71.3894 84.7752 70.5368 84.7752C70.0567 84.7752 69.531 84.6304 69.1423 84.3951L69.3718 83.9531C69.7604 84.1893 70.1566 84.3112 70.5757 84.3112C71.0406 84.3112 71.3454 84.0598 71.3454 83.6568C71.3454 83.3139 71.154 83.1225 70.7205 83.0319L70.2481 82.9329C69.6232 82.8033 69.2871 82.4147 69.2871 81.8889C69.2871 81.2031 69.8434 80.7231 70.6367 80.7231C71.0321 80.7214 71.4741 80.8441 71.7941 81.027Z" fill="#AAA097"/>
<path d="M72.3808 80.8966L72.9752 80.7679L73.5848 83.2749C73.6686 83.6255 73.722 83.9074 73.722 83.9074H73.7448C73.7448 83.9074 73.7982 83.6331 73.8735 83.3588L74.5525 80.8679H75.2002L75.8632 83.3901C75.9165 83.5958 76.0156 83.9463 76.0156 83.9463H76.0308C76.0308 83.9463 76.1079 83.573 76.146 83.4206L76.7479 80.8679H77.3719L76.2975 84.6931H75.7108L74.9564 82.0261C74.8878 81.7746 74.8497 81.607 74.8497 81.607H74.8345C74.8345 81.607 74.7879 81.8737 74.7498 81.9956L73.9887 84.6939H73.4324L72.3808 80.8966Z" fill="#AAA097"/>
<path d="M79.315 81.2328C79.6046 81.2328 79.8704 81.3623 80.0008 81.568C80.1151 81.7518 80.1676 82.0032 80.1761 82.4139H78.4387C78.4692 81.629 78.7732 81.2328 79.315 81.2328ZM79.558 84.2495C79.1779 84.2495 78.8273 84.1131 78.614 83.7846C78.4844 83.5874 78.4387 83.3122 78.4387 82.9549V82.8635H80.8077V82.7796C80.8077 81.8729 80.7019 81.5147 80.3742 81.1786C80.1143 80.9127 79.757 80.7679 79.3447 80.7679C78.8875 80.7679 78.5149 80.9347 78.2093 81.2937C77.8892 81.6739 77.7521 82.0862 77.7521 82.7254C77.7521 83.9827 78.3845 84.7448 79.4361 84.7448C79.9238 84.7448 80.3801 84.578 80.7163 84.2723L80.4877 83.8913C80.2201 84.136 79.9238 84.2495 79.558 84.2495Z" fill="#AAA097"/>
<path d="M81.684 79.205L82.2775 79.0907C82.2775 79.0907 82.3766 79.4107 82.3766 79.9907V80.8746C82.3766 81.1185 82.3546 81.3919 82.3546 81.3919C82.6966 81.0719 83.1318 80.79 83.6187 80.79C84.0759 80.79 84.4873 81.0414 84.594 81.3919C84.6397 81.5452 84.655 81.6663 84.655 81.9406V84.6609H84.0682V82.0396C84.0682 81.7577 84.0301 81.5824 83.9235 81.4758C83.8329 81.3843 83.672 81.3225 83.4823 81.3225C83.1157 81.3225 82.7051 81.5587 82.3766 81.9634V84.6609H81.7831V79.9822C81.7831 79.4869 81.684 79.205 81.684 79.205Z" fill="#AAA097"/>
<path d="M85.6608 80.9271L86.2552 80.768C86.2552 80.768 86.4 81.0651 86.378 81.3852C86.6514 80.9966 87.0561 80.7527 87.4448 80.7527C87.5438 80.7527 87.6505 80.7908 87.6505 80.7908L87.4067 81.4394C87.3686 81.4233 87.3 81.4089 87.239 81.4089C87.0096 81.4089 86.7818 81.5079 86.6066 81.6832C86.4313 81.8585 86.3856 81.9728 86.3856 82.2852V84.6626H85.7912V81.7365C85.7904 81.1786 85.6608 80.9271 85.6608 80.9271Z" fill="#AAA097"/>
<path d="M89.9128 79.4344H90.5224V81.6214H92.7246V79.4344H93.3494V84.6618H92.7246V82.1319H90.5224V84.6618H89.9128V79.4344Z" fill="#AAA097"/>
<path d="M96.5574 83.7245C96.3822 84.0827 96.024 84.318 95.6354 84.318C95.2011 84.318 94.9801 84.0742 94.9801 83.6255C94.9801 83.0455 95.323 82.7187 96.2831 82.7187C96.3898 82.7187 96.4812 82.7263 96.5811 82.7339L96.5574 83.7245ZM94.7515 81.7044C94.9953 81.4834 95.5363 81.2556 95.9631 81.2556C96.1993 81.2556 96.3517 81.3234 96.4745 81.4605C96.5811 81.5833 96.5964 81.7205 96.5964 82.0549V82.3216C96.5964 82.3216 96.4897 82.314 96.3297 82.314C95.0571 82.314 94.318 82.8169 94.318 83.6771C94.318 84.1885 94.5999 84.7591 95.5372 84.7591C95.9715 84.7591 96.2687 84.6144 96.6345 84.2478C96.7031 84.5145 96.8936 84.721 97.1526 84.804L97.4566 84.3773C97.1747 84.2249 97.1366 84.0649 97.1526 83.4477L97.1831 82.1971C97.1907 81.8551 97.1831 81.5647 97.0984 81.3598C96.9393 80.9712 96.5727 80.7654 96.0469 80.7654C95.4991 80.7654 94.9581 80.9407 94.4543 81.276L94.7515 81.7044Z" fill="#AAA097"/>
<path d="M98.2186 80.9127L98.7977 80.7756C98.7977 80.7756 98.9349 81.0727 98.9349 81.3394C99.1863 81.0575 99.652 80.7679 100.041 80.7679C100.413 80.7679 100.787 80.9965 100.925 81.4004C101.29 81.0118 101.754 80.7679 102.143 80.7679C102.707 80.7679 103.095 81.1947 103.095 81.7966V84.6618H102.486V81.8576C102.486 81.491 102.318 81.3013 101.998 81.3013C101.655 81.3013 101.389 81.5223 100.992 81.8872V84.6609H100.39V81.9634C100.39 81.734 100.367 81.5824 100.283 81.4758C100.192 81.3691 100.069 81.3225 99.8942 81.3225C99.6046 81.3225 99.3227 81.4681 98.9264 81.8263V84.6609H98.3549V81.7204C98.3558 81.1718 98.2186 80.9127 98.2186 80.9127Z" fill="#AAA097"/>
<path d="M104.832 81.8195C105.038 81.5376 105.412 81.3234 105.784 81.3234C106.082 81.3234 106.356 81.4461 106.502 81.6519C106.661 81.8729 106.722 82.1692 106.722 82.673C106.722 83.313 106.593 83.6856 106.456 83.8913C106.319 84.0894 106.029 84.2266 105.77 84.2266C105.412 84.2266 105.031 84.0285 104.833 83.7694L104.832 81.8195ZM104.246 79.9822V83.7161C104.246 84.2274 104.216 84.4781 104.132 84.6609H104.725C104.802 84.5085 104.817 84.4095 104.832 84.2495C105.045 84.5314 105.48 84.7532 105.876 84.7532C106.782 84.7532 107.384 83.9294 107.384 82.7111C107.384 81.5223 106.82 80.7832 105.914 80.7832C105.51 80.7832 105.198 80.928 104.824 81.2946C104.824 81.2946 104.84 81.0651 104.84 80.8755V79.9916C104.84 79.4116 104.741 79.0916 104.741 79.0916L104.147 79.2059C104.147 79.205 104.246 79.4869 104.246 79.9822Z" fill="#AAA097"/>
<path d="M108.276 80.8966L108.863 80.7823V83.5103C108.863 83.8693 108.916 84.0285 109.092 84.1512C109.214 84.2351 109.39 84.2799 109.556 84.2799C109.93 84.2799 110.318 84.0065 110.525 83.5941V80.9043L111.111 80.8052V83.5713C111.111 84.0513 111.179 84.2418 111.371 84.4171L110.99 84.8218C110.738 84.6161 110.632 84.4628 110.578 84.2114C110.289 84.6 109.892 84.7913 109.374 84.7913C108.895 84.7913 108.536 84.5856 108.376 84.2495C108.308 84.1047 108.277 83.9074 108.277 83.6856L108.276 80.8966Z" fill="#AAA097"/>
<path d="M112.238 80.9271L112.832 80.768C112.832 80.768 112.977 81.0651 112.955 81.3852C113.228 80.9966 113.633 80.7527 114.022 80.7527C114.121 80.7527 114.227 80.7908 114.227 80.7908L113.984 81.4394C113.945 81.4233 113.877 81.4089 113.816 81.4089C113.587 81.4089 113.359 81.5079 113.183 81.6832C113.008 81.8585 112.962 81.9728 112.962 82.2852V84.6626H112.368V81.7365C112.368 81.1786 112.238 80.9271 112.238 80.9271Z" fill="#AAA097"/>
<path d="M116.634 82.0405C116.634 82.551 116.405 82.8016 115.948 82.8016C115.468 82.8016 115.216 82.5502 115.216 82.0625C115.216 81.5376 115.46 81.2937 115.933 81.2937C116.436 81.2937 116.634 81.5223 116.634 82.0405ZM117.106 81.0033C116.641 81.0033 116.526 80.7899 115.948 80.7899C115.117 80.7899 114.546 81.3081 114.546 82.071C114.546 82.5739 114.889 83.0074 115.399 83.1682C114.882 83.3274 114.713 83.5103 114.713 83.8159C114.713 84.1588 114.98 84.3646 115.43 84.3646C115.552 84.3646 115.865 84.3561 116.016 84.3561C116.39 84.3561 116.618 84.3951 116.763 84.4933C116.9 84.5847 116.969 84.7447 116.969 84.9505C116.969 85.4238 116.634 85.6134 116.047 85.6134C115.742 85.6134 115.46 85.5448 115.277 85.4382C115.14 85.3543 115.056 85.1943 115.056 84.997C115.056 84.8743 115.11 84.7371 115.163 84.6541L114.538 84.7075C114.485 84.8607 114.462 84.9742 114.462 85.1122C114.462 85.6532 114.919 86.0799 116.108 86.0799C117.03 86.0799 117.616 85.7074 117.616 84.8836C117.616 84.5559 117.494 84.2901 117.197 84.0843C116.968 83.9243 116.724 83.871 116.283 83.871H115.673C115.482 83.871 115.369 83.8024 115.369 83.6873C115.369 83.5586 115.544 83.4282 116.055 83.2461C116.329 83.2461 116.573 83.2004 116.763 83.0785C117.114 82.8575 117.327 82.4613 117.327 82.0354C117.327 81.7916 117.251 81.5782 117.098 81.3869C117.167 81.4173 117.258 81.4334 117.358 81.4334C117.586 81.4334 117.761 81.3725 117.998 81.204L117.632 80.8382C117.45 80.9584 117.304 81.0033 117.106 81.0033Z" fill="#AAA097"/>
<path d="M3.16062 56.1409V49.2583C3.16062 48.9721 3.05733 48.7605 2.85159 48.6267C2.75337 48.5556 2.56965 48.4878 2.30125 48.4252C2.09551 48.3803 1.99222 48.3227 1.99222 48.2499C1.99222 48.1509 2.06418 48.1026 2.20727 48.1026C2.37745 48.1026 2.62553 48.1128 2.95234 48.1322C3.28 48.1517 3.52299 48.1619 3.68386 48.1619C3.82779 48.1619 4.03777 48.1517 4.31548 48.1322C4.59234 48.1128 4.79892 48.1026 4.9327 48.1026C5.10288 48.1026 5.18839 48.1475 5.18839 48.2364C5.18839 48.299 5.10288 48.3541 4.93354 48.3964C4.71934 48.4591 4.4484 48.5268 4.35866 48.5996C4.18932 48.7419 4.10466 48.962 4.10466 49.2575V52.1615C4.10466 52.3216 4.17154 52.4028 4.30532 52.4028H9.45306C9.52418 52.4028 9.56059 52.2741 9.56059 52.0125V49.2575C9.56059 48.9882 9.47507 48.7859 9.30574 48.6521C9.21769 48.5895 8.93236 48.5183 8.69106 48.437C8.52173 48.3837 8.43621 48.3211 8.43621 48.2482C8.43621 48.1492 8.51241 48.1009 8.66566 48.1009C8.82653 48.1009 9.08137 48.1111 9.4302 48.1306C9.77903 48.15 9.98985 48.1602 10.0618 48.1602C10.2498 48.1602 10.4394 48.15 10.6325 48.1306C10.8255 48.1111 10.9576 48.1009 11.0287 48.1009C11.2793 48.1009 11.4046 48.172 11.4046 48.316C11.4046 48.3702 11.3284 48.4184 11.176 48.4633C10.9694 48.5175 10.8213 48.581 10.7324 48.6521C10.5791 48.7859 10.5038 48.9874 10.5038 49.2575V56.3813C10.5038 56.6692 10.6105 56.8843 10.8255 57.0282C10.9237 57.0908 11.1176 57.162 11.4038 57.2432C11.6188 57.3059 11.7272 57.377 11.7272 57.4583C11.7272 57.5658 11.6773 57.6183 11.579 57.6183C11.4715 57.6183 11.2768 57.6082 10.9948 57.5887C10.7129 57.5692 10.4868 57.5591 10.3167 57.5591C9.97715 57.5591 9.65203 57.5692 9.34384 57.5887C9.03481 57.6082 8.86293 57.6183 8.82737 57.6183C8.61147 57.6183 8.50479 57.5607 8.50479 57.4448C8.50479 57.3635 8.58523 57.2907 8.74525 57.228C8.97639 57.1484 9.24901 57.0807 9.32013 57.0282C9.47931 56.8927 9.56059 56.7039 9.56059 56.4626V53.2343C9.56059 53.0277 9.56059 52.9413 9.56059 52.9777C9.55127 52.9235 9.51063 52.8965 9.43951 52.8965H4.26552C4.15884 52.8965 4.1055 52.9726 4.1055 53.1251V56.4753C4.1055 56.7352 4.21726 56.9283 4.43994 57.0544C4.5119 57.0993 4.83279 57.1654 5.16299 57.2559C5.38566 57.3186 5.49743 57.4033 5.49743 57.5108C5.49743 57.5836 5.42546 57.6183 5.28237 57.6183C5.27306 57.6183 5.03176 57.6082 4.55762 57.5887C4.08349 57.5692 3.70333 57.5591 3.41631 57.5591C3.02177 57.5591 2.71781 57.5692 2.50276 57.5887C2.28771 57.6082 2.20727 57.6183 2.26146 57.6183C2.16325 57.6183 2.11329 57.5523 2.11329 57.4168C2.11329 57.3279 2.20304 57.2568 2.38253 57.2018C2.62383 57.1408 2.79317 57.0629 2.89307 56.9732C3.07087 56.8038 3.16062 56.5261 3.16062 56.1409Z" fill="#AAA097"/>
<path d="M15.1875 50.6756V52.822C15.1875 53.0218 15.2053 53.1378 15.24 53.1674C15.2739 53.1987 15.4026 53.214 15.6261 53.214H16.8699C17.2229 53.214 17.4803 53.1327 17.642 52.971C17.7411 52.8787 17.8181 52.7297 17.8715 52.5298C17.9172 52.3681 17.9705 52.2852 18.0323 52.2852C18.1162 52.2852 18.1585 52.358 18.1585 52.5053C18.1585 52.6442 18.1543 52.8406 18.1466 53.0971C18.139 53.3554 18.1348 53.545 18.1348 53.6678C18.1348 53.7685 18.139 53.9175 18.1466 54.1174C18.1543 54.3172 18.1585 54.4713 18.1585 54.5771C18.1585 54.6778 18.1153 54.7278 18.0323 54.7278C17.9477 54.7278 17.8859 54.6397 17.8478 54.4628C17.7936 54.2181 17.7402 54.0572 17.6869 53.9802C17.5718 53.8049 17.3753 53.7152 17.0993 53.7152H15.395C15.2874 53.7152 15.2214 53.755 15.1994 53.8312C15.1909 53.8625 15.1875 53.9472 15.1875 54.0843V56.2044C15.1875 56.6125 15.2138 56.8572 15.268 56.9418C15.3603 57.0892 15.6253 57.162 16.0622 57.162C16.8462 57.162 17.5057 57.0578 18.0434 56.8495C18.4125 56.7107 18.7156 56.5219 18.9535 56.284C19.1686 56.0757 19.2719 55.9716 19.2642 55.9716C19.3252 55.9716 19.3557 56.0181 19.3557 56.1104C19.3557 56.4347 19.1635 56.8081 18.78 57.2314C18.6115 57.4168 18.4387 57.532 18.2618 57.5785C18.1619 57.6082 17.9587 57.6234 17.6522 57.6234C17.4143 57.6234 16.9757 57.6116 16.3382 57.5853C15.7853 57.5684 15.3484 57.5658 15.0258 57.5718C14.9335 57.5718 14.699 57.5802 14.3231 57.598C14.031 57.6149 13.7965 57.6226 13.6204 57.6226C13.5052 57.6226 13.4485 57.5845 13.4485 57.5083C13.4561 57.4473 13.5247 57.3846 13.6542 57.3228C13.7533 57.2847 13.8523 57.2466 13.9531 57.2085C14.0903 57.1391 14.1825 57.0197 14.2283 56.8495C14.2587 56.7268 14.274 56.5126 14.274 56.2044V50.9457C14.274 50.5918 14.2477 50.3471 14.1936 50.2083C14.1089 49.9619 13.9285 49.8197 13.6542 49.7816C13.4248 49.7206 13.3096 49.6588 13.3096 49.5978C13.3096 49.5056 13.4443 49.459 13.7135 49.459C14.5805 49.459 15.3349 49.4691 15.9758 49.4852C16.6176 49.5022 16.9495 49.5098 16.9732 49.5098C17.0409 49.5098 17.3008 49.5013 17.7496 49.4852C18.1991 49.4683 18.4887 49.459 18.6191 49.459C18.6961 49.459 18.7342 49.5453 18.7342 49.7138C18.7342 50.6299 18.6572 51.0863 18.5048 51.0863C18.4049 51.0863 18.3465 50.9838 18.3321 50.7756C18.316 50.5156 18.2813 50.3471 18.2279 50.2692C18.1052 50.1008 17.7978 49.9983 17.3068 49.9602C17.2068 49.9517 16.8614 49.9484 16.2704 49.9484C15.7082 49.9484 15.389 49.9729 15.3078 50.0229C15.2282 50.0737 15.1875 50.2921 15.1875 50.6756Z" fill="#AAA097"/>
<path d="M22.6822 50.6011V56.2035C22.6822 56.6116 22.7085 56.8563 22.7627 56.941C22.855 57.0883 23.12 57.1611 23.5568 57.1611C24.3409 57.1611 25.0004 57.057 25.5389 56.8487C25.9072 56.7098 26.2103 56.521 26.4482 56.2831C26.6633 56.0748 26.7674 55.9707 26.7589 55.9707C26.8208 55.9707 26.8512 56.0173 26.8512 56.1096C26.8512 56.4338 26.659 56.8072 26.2747 57.2305C26.1062 57.416 25.9334 57.5311 25.7573 57.5777C25.6574 57.6073 25.4542 57.6225 25.146 57.6225C24.9081 57.6225 24.4704 57.6107 23.8337 57.5844C23.2808 57.5675 22.8423 57.565 22.5197 57.5709C22.4274 57.5709 22.1929 57.5794 21.8169 57.5971C21.5248 57.6141 21.2912 57.6217 21.1151 57.6217C20.9991 57.6217 20.9423 57.5836 20.9423 57.5074C20.95 57.4464 21.0185 57.3838 21.1489 57.322C21.248 57.2839 21.347 57.2458 21.4469 57.2077C21.585 57.1383 21.6764 57.0189 21.7221 56.8487C21.7526 56.7259 21.7687 56.5117 21.7687 56.2035V50.3598C21.7687 50.1304 21.6078 49.9577 21.2869 49.8476C20.9652 49.7367 20.8052 49.6571 20.8052 49.6114C20.8052 49.5123 20.8822 49.4607 21.0346 49.4607C21.088 49.4607 21.2421 49.4708 21.4952 49.4869C21.7492 49.5038 21.9829 49.5115 22.1979 49.5115C22.4596 49.5115 22.7051 49.503 22.9354 49.4869C23.1648 49.47 23.2885 49.4607 23.3037 49.4607C23.4502 49.4607 23.523 49.5149 23.523 49.6224C23.523 49.6833 23.4502 49.7333 23.3037 49.7731C23.1191 49.8264 22.9845 49.8874 22.8998 49.9568C22.7542 50.0948 22.6822 50.3099 22.6822 50.6011Z" fill="#AAA097"/>
<path d="M35.9538 50.8441L36.1095 56.5625C36.1172 56.8402 36.2018 57.0358 36.3644 57.151C36.4262 57.1975 36.5693 57.2466 36.7937 57.3C36.9486 57.3398 37.0256 57.4092 37.0256 57.5083C37.0256 57.5845 36.9334 57.6226 36.7488 57.6226C36.6954 57.6226 36.5456 57.6141 36.3001 57.598C36.0545 57.5802 35.8437 57.5718 35.6667 57.5718C35.5431 57.5718 35.367 57.5802 35.1367 57.598C34.9073 57.6149 34.7447 57.6226 34.6533 57.6226C34.5686 57.6226 34.5271 57.5878 34.5271 57.5201C34.5271 57.4354 34.5881 57.366 34.7117 57.3118C34.8963 57.2356 35.0148 57.1696 35.069 57.1171C35.1918 57.0011 35.2493 56.8208 35.2417 56.5744L35.1198 52.1014C35.1122 51.8017 35.069 51.6535 34.9936 51.6535C34.909 51.6535 34.8091 51.7678 34.6939 51.9973L32.3114 56.8589C32.1192 57.2424 32.0007 57.4346 31.9541 57.4346C31.9075 57.4346 31.8305 57.3237 31.7247 57.1002L29.2727 51.9643C29.2338 51.8796 29.188 51.8373 29.1347 51.8373C29.0881 51.8373 29.0619 51.8948 29.0534 52.0091L28.9188 56.0554C28.9036 56.5016 28.984 56.8241 29.1601 57.0248C29.2609 57.1323 29.4327 57.217 29.6791 57.278C29.8628 57.3321 29.9551 57.405 29.9551 57.4981C29.9551 57.5828 29.8594 57.6234 29.6673 57.6234C29.6359 57.6234 29.492 57.6149 29.2354 57.5988C28.9772 57.5811 28.7842 57.5726 28.6529 57.5726C28.4226 57.5726 28.2076 57.5811 28.0078 57.5988C27.808 57.6158 27.6894 57.6234 27.6505 57.6234C27.5734 57.6234 27.5353 57.5785 27.5353 57.4862C27.5353 57.394 27.6005 57.3288 27.7301 57.2898C27.9062 57.2365 28.0298 57.1755 28.0992 57.1061C28.2448 56.9605 28.3287 56.7141 28.3524 56.3686C28.4133 55.5685 28.4751 54.7659 28.5361 53.9573C28.5971 53.1818 28.6275 52.5434 28.6275 52.0439C28.6275 51.2514 28.5319 50.668 28.3405 50.2913C28.2245 50.0533 28.0527 49.8891 27.8232 49.7968C27.631 49.7274 27.5353 49.6579 27.5353 49.5885C27.5353 49.5039 27.6005 49.4615 27.7309 49.4615C27.8003 49.4615 27.9036 49.4717 28.0416 49.4878C28.1805 49.5047 28.288 49.5123 28.3651 49.5123C28.4337 49.5123 28.5378 49.5039 28.6758 49.4878C28.8138 49.4717 28.9179 49.4615 28.9874 49.4615C29.056 49.4615 29.1068 49.4979 29.1364 49.5724C29.1669 49.6452 29.1982 49.7164 29.2287 49.7841L31.9685 55.638C32.0769 55.8691 32.1615 55.9834 32.2225 55.9834C32.253 55.9834 32.3724 55.7768 32.5798 55.362L35.3205 49.8535C35.45 49.5919 35.5499 49.4615 35.6202 49.4615C35.6583 49.4615 35.754 49.4717 35.9072 49.4878C36.0613 49.5047 36.146 49.5123 36.1612 49.5123C36.2526 49.5123 36.3551 49.5039 36.466 49.4878C36.5778 49.4708 36.6599 49.4615 36.7141 49.4615C36.7903 49.4615 36.8292 49.5081 36.8292 49.6004C36.8292 49.685 36.7522 49.7477 36.5998 49.7858C36.3923 49.8324 36.2459 49.9001 36.1612 49.9924C36.0164 50.16 35.947 50.4445 35.9538 50.8441Z" fill="#AAA097"/>
<path d="M40.1642 50.4047V54.5424C40.1642 55.4255 40.4293 56.1003 40.9567 56.5685C41.4393 57.007 42.0913 57.2263 42.9108 57.2263C44.6787 57.2263 45.5635 56.2967 45.5635 54.4382V50.7061C45.5635 50.3692 45.472 50.1287 45.2891 49.9915C45.2045 49.9221 45.0326 49.8612 44.7735 49.8078C44.5906 49.7612 44.4992 49.6842 44.4992 49.5767C44.4992 49.5005 44.5373 49.4607 44.6143 49.4607C44.7684 49.4607 44.9945 49.4708 45.2942 49.4869C45.5939 49.503 45.8166 49.5115 45.9622 49.5115C46.0393 49.5115 46.1468 49.503 46.2848 49.4869C46.4228 49.4708 46.5261 49.4607 46.5964 49.4607C46.6954 49.4607 46.7454 49.5039 46.7454 49.5877C46.7454 49.6656 46.6887 49.7299 46.5727 49.7824C46.4118 49.8603 46.3001 49.9416 46.2382 50.0254C46.1231 50.1795 46.0655 50.4089 46.0655 50.7163V54.2901C46.0655 56.5625 44.9953 57.6996 42.8558 57.6996C41.474 57.6996 40.4961 57.3423 39.9213 56.6277C39.4759 56.0816 39.2532 55.2832 39.2532 54.2317V50.3471C39.2532 50.1549 39.172 50.0161 39.0102 49.9323C38.9798 49.9094 38.8282 49.8595 38.559 49.7816C38.3964 49.7435 38.3151 49.6757 38.3151 49.575C38.3151 49.4988 38.3998 49.459 38.5691 49.459C38.6682 49.459 38.8164 49.4691 39.0119 49.4852C39.2075 49.5013 39.3591 49.5098 39.4666 49.5098C39.5902 49.5098 39.7739 49.5013 40.0195 49.4852C40.265 49.4691 40.4453 49.459 40.5613 49.459C40.8069 49.459 40.9305 49.4988 40.9305 49.575C40.9305 49.6529 40.8653 49.7088 40.7366 49.7485C40.5461 49.8019 40.4216 49.851 40.3607 49.8976C40.2294 49.9992 40.1642 50.1676 40.1642 50.4047Z" fill="#AAA097"/>
<path d="M51.077 56.6209V50.6214C51.077 50.2675 51.038 50.0906 50.961 50.0906H49.0797C48.7478 50.0906 48.5251 50.1448 48.41 50.2523C48.3405 50.3302 48.2483 50.5469 48.1331 50.9025C48.0798 51.0795 48.0146 51.1684 47.9392 51.1684C47.8639 51.1684 47.8249 51.1218 47.8249 51.0295L47.9511 49.9102L47.9849 49.6342C48.0163 49.5182 48.073 49.4607 48.1585 49.4607C48.4117 49.4607 48.8833 49.4708 49.575 49.4869C50.265 49.5038 50.8839 49.5115 51.4292 49.5115C52.2818 49.5115 53.076 49.503 53.8134 49.4869C54.55 49.47 54.8802 49.4607 54.8032 49.4607C54.9335 49.4607 55.0208 49.4835 55.0631 49.5301C55.1054 49.5767 55.13 49.6656 55.1376 49.7959L55.1952 50.7188C55.2036 50.8873 55.1605 50.972 55.069 50.972C54.9623 50.972 54.9005 50.8958 54.8853 50.7408C54.8624 50.5325 54.8235 50.3937 54.7701 50.3226C54.655 50.1685 54.4289 50.0914 54.092 50.0914H52.4486C52.1954 50.0914 52.0557 50.1092 52.0286 50.1448C52.0024 50.1795 51.9888 50.3497 51.9888 50.657V56.5405C51.9888 56.8165 52.0684 57.0172 52.2284 57.1408C52.3046 57.1941 52.4537 57.2483 52.6738 57.3008C52.8338 57.3406 52.9142 57.4016 52.9142 57.4862C52.9142 57.5785 52.8795 57.6234 52.8101 57.6234C52.7254 57.6234 52.5781 57.6149 52.3673 57.5988C52.1556 57.5811 51.9931 57.5726 51.8779 57.5726C51.4944 57.5726 51.1718 57.5777 50.9102 57.5861C50.7256 57.5946 50.5224 57.6073 50.2997 57.6242C50.2074 57.6242 50.1617 57.5743 50.1617 57.4752C50.1617 57.4058 50.2388 57.3415 50.3929 57.2788C50.6232 57.2026 50.7739 57.1416 50.8433 57.0951C50.9999 56.9774 51.077 56.8208 51.077 56.6209Z" fill="#AAA097"/>
<path d="M60.1025 57.0672L59.8138 55.5804C59.768 55.3425 59.8104 55.2231 59.9416 55.2231C60.0102 55.2231 60.0601 55.2561 60.0915 55.3256L60.1617 55.6016C60.2608 55.9851 60.4835 56.3373 60.8281 56.6599C61.2963 57.1044 61.8779 57.3279 62.5764 57.3279C63.1657 57.3279 63.6636 57.1738 64.0708 56.8665C64.5145 56.5354 64.7371 56.0842 64.7371 55.5076C64.7371 54.9022 64.335 54.4526 63.5306 54.1597C62.7788 53.9065 62.0295 53.6534 61.2776 53.4011C60.4733 53.0006 60.0703 52.3758 60.0703 51.524C60.0703 50.8331 60.3328 50.287 60.8535 49.8883C61.3225 49.5343 61.9126 49.3574 62.6264 49.3574C63.0328 49.3574 63.3935 49.3921 63.7076 49.4615C63.915 49.5081 64.1114 49.5775 64.2952 49.6698C64.4484 49.7392 64.5356 49.7739 64.5602 49.7739C64.5906 49.7739 64.6288 49.7528 64.6753 49.7113C64.721 49.6681 64.7634 49.647 64.8015 49.647C64.8777 49.647 64.9251 49.7011 64.9395 49.8087L65.1122 51.375C65.1283 51.491 65.0851 51.5486 64.986 51.5486C64.9005 51.5486 64.8209 51.4326 64.7447 51.2031C64.5763 50.7188 64.2985 50.348 63.9116 50.0906C63.5247 49.8341 63.0709 49.7054 62.5502 49.7054C62.0439 49.7054 61.618 49.8214 61.2743 50.0508C60.8755 50.3268 60.6757 50.7121 60.6757 51.2031C60.6757 51.7865 61.0795 52.2251 61.883 52.5163C62.6348 52.7779 63.3841 53.0353 64.136 53.2885C64.9395 53.7186 65.3425 54.3832 65.3425 55.2815C65.3425 55.8971 65.1198 56.4178 64.6753 56.8496C64.0987 57.4168 63.2241 57.7013 62.049 57.7013C61.6493 57.7013 61.2226 57.62 60.7705 57.46C60.348 57.3135 60.1253 57.1831 60.1025 57.0672Z" fill="#AAA097"/>
<path d="M66.4982 53.6906C66.4982 52.4782 66.8902 51.4512 67.6733 50.6147C68.4565 49.7782 69.448 49.3582 70.6452 49.3582C71.2827 49.3582 71.8466 49.4361 72.3376 49.5894C72.6543 49.6884 72.9659 49.8307 73.2724 50.0161C73.5264 50.1702 73.683 50.2472 73.7448 50.2472C73.7753 50.2472 73.8193 50.2277 73.8777 50.1896C73.9345 50.1515 73.9827 50.1321 74.0208 50.1321C74.0826 50.1321 74.1207 50.193 74.1377 50.3175C74.1529 50.4022 74.1673 50.6519 74.1825 51.0651C74.1901 51.1726 74.202 51.3183 74.2181 51.5037C74.2249 51.6578 74.2291 51.7653 74.2291 51.8263C74.2291 51.9803 74.1902 52.0557 74.114 52.0557C74.0606 52.0557 74.0064 52.0024 73.9531 51.8957C73.9141 51.8263 73.8794 51.7534 73.8498 51.6755C73.4654 51.0143 73.0582 50.5309 72.628 50.2235C72.1361 49.8696 71.5375 49.6926 70.8314 49.6926C69.7409 49.6926 68.9044 50.0313 68.321 50.7061C67.7749 51.3445 67.5023 52.2191 67.5023 53.3325C67.5023 54.4154 67.7868 55.3331 68.3549 56.0858C68.984 56.924 69.8205 57.3406 70.8653 57.3406C71.6713 57.3406 72.3935 57.1255 73.0319 56.6971C73.5458 56.3517 73.8608 56.0063 73.9759 55.66C74.0064 55.5609 74.0606 55.5093 74.1377 55.5093C74.2283 55.5093 74.263 55.5524 74.2409 55.6363L73.9759 56.7886C73.9455 56.9122 73.6999 57.0697 73.2393 57.2619C72.54 57.5548 71.6442 57.7004 70.5546 57.7004C69.3641 57.7004 68.3905 57.3288 67.6344 56.5828C66.8766 55.8386 66.4982 54.8743 66.4982 53.6906Z" fill="#AAA097"/>
<path d="M76.488 56.3559V50.4521C76.488 50.2074 76.4 50.0254 76.223 49.9094C76.1375 49.8485 75.9809 49.79 75.7506 49.7375C75.5736 49.6978 75.4856 49.6486 75.4856 49.5868C75.4856 49.5022 75.5474 49.4598 75.6701 49.4598C75.8166 49.4598 76.0291 49.47 76.3102 49.4861C76.5896 49.503 76.7988 49.5106 76.9376 49.5106C77.0604 49.5106 77.2399 49.5022 77.4795 49.4861C77.7165 49.4692 77.8935 49.4598 78.0086 49.4598C78.1543 49.4598 78.2279 49.4996 78.2279 49.5758C78.2279 49.63 78.1543 49.6766 78.0095 49.7147C77.8258 49.768 77.6962 49.8256 77.6192 49.8866C77.4744 50.0102 77.4016 50.199 77.4016 50.4521V52.9422C77.4016 53.081 77.4583 53.1488 77.5735 53.1488H81.7822C81.8432 53.1488 81.8737 53.0379 81.8737 52.8143V50.4513C81.8737 50.2201 81.8017 50.0474 81.6561 49.9323C81.5799 49.8789 81.4376 49.818 81.2311 49.7486C81.0854 49.702 81.0143 49.6478 81.0143 49.5868C81.0143 49.5022 81.0787 49.4598 81.209 49.4598C81.3479 49.4598 81.5663 49.47 81.8644 49.4861C82.1641 49.503 82.3444 49.5106 82.4062 49.5106C82.5671 49.5106 82.7305 49.5022 82.8956 49.4861C83.0599 49.4692 83.1733 49.4598 83.2351 49.4598C83.4502 49.4598 83.5577 49.5225 83.5577 49.6453C83.5577 49.6918 83.4925 49.7333 83.3621 49.7723C83.1852 49.8188 83.0582 49.8713 82.982 49.9323C82.8516 50.0483 82.7864 50.2218 82.7864 50.4513V56.5617C82.7864 56.8081 82.8778 56.9918 83.0624 57.1154C83.1471 57.1688 83.313 57.2314 83.5586 57.2991C83.7431 57.3533 83.8346 57.4151 83.8346 57.4846C83.8346 57.5768 83.7922 57.6217 83.7084 57.6217C83.617 57.6217 83.4493 57.6133 83.208 57.5972C82.9659 57.5794 82.7711 57.5709 82.6255 57.5709C82.3334 57.5709 82.0549 57.5794 81.7916 57.5972C81.5265 57.6141 81.3784 57.6217 81.3487 57.6217C81.1633 57.6217 81.0727 57.5718 81.0727 57.4727C81.0727 57.4033 81.1405 57.3423 81.2793 57.2873C81.4757 57.2179 81.607 57.1603 81.6679 57.1154C81.8051 56.9994 81.8737 56.8377 81.8737 56.6311V53.8617C81.8737 53.6847 81.8737 53.6119 81.8737 53.6432C81.8652 53.5967 81.8313 53.5738 81.7704 53.5738H77.5379C77.4465 53.5738 77.4007 53.6381 77.4007 53.7685V56.643C77.4007 56.8665 77.4964 57.0299 77.6878 57.1391C77.7487 57.1772 77.9214 57.2348 78.2042 57.311C78.3956 57.3652 78.4912 57.438 78.4912 57.5311C78.4912 57.5921 78.4303 57.6217 78.3067 57.6217C78.299 57.6217 78.0916 57.6133 77.6852 57.5972C77.278 57.5794 76.952 57.5709 76.7056 57.5709C76.3695 57.5709 76.1079 57.5794 75.9224 57.5972C75.7387 57.6141 75.6693 57.6217 75.7159 57.6217C75.6312 57.6217 75.5897 57.5658 75.5897 57.4498C75.5897 57.3736 75.6659 57.311 75.82 57.2661C76.0266 57.2119 76.1722 57.145 76.2577 57.0697C76.411 56.9249 76.488 56.687 76.488 56.3559Z" fill="#AAA097"/>
<path d="M94.0352 50.8441L94.1902 56.5625C94.1986 56.8402 94.2833 57.0358 94.4459 57.151C94.5077 57.1975 94.6508 57.2466 94.8751 57.3C95.0309 57.3398 95.1071 57.4092 95.1071 57.5083C95.1071 57.5845 95.0148 57.6226 94.8303 57.6226C94.7769 57.6226 94.6262 57.6141 94.3815 57.598C94.136 57.5802 93.9243 57.5718 93.7482 57.5718C93.6246 57.5718 93.4485 57.5802 93.2182 57.598C92.9879 57.6149 92.8262 57.6226 92.7348 57.6226C92.6501 57.6226 92.6086 57.5878 92.6086 57.5201C92.6086 57.4354 92.6687 57.366 92.7923 57.3118C92.9777 57.2356 93.0963 57.1696 93.1496 57.1171C93.2732 57.0011 93.33 56.8208 93.3223 56.5744L93.2013 52.1014C93.1936 51.8017 93.1505 51.6535 93.0743 51.6535C92.9896 51.6535 92.8905 51.7678 92.7754 51.9973L90.3929 56.8589C90.2007 57.2424 90.0821 57.4346 90.0356 57.4346C89.989 57.4346 89.912 57.3237 89.8053 57.1002L87.3533 51.9643C87.3144 51.8796 87.2687 51.8373 87.2153 51.8373C87.1696 51.8373 87.1425 51.8948 87.134 52.0091L87.0003 56.0554C86.9842 56.5016 87.0655 56.8241 87.2416 57.0248C87.3415 57.1323 87.5142 57.217 87.7597 57.278C87.9443 57.3321 88.0366 57.405 88.0366 57.4981C88.0366 57.5828 87.9401 57.6234 87.7479 57.6234C87.7174 57.6234 87.5735 57.6149 87.3161 57.5988C87.0578 57.5811 86.8648 57.5726 86.7344 57.5726C86.5041 57.5726 86.2882 57.5811 86.0884 57.5988C85.8894 57.6158 85.7701 57.6234 85.7311 57.6234C85.6549 57.6234 85.616 57.5785 85.616 57.4862C85.616 57.394 85.6812 57.3288 85.8107 57.2898C85.9877 57.2365 86.1104 57.1755 86.1798 57.1061C86.3255 56.9605 86.4093 56.7141 86.4338 56.3686C86.494 55.5685 86.5558 54.7659 86.6176 53.9573C86.6785 53.1818 86.709 52.5434 86.709 52.0439C86.709 51.2514 86.6133 50.668 86.4211 50.2913C86.306 50.0533 86.1333 49.8891 85.9038 49.7968C85.7116 49.7274 85.616 49.6579 85.616 49.5885C85.616 49.5039 85.6812 49.4615 85.8115 49.4615C85.881 49.4615 85.9843 49.4717 86.1223 49.4878C86.2611 49.5047 86.3687 49.5123 86.4457 49.5123C86.5151 49.5123 86.6184 49.5039 86.7573 49.4878C86.8953 49.4708 86.9994 49.4615 87.068 49.4615C87.1366 49.4615 87.1874 49.4979 87.217 49.5724C87.2483 49.6452 87.2797 49.7164 87.3093 49.7841L90.05 55.638C90.1575 55.8691 90.2422 55.9834 90.304 55.9834C90.3344 55.9834 90.453 55.7768 90.6604 55.362L93.4011 49.8535C93.5315 49.5919 93.6314 49.4615 93.7008 49.4615C93.7397 49.4615 93.8346 49.4717 93.9887 49.4878C94.1419 49.5047 94.2266 49.5123 94.2427 49.5123C94.3341 49.5123 94.4366 49.5039 94.5475 49.4878C94.6584 49.4717 94.7414 49.4615 94.7947 49.4615C94.8717 49.4615 94.9098 49.5081 94.9098 49.6004C94.9098 49.685 94.8336 49.7477 94.6804 49.7858C94.4721 49.8324 94.3265 49.9001 94.2418 49.9924C94.097 50.16 94.0285 50.4445 94.0352 50.8441Z" fill="#AAA097"/>
<path d="M97.8029 56.3559V50.4521C97.8029 50.2074 97.7216 50.0254 97.5591 49.9094C97.4736 49.8485 97.3246 49.79 97.1078 49.7375C96.9461 49.6978 96.8648 49.6486 96.8648 49.5868C96.8648 49.5022 96.9038 49.4598 96.98 49.4598C97.1264 49.4598 97.3389 49.47 97.6192 49.4861C97.9003 49.503 98.1086 49.5106 98.2466 49.5106C98.3702 49.5106 98.5505 49.5022 98.7884 49.4861C99.0264 49.4692 99.2033 49.4598 99.3185 49.4598C99.4641 49.4598 99.5377 49.4996 99.5377 49.5758C99.5377 49.6453 99.4649 49.6986 99.3201 49.7375C99.1305 49.7909 99.0018 49.8451 98.9332 49.8976C98.7884 50.0136 98.7165 50.1981 98.7165 50.4513V56.643C98.7165 56.8665 98.8045 57.0316 98.9789 57.1391C99.0475 57.1772 99.2109 57.2314 99.4709 57.2991C99.6461 57.3533 99.7342 57.4228 99.7342 57.5074C99.7342 57.5836 99.6571 57.6217 99.5039 57.6217C99.4344 57.6217 99.2541 57.6133 98.962 57.5972C98.6699 57.5794 98.4328 57.5709 98.2474 57.5709C97.9714 57.5709 97.7199 57.5794 97.493 57.5972C97.2661 57.6141 97.1493 57.6217 97.1417 57.6217C96.9808 57.6217 96.9004 57.5658 96.9004 57.4498C96.9004 57.3736 96.9774 57.311 97.1307 57.2661C97.3398 57.2119 97.4871 57.145 97.5718 57.0697C97.7259 56.9249 97.8029 56.687 97.8029 56.3559Z" fill="#AAA097"/>
<path d="M103.373 49.9052C103.511 49.7976 103.838 49.7434 104.353 49.7434C105.482 49.7434 106.404 50.0974 107.12 50.8052C107.873 51.5375 108.25 52.5264 108.25 53.7719C108.25 55.0106 107.922 55.9351 107.271 56.5413C106.717 57.057 105.978 57.3152 105.057 57.3152C104.219 57.3152 103.627 57.1416 103.281 56.7962C103.234 56.7496 103.212 56.4685 103.212 55.9529V50.4707C103.211 50.171 103.265 49.9831 103.373 49.9052ZM102.093 57.1399C102.008 57.2322 101.875 57.305 101.692 57.3584C101.555 57.3965 101.487 57.4473 101.487 57.5091C101.487 57.5853 101.525 57.6234 101.602 57.6234C101.624 57.6234 101.836 57.6149 102.235 57.5988C102.635 57.5811 102.852 57.5726 102.891 57.5726C103.091 57.5726 103.386 57.5811 103.779 57.5988C104.169 57.6158 104.461 57.6234 104.652 57.6234C106.181 57.6234 107.319 57.2102 108.072 56.3796C108.756 55.6193 109.097 54.5373 109.097 53.1386C109.097 52.1014 108.679 51.2217 107.843 50.4995C107.036 49.8086 106.108 49.4607 105.057 49.4607C104.711 49.4607 104.267 49.4708 103.726 49.4869C103.185 49.503 102.795 49.5115 102.558 49.5115C102.443 49.5115 102.272 49.503 102.045 49.4869C101.819 49.47 101.644 49.4607 101.521 49.4607C101.415 49.4607 101.361 49.5005 101.361 49.5767C101.361 49.6461 101.441 49.6994 101.601 49.7384C101.815 49.7917 101.968 49.8637 102.059 49.9568C102.218 50.1041 102.3 50.3488 102.3 50.6943V56.4355C102.299 56.7598 102.229 56.9926 102.093 57.1399Z" fill="#AAA097"/>
<path d="M113.086 56.4482V49.4548C113.086 49.0433 113.041 48.8367 112.952 48.8367H110.639C110.253 48.8367 109.992 48.8993 109.858 49.0255C109.776 49.1161 109.669 49.3675 109.534 49.7833C109.473 49.9898 109.396 50.094 109.308 50.094C109.219 50.094 109.174 50.0398 109.174 49.9323L109.323 48.6276L109.363 48.305C109.398 48.1695 109.466 48.1018 109.564 48.1018C109.859 48.1018 110.41 48.1119 111.216 48.1331C112.021 48.1526 112.742 48.1627 113.379 48.1627C114.372 48.1627 115.299 48.1526 116.158 48.1331C117.018 48.1119 117.403 48.1018 117.313 48.1018C117.466 48.1018 117.566 48.1297 117.615 48.1831C117.664 48.2372 117.693 48.3405 117.702 48.4921L117.77 49.5682C117.778 49.7663 117.73 49.8645 117.622 49.8645C117.497 49.8645 117.425 49.7756 117.408 49.5953C117.381 49.3506 117.336 49.1889 117.274 49.1076C117.14 48.9273 116.876 48.8384 116.482 48.8384H114.447C114.151 48.8384 113.989 48.8578 113.957 48.8976C113.927 48.9374 113.91 49.1373 113.91 49.4962V56.3576C113.91 56.6802 114.004 56.9131 114.19 57.0553C114.279 57.1179 114.572 57.1806 114.83 57.2441C115.017 57.289 115.11 57.3618 115.11 57.4592C115.11 57.5667 115.07 57.6209 114.989 57.6209C114.89 57.6209 114.718 57.6107 114.472 57.5912C114.226 57.5718 114.035 57.5616 113.901 57.5616C113.454 57.5616 113.077 57.5667 112.773 57.5768C112.558 57.587 112.322 57.6014 112.062 57.6217C111.954 57.6217 111.901 57.5641 111.901 57.4465C111.901 57.3669 111.991 57.289 112.17 57.2179C112.44 57.129 112.736 57.0578 112.816 57.0028C112.996 56.8673 113.086 56.6836 113.086 56.4482Z" fill="#AAA097"/>
<path d="M19.3218 64.1851V68.3211C19.3218 69.2041 19.5868 69.8798 20.1151 70.348C20.5969 70.7865 21.2488 71.005 22.0684 71.005C23.8371 71.005 24.7219 70.0753 24.7219 68.2169V64.4848C24.7219 64.1478 24.6304 63.9082 24.4475 63.7702C24.3629 63.7016 24.191 63.6407 23.9319 63.5865C23.749 63.5399 23.6576 63.4629 23.6576 63.3562C23.6576 63.2791 23.6966 63.241 23.7728 63.241C23.9268 63.241 24.1529 63.2495 24.4526 63.2656C24.7523 63.2834 24.975 63.2918 25.1206 63.2918C25.1977 63.2918 25.3052 63.2834 25.4432 63.2656C25.5812 63.2487 25.6854 63.241 25.7548 63.241C25.8539 63.241 25.9038 63.2834 25.9038 63.3672C25.9038 63.4442 25.8471 63.5086 25.7311 63.5628C25.5702 63.6398 25.4593 63.7203 25.3967 63.8049C25.2815 63.959 25.2239 64.1885 25.2239 64.4958V68.0687C25.2239 70.3429 24.1538 71.4791 22.0134 71.4791C20.6325 71.4791 19.6546 71.1218 19.0788 70.4072C18.6343 69.8611 18.4108 69.0627 18.4108 68.0103V64.1267C18.4108 63.9345 18.3295 63.7956 18.1687 63.7118C18.1373 63.6889 17.9866 63.639 17.7165 63.5619C17.5548 63.5238 17.4735 63.4544 17.4735 63.3545C17.4735 63.2775 17.5582 63.2393 17.7267 63.2393C17.8266 63.2393 17.9739 63.2478 18.1703 63.2639C18.3651 63.2817 18.5175 63.2901 18.625 63.2901C18.7478 63.2901 18.9315 63.2817 19.1779 63.2639C19.4226 63.247 19.6038 63.2393 19.7189 63.2393C19.9644 63.2393 20.0881 63.2775 20.0881 63.3545C20.0881 63.4315 20.0237 63.4891 19.8942 63.5272C19.7037 63.5806 19.5784 63.6305 19.5174 63.6771C19.3862 63.7787 19.3218 63.9472 19.3218 64.1851Z" fill="#AAA097"/>
<path d="M28.5302 69.7663V65.5127C28.5302 64.8133 28.4108 64.3019 28.1737 63.9785C28.0205 63.7863 27.7961 63.6517 27.4972 63.5746C27.2602 63.5128 27.1416 63.44 27.1416 63.3554C27.1416 63.2783 27.1984 63.2402 27.3144 63.2402C27.3753 63.2402 27.4659 63.2487 27.5844 63.2648C27.7038 63.2825 27.7936 63.291 27.8545 63.291C27.9155 63.291 28.0069 63.2825 28.1246 63.2648C28.244 63.2478 28.3304 63.2402 28.3845 63.2402C28.4235 63.2402 28.5226 63.3283 28.6843 63.5052L34.1783 69.6241C34.2562 69.7088 34.3019 69.7502 34.3171 69.7502C34.34 69.7502 34.3519 69.7079 34.3519 69.6241V64.8082C34.3519 64.3697 34.2401 64.0479 34.0166 63.8396C33.8938 63.7245 33.6898 63.6322 33.4053 63.5636C33.1826 63.5094 33.0709 63.44 33.0709 63.3562C33.0709 63.2792 33.1132 63.2411 33.197 63.2411C33.313 63.2411 33.4857 63.2495 33.7152 63.2656C33.9455 63.2834 34.1216 63.2918 34.2452 63.2918C34.3832 63.2918 34.5906 63.2834 34.8666 63.2656C35.1426 63.2487 35.3238 63.2411 35.4085 63.2411C35.4855 63.2411 35.5237 63.2758 35.5237 63.3443C35.5237 63.4214 35.4669 63.4823 35.3526 63.5289C35.1934 63.606 35.0842 63.6712 35.0224 63.7245C34.9081 63.8481 34.8522 64.031 34.8522 64.2765V70.9457C34.8522 71.2768 34.8167 71.441 34.7481 71.441C34.6482 71.441 34.5017 71.3344 34.3095 71.1185L29.3514 65.5465C29.2211 65.4001 29.1398 65.3272 29.1101 65.3272C29.0559 65.3272 29.0289 65.4153 29.0289 65.5922V70.3065C29.0289 70.6062 29.1169 70.8179 29.2939 70.9407C29.3861 71.0101 29.547 71.0643 29.7765 71.1015C29.9534 71.1244 30.0415 71.1752 30.0415 71.2514C30.0415 71.3513 29.9991 71.4021 29.9153 71.4021C29.8459 71.4021 29.6884 71.3928 29.442 71.3767C29.1965 71.3589 28.9654 71.3504 28.752 71.3504C28.5903 71.3504 28.2296 71.3682 27.6691 71.4029C27.5692 71.4029 27.5192 71.3606 27.5192 71.2768C27.5192 71.1845 27.6073 71.1151 27.7834 71.0685C28.0052 70.9999 28.1644 70.9042 28.2643 70.7806C28.4421 70.5732 28.5302 70.2354 28.5302 69.7663Z" fill="#AAA097"/>
<path d="M38.3278 70.1346V64.2317C38.3278 63.9861 38.2465 63.8049 38.0848 63.6889C37.9993 63.628 37.8495 63.5696 37.6336 63.5162C37.4718 63.4781 37.3897 63.4282 37.3897 63.3664C37.3897 63.2817 37.4287 63.2402 37.5049 63.2402C37.6513 63.2402 37.8647 63.2487 38.1449 63.2648C38.4252 63.2825 38.6343 63.291 38.7723 63.291C38.8951 63.291 39.0754 63.2825 39.3142 63.2648C39.5513 63.2478 39.7282 63.2402 39.8442 63.2402C39.9898 63.2402 40.0626 63.2783 40.0626 63.3554C40.0626 63.4248 39.9907 63.479 39.8459 63.5162C39.6562 63.5696 39.5267 63.6237 39.459 63.6771C39.3142 63.7931 39.2414 63.9768 39.2414 64.2308V70.4225C39.2414 70.6452 39.3294 70.8103 39.5047 70.9178C39.5724 70.9567 39.7367 71.0101 39.9958 71.0795C40.171 71.1328 40.2591 71.2023 40.2591 71.2861C40.2591 71.3631 40.182 71.4021 40.0288 71.4021C39.9602 71.4021 39.779 71.3928 39.4869 71.3767C39.1957 71.3589 38.9577 71.3504 38.7732 71.3504C38.4972 71.3504 38.2448 71.3598 38.0179 71.3767C37.791 71.3936 37.675 71.4021 37.6674 71.4021C37.5057 71.4021 37.4253 71.3445 37.4253 71.2285C37.4253 71.1523 37.5023 71.0905 37.6573 71.0448C37.8655 70.9915 38.012 70.9246 38.0975 70.8492C38.2508 70.7036 38.3278 70.4657 38.3278 70.1346Z" fill="#AAA097"/>
<path d="M45.4576 70.8568L42.6145 64.1284C42.507 63.8667 42.3224 63.6898 42.0625 63.5975C41.8398 63.5213 41.7281 63.4561 41.7281 63.4028C41.7281 63.2952 41.7822 63.2419 41.8898 63.2419C42.0125 63.2419 42.1903 63.2504 42.424 63.2664C42.6585 63.2842 42.8338 63.2927 42.949 63.2927C43.0641 63.2927 43.2351 63.2842 43.4612 63.2664C43.6881 63.2495 43.8193 63.2419 43.8574 63.2419C43.9658 63.2419 44.0191 63.28 44.0191 63.357C44.0191 63.3875 43.9404 63.4527 43.7829 63.5526C43.6254 63.6525 43.5475 63.7829 43.5475 63.9446C43.5475 64.0826 43.5814 64.2325 43.6508 64.3934L45.6668 69.1406C45.7582 69.3633 45.8505 69.5851 45.9428 69.8087C46.0122 69.9467 46.0723 70.0161 46.1273 70.0161C46.1807 70.0161 46.2501 69.9086 46.3339 69.6927L48.338 64.7498C48.4769 64.4044 48.531 64.1428 48.4997 63.9658C48.4997 63.7668 48.3761 63.6373 48.1306 63.5806C47.885 63.523 47.7614 63.4586 47.7614 63.3901C47.7614 63.2902 47.819 63.2402 47.9341 63.2402C48.0188 63.2402 48.1441 63.2487 48.3134 63.2648C48.4811 63.2825 48.6081 63.291 48.6919 63.291C48.907 63.291 49.1017 63.2825 49.2778 63.2648C49.4539 63.2478 49.5538 63.2402 49.5775 63.2402C49.7071 63.2402 49.7723 63.2902 49.7723 63.3901C49.7723 63.4434 49.7071 63.5018 49.5767 63.5628C49.4006 63.6474 49.2499 63.8354 49.1288 64.1275L46.262 70.9153C46.2086 71.0609 46.1485 71.209 46.0825 71.3581C46.0173 71.5079 45.9512 71.5824 45.8818 71.5824C45.8048 71.5824 45.7243 71.491 45.6405 71.3064C45.5804 71.1608 45.5194 71.0118 45.4576 70.8568Z" fill="#AAA097"/>
<path d="M53.1589 64.4552V66.6006C53.1589 66.8013 53.1758 66.9164 53.2106 66.9469C53.2453 66.9782 53.3731 66.9935 53.5966 66.9935H54.8404C55.1943 66.9935 55.4517 66.9122 55.6126 66.7496C55.7116 66.6573 55.7895 66.51 55.8429 66.3085C55.8886 66.146 55.9428 66.0638 56.0029 66.0638C56.0875 66.0638 56.1299 66.1375 56.1299 66.284C56.1299 66.422 56.1256 66.6192 56.118 66.8766C56.1104 67.134 56.1062 67.3237 56.1062 67.4464C56.1062 67.5463 56.1104 67.6962 56.118 67.896C56.1256 68.095 56.1299 68.2491 56.1299 68.3566C56.1299 68.4565 56.0867 68.5065 56.0029 68.5065C55.9191 68.5065 55.8581 68.4184 55.8191 68.2415C55.7658 67.9959 55.7108 67.8359 55.6583 67.7589C55.5423 67.5827 55.3476 67.4947 55.0707 67.4947H53.3655C53.258 67.4947 53.1919 67.5328 53.1699 67.6098C53.1623 67.6403 53.1589 67.725 53.1589 67.8638V69.9831C53.1589 70.3903 53.1852 70.6358 53.2393 70.7205C53.3316 70.867 53.5958 70.9398 54.0335 70.9398C54.8167 70.9398 55.4771 70.8356 56.0147 70.6282C56.3839 70.4894 56.687 70.3006 56.9249 70.0618C57.14 69.8544 57.2432 69.7502 57.2356 69.7502C57.2974 69.7502 57.3271 69.7968 57.3271 69.8891C57.3271 70.2125 57.1349 70.5859 56.7513 71.0101C56.5828 71.1955 56.4101 71.3098 56.2332 71.3563C56.1341 71.3868 55.9301 71.4029 55.6227 71.4029C55.3848 71.4029 54.9462 71.3894 54.3095 71.364C53.7575 71.3479 53.3189 71.3437 52.9964 71.3504C52.9049 71.3504 52.6695 71.3597 52.2936 71.3767C52.0015 71.3936 51.7678 71.4021 51.5917 71.4021C51.4757 71.4021 51.419 71.3631 51.419 71.2861C51.4266 71.2251 51.4952 71.1633 51.6256 71.1015C51.7238 71.0634 51.8237 71.0245 51.9236 70.9864C52.0608 70.9169 52.1531 70.7975 52.1996 70.6282C52.2293 70.5054 52.2454 70.2904 52.2454 69.9822V64.7244C52.2454 64.3705 52.2183 64.125 52.1649 63.9869C52.0803 63.7406 51.8999 63.5983 51.6248 63.5594C51.3953 63.4984 51.281 63.4366 51.281 63.3757C51.281 63.2842 51.4148 63.2385 51.684 63.2385C52.551 63.2385 53.3062 63.247 53.9472 63.263C54.5881 63.2808 54.92 63.2893 54.9437 63.2893C55.0123 63.2893 55.2722 63.2808 55.7209 63.263C56.1705 63.2461 56.4601 63.2385 56.5905 63.2385C56.6675 63.2385 56.7056 63.3232 56.7056 63.4916C56.7056 64.4077 56.6286 64.8649 56.4762 64.8649C56.3763 64.8649 56.3178 64.7617 56.3034 64.5542C56.2874 64.2934 56.2535 64.1258 56.1993 64.0479C56.0765 63.8794 55.7692 63.7761 55.2781 63.738C55.1782 63.7304 54.8319 63.7262 54.241 63.7262C53.6796 63.7262 53.3596 63.7516 53.2783 63.8015C53.1987 63.8532 53.1589 64.0716 53.1589 64.4552Z" fill="#AAA097"/>
<path d="M61.016 63.6729C61.0846 63.6424 61.2463 63.6263 61.4994 63.6263C62.1285 63.6263 62.6348 63.7643 63.0184 64.042C63.4705 64.3654 63.6974 64.854 63.6974 65.5084C63.6974 66.1316 63.4942 66.582 63.0878 66.8589C62.8118 67.0519 62.4807 67.1484 62.098 67.1484C61.5299 67.1484 61.2539 67.1484 61.2691 67.1484C60.9847 67.1323 60.8433 67.079 60.8433 66.9867V64.053C60.8441 63.8532 60.9017 63.7262 61.016 63.6729ZM64.1461 66.4338C64.4213 66.0723 64.5593 65.6735 64.5593 65.235C64.5593 64.3053 64.1292 63.694 63.2707 63.4019C62.9396 63.2944 62.4604 63.2411 61.8313 63.2411C61.6391 63.2411 61.3284 63.2495 60.8983 63.2656C60.4674 63.2834 60.138 63.2919 59.9069 63.2919C59.6757 63.2919 59.5047 63.2834 59.3946 63.2656C59.2829 63.2487 59.2075 63.2411 59.1686 63.2411C59.0153 63.2411 58.9391 63.2868 58.9391 63.3791C58.9391 63.4714 59.0238 63.5365 59.1923 63.5746C59.4302 63.6212 59.5927 63.6746 59.6757 63.7355C59.8451 63.8591 59.9306 64.081 59.9306 64.4044V70.2735C59.9306 70.5275 59.8578 70.7231 59.7121 70.8611C59.6427 70.9305 59.5072 71.0033 59.3074 71.0812C59.1618 71.1422 59.0881 71.2074 59.0881 71.2768C59.0881 71.3615 59.1271 71.4029 59.2033 71.4029C59.3498 71.4029 59.569 71.3936 59.8611 71.3775C60.1541 71.3598 60.3725 71.3513 60.519 71.3513C60.9102 71.3513 61.2395 71.3606 61.5037 71.3775C61.7687 71.3945 61.8821 71.4029 61.8432 71.4029C61.9736 71.4029 62.0388 71.3716 62.0388 71.3107C62.0388 71.2116 61.9346 71.1388 61.7289 71.0922C61.4368 71.0228 61.2463 70.9618 61.1532 70.9076C60.9457 70.7773 60.8433 70.5698 60.8433 70.2853V67.8562C60.8433 67.7411 60.8467 67.6717 60.8551 67.6497C60.8856 67.5718 60.9813 67.5337 61.143 67.5337C61.7721 67.5337 62.1327 67.5523 62.2242 67.5912C62.3165 67.6293 62.4663 67.8139 62.6729 68.1433L63.9514 70.1592C64.2054 70.558 64.4391 70.8492 64.6541 71.0338C64.9538 71.2802 65.2951 71.4029 65.6794 71.4029C66.1781 71.4029 66.4262 71.3564 66.4262 71.2641C66.4262 71.2031 66.3686 71.1608 66.2543 71.1379C66.0621 71.0914 65.9013 71.0262 65.7717 70.9424C65.5169 70.7815 65.2722 70.5156 65.0343 70.1473L63.1107 67.2306C63.5238 67.0604 63.8693 66.7954 64.1461 66.4338Z" fill="#AAA097"/>
<path d="M67.5963 70.8458L67.3085 69.3591C67.2619 69.1212 67.3042 69.0018 67.4355 69.0018C67.5049 69.0018 67.5548 69.0365 67.5853 69.1051L67.6556 69.3811C67.7546 69.7646 67.9773 70.1177 68.3219 70.4394C68.7901 70.8839 69.3726 71.1066 70.0694 71.1066C70.6596 71.1066 71.1574 70.9533 71.5647 70.646C72.0083 70.3158 72.2318 69.8628 72.2318 69.2879C72.2318 68.6809 71.8288 68.2322 71.0245 67.9401C70.2735 67.6861 69.5225 67.4329 68.7715 67.1797C67.9672 66.7801 67.565 66.1553 67.565 65.3027C67.565 64.6126 67.8258 64.0665 68.3482 63.6669C68.8155 63.3139 69.4065 63.1369 70.1202 63.1369C70.5258 63.1369 70.8873 63.1716 71.2023 63.241C71.4089 63.2876 71.6053 63.357 71.7882 63.4485C71.9423 63.5188 72.0303 63.5535 72.0532 63.5535C72.0837 63.5535 72.1218 63.5331 72.1683 63.49C72.214 63.4476 72.2564 63.4265 72.2945 63.4265C72.3707 63.4265 72.4173 63.4806 72.4325 63.5882L72.6052 65.1545C72.6204 65.2697 72.5781 65.3272 72.4791 65.3272C72.3944 65.3272 72.3148 65.2121 72.2386 64.9818C72.0693 64.4983 71.7916 64.1275 71.4046 63.8701C71.0177 63.6127 70.563 63.484 70.0432 63.484C69.5369 63.484 69.1119 63.5992 68.7664 63.8295C68.3685 64.1055 68.1695 64.4899 68.1695 64.9809C68.1695 65.5643 68.5717 66.0029 69.376 66.295C70.127 66.5566 70.8772 66.8131 71.629 67.0671C72.4333 67.4972 72.8355 68.161 72.8355 69.0602C72.8355 69.6749 72.6128 70.1973 72.1683 70.6274C71.5917 71.1963 70.7171 71.48 69.542 71.48C69.1423 71.48 68.7165 71.3987 68.2643 71.2378C67.8419 71.0922 67.6192 70.9618 67.5963 70.8458Z" fill="#AAA097"/>
<path d="M75.82 70.1346V64.2317C75.82 63.9861 75.7387 63.8049 75.577 63.6889C75.4915 63.628 75.3416 63.5696 75.1257 63.5162C74.9632 63.4781 74.8819 63.4282 74.8819 63.3664C74.8819 63.2817 74.9208 63.2402 74.997 63.2402C75.1435 63.2402 75.356 63.2487 75.6371 63.2648C75.9174 63.2825 76.1265 63.291 76.2637 63.291C76.3873 63.291 76.5676 63.2825 76.8055 63.2648C77.0434 63.2478 77.2204 63.2402 77.3355 63.2402C77.4812 63.2402 77.5548 63.2783 77.5548 63.3554C77.5548 63.4248 77.482 63.479 77.3381 63.5162C77.1476 63.5696 77.0189 63.6237 76.9503 63.6771C76.8055 63.7931 76.7336 63.9768 76.7336 64.2308V70.4225C76.7336 70.6452 76.8216 70.8103 76.996 70.9178C77.0646 70.9567 77.2289 71.0101 77.4879 71.0795C77.6632 71.1328 77.7513 71.2023 77.7513 71.2861C77.7513 71.3631 77.6742 71.4021 77.521 71.4021C77.4515 71.4021 77.2712 71.3928 76.9791 71.3767C76.6878 71.3589 76.4499 71.3504 76.2645 71.3504C75.9885 71.3504 75.737 71.3598 75.5101 71.3767C75.2832 71.3936 75.1664 71.4021 75.1588 71.4021C74.9979 71.4021 74.9175 71.3445 74.9175 71.2285C74.9175 71.1523 74.9945 71.0905 75.1486 71.0448C75.3569 70.9915 75.5042 70.9246 75.5889 70.8492C75.743 70.7036 75.82 70.4657 75.82 70.1346Z" fill="#AAA097"/>
<path d="M82.3817 70.3996V64.401C82.3817 64.0471 82.3427 63.8701 82.2657 63.8701H80.3836C80.0525 63.8701 79.8307 63.9243 79.7155 64.0327C79.6453 64.1097 79.5538 64.3265 79.4387 64.6812C79.3845 64.859 79.3201 64.9479 79.2439 64.9479C79.1677 64.9479 79.1296 64.9014 79.1296 64.8091L79.2558 63.6906L79.2905 63.4138C79.321 63.2978 79.3786 63.2411 79.4641 63.2411C79.7172 63.2411 80.188 63.2495 80.8797 63.2656C81.5706 63.2834 82.1878 63.2919 82.7331 63.2919C83.5857 63.2919 84.3798 63.2834 85.1173 63.2656C85.8539 63.2487 86.1849 63.2411 86.1079 63.2411C86.2383 63.2411 86.3255 63.2631 86.367 63.3096C86.4101 63.3562 86.4347 63.4443 86.4415 63.5746L86.499 64.4984C86.5075 64.6677 86.4652 64.7524 86.3737 64.7524C86.2662 64.7524 86.2052 64.6753 86.19 64.5204C86.1663 64.3112 86.1282 64.1724 86.074 64.103C85.9589 63.948 85.7337 63.871 85.3958 63.871H83.7524C83.4993 63.871 83.3596 63.8888 83.3334 63.9235C83.3063 63.9582 83.2927 64.1292 83.2927 64.4366V70.3192C83.2927 70.5961 83.3731 70.7959 83.5332 70.9195C83.6094 70.9728 83.7575 71.027 83.9794 71.0804C84.1385 71.1193 84.2181 71.1803 84.2181 71.2649C84.2181 71.3572 84.1834 71.4038 84.114 71.4038C84.0293 71.4038 83.8828 71.3945 83.6712 71.3784C83.4595 71.3606 83.2969 71.3521 83.1818 71.3521C82.7983 71.3521 82.4757 71.3572 82.2149 71.3657C82.0295 71.3742 81.8263 71.3869 81.6045 71.4046C81.5122 71.4046 81.4656 71.3538 81.4656 71.2539C81.4656 71.1853 81.5435 71.1202 81.6967 71.0583C81.9279 70.9813 82.0786 70.9203 82.148 70.8738C82.3055 70.7578 82.3817 70.5995 82.3817 70.3996Z" fill="#AAA097"/>
<path d="M98.2152 70.3996V64.401C98.2152 64.0471 98.1763 63.8701 98.0992 63.8701H96.2171C95.8861 63.8701 95.6625 63.9243 95.5474 64.0327C95.478 64.1097 95.3857 64.3265 95.2705 64.6812C95.2172 64.859 95.1528 64.9479 95.0766 64.9479C95.0004 64.9479 94.9623 64.9014 94.9623 64.8091L95.0885 63.6906L95.1224 63.4138C95.1537 63.2978 95.2104 63.2411 95.2951 63.2411C95.5491 63.2411 96.0207 63.2495 96.7132 63.2656C97.4033 63.2834 98.0222 63.2919 98.5666 63.2919C99.4192 63.2919 100.213 63.2834 100.95 63.2656C101.687 63.2487 102.018 63.2411 101.941 63.2411C102.072 63.2411 102.158 63.2631 102.201 63.3096C102.243 63.3562 102.267 63.4443 102.276 63.5746L102.333 64.4984C102.34 64.6677 102.299 64.7524 102.207 64.7524C102.1 64.7524 102.039 64.6753 102.023 64.5204C102 64.3112 101.962 64.1724 101.908 64.103C101.792 63.948 101.566 63.871 101.229 63.871H99.586C99.3328 63.871 99.1931 63.8888 99.1669 63.9235C99.1398 63.9582 99.1271 64.1292 99.1271 64.4366V70.3192C99.1271 70.5961 99.2067 70.7959 99.3659 70.9195C99.4421 70.9728 99.5911 71.027 99.8112 71.0804C99.9712 71.1193 100.052 71.1803 100.052 71.2649C100.052 71.3572 100.017 71.4038 99.9484 71.4038C99.8637 71.4038 99.7155 71.3945 99.5047 71.3784C99.2939 71.3606 99.1313 71.3521 99.0153 71.3521C98.6318 71.3521 98.3092 71.3572 98.0476 71.3657C97.863 71.3742 97.6598 71.3869 97.4372 71.4046C97.3449 71.4046 97.2991 71.3538 97.2991 71.2539C97.2991 71.1853 97.3762 71.1202 97.5303 71.0583C97.7606 70.9813 97.9113 70.9203 97.9816 70.8738C98.1373 70.7578 98.2152 70.5995 98.2152 70.3996Z" fill="#AAA097"/>
<path d="M94.7151 71.1041C94.4154 71.0507 94.2037 70.9271 94.0809 70.7349C93.9734 70.5656 93.8667 70.3505 93.7592 70.0889C93.6737 69.8662 93.5899 69.6436 93.5052 69.4209L91.1074 63.4857C90.9923 63.2021 90.9127 63.0599 90.8653 63.0599C90.7967 63.0599 90.7197 63.1513 90.6358 63.3367C90.4199 63.7897 90.2091 64.2427 90.0017 64.6956L87.2475 70.5715C87.1315 70.8179 86.9545 70.9864 86.7175 71.0795C86.51 71.1566 86.4067 71.2218 86.4067 71.2751C86.4067 71.3598 86.4415 71.4012 86.51 71.4012C86.6091 71.4012 86.7615 71.3919 86.9647 71.3759C87.1679 71.3581 87.3245 71.3496 87.4321 71.3496C87.5396 71.3496 87.6996 71.3589 87.9147 71.3759C88.1297 71.3928 88.2906 71.4012 88.3989 71.4012C88.5217 71.4012 88.5911 71.397 88.6055 71.3894C88.675 71.3733 88.7097 71.32 88.7097 71.2277C88.7097 71.1506 88.6402 71.1015 88.5022 71.0778C88.3033 71.0389 88.1678 70.9965 88.0984 70.9508C87.9604 70.8585 87.8909 70.696 87.8909 70.4657C87.8909 70.3116 87.918 70.1761 87.9731 70.0601L88.7097 68.443C88.7867 68.2813 88.9671 68.2 89.2515 68.2H91.7848C92.0074 68.2 92.1759 68.3473 92.2928 68.6403L92.6611 69.5877C92.899 70.1964 93.0184 70.5614 93.0184 70.6858C93.0184 70.8467 92.9024 70.9686 92.6729 71.0499C92.4426 71.1303 92.3275 71.2091 92.3275 71.2861C92.3275 71.3631 92.4122 71.4021 92.5815 71.4021C92.689 71.4021 92.8465 71.3928 93.0548 71.3767C93.2622 71.3589 93.4172 71.3505 93.5162 71.3505C93.6779 71.3505 93.9167 71.3598 94.2325 71.3767C94.5475 71.3936 94.782 71.4021 94.9361 71.4021C95.0436 71.4021 95.0969 71.3674 95.0969 71.298C95.0952 71.215 94.9691 71.1498 94.7151 71.1041ZM91.6121 67.7005H89.332C89.2084 67.7005 89.1474 67.6657 89.1474 67.5972C89.1474 67.5743 89.1593 67.5404 89.1821 67.4939L90.4834 64.6939C90.5139 64.6245 90.5444 64.5898 90.5757 64.5898C90.6062 64.5898 90.6367 64.6245 90.6663 64.6939L91.7958 67.4702C91.8186 67.5311 91.8305 67.5735 91.8305 67.5963C91.8313 67.6657 91.7577 67.7005 91.6121 67.7005Z" fill="#AAA097"/>
<path d="M89.6283 63.716C89.9505 63.716 90.2117 63.4549 90.2117 63.1327C90.2117 62.8105 89.9505 62.5493 89.6283 62.5493C89.3061 62.5493 89.045 62.8105 89.045 63.1327C89.045 63.4549 89.3061 63.716 89.6283 63.716Z" fill="#AAA097"/>
<path d="M92.1226 63.716C92.4448 63.716 92.706 63.4549 92.706 63.1327C92.706 62.8105 92.4448 62.5493 92.1226 62.5493C91.8004 62.5493 91.5392 62.8105 91.5392 63.1327C91.5392 63.4549 91.8004 63.716 92.1226 63.716Z" fill="#AAA097"/>
<path d="M117.757 75.4593H2.00238V75.671H117.757V75.4593Z" fill="#AAA097"/>
<path d="M0.170166 2.95742C8.22875 2.04386 19.4793 2.56372 31.7018 4.71933C43.9277 6.8741 54.677 10.2337 61.9363 13.849C57.0172 9.46745 45.6794 5.04107 32.0701 2.64076C18.459 0.241305 6.28989 0.522399 0.170166 2.95742Z" fill="#C3004A"/>
<path d="M0.170166 26.9825C3.10218 23.2605 7.94512 18.8155 13.8718 14.6533C19.7985 10.4902 25.6219 7.44138 30.1177 5.9487C26.2636 6.15105 19.7536 8.99671 13.1555 13.6322C6.55489 18.2677 1.66962 23.4273 0.170166 26.9825Z" fill="#C3004A"/>
<path d="M91.8957 29.6105C94.2418 25.389 98.2982 20.0533 103.604 14.9378C108.911 9.8222 114.403 5.95293 118.709 3.76514C114.838 4.54407 108.716 8.40573 102.808 14.1004C96.8995 19.7943 92.8169 25.77 91.8957 29.6105Z" fill="#C3004A"/>
<path d="M62.4689 37.2441C64.3341 32.6382 67.8842 26.6988 72.5747 20.679C77.2686 14.6601 82.1624 9.76885 86.1747 6.83514C82.4418 8.29226 76.8157 13.2097 71.5926 19.9111C66.3686 26.6125 62.9718 33.269 62.4689 37.2441Z" fill="#C3004A"/>
<path d="M32.1116 30.061C34.5136 26.8529 38.6665 22.6103 43.6356 19.0907C48.6039 15.5711 53.3943 13.479 57.2162 12.2758C53.9049 12.3554 48.178 14.2791 42.6484 18.1983C37.1154 22.1167 33.2842 26.963 32.1116 30.061Z" fill="#C3004A"/>
<path d="M32.264 35.7353C30.9076 31.9711 30.0593 26.5625 30.0593 20.5537C30.0593 14.5424 30.9085 9.13556 32.264 5.37128C30.2235 8.08316 28.8147 13.8625 28.8147 20.5503C28.8147 27.2424 30.2235 33.0226 32.264 35.7353Z" fill="#C3004A"/>
<path d="M90.8272 29.7892C89.4717 26.096 88.6216 20.7908 88.6216 14.8929C88.6216 8.99924 89.4725 3.69232 90.8272 0C88.7867 2.66023 87.377 8.32952 87.377 14.8929C87.377 21.458 88.7867 27.1289 90.8272 29.7892Z" fill="#C3004A"/>
<path d="M61.916 39.2388C60.5597 35.6126 59.7096 30.4047 59.7096 24.6135C59.7096 18.824 60.5605 13.374 61.916 9.74768C59.8747 12.3605 58.465 18.167 58.465 24.6135C58.465 31.0592 59.8747 36.626 61.916 39.2388Z" fill="#C3004A"/>
<path d="M0 30.4487C8.61824 29.9306 20.7137 30.7882 33.9133 33.1149C47.1146 35.4424 58.774 38.7749 66.6938 42.2073C61.2607 38.1839 48.9307 33.8938 34.2333 31.3005C19.536 28.7105 6.48209 28.5251 0 30.4487Z" fill="#C3004A"/>
<path d="M59.216 13.976C66.3543 10.3818 76.9283 7.05444 88.9569 4.93353C100.987 2.81178 112.063 2.32241 120 3.25798C113.967 0.807718 101.985 0.492758 88.5903 2.85581C75.1977 5.21717 64.0454 9.60968 59.216 13.976Z" fill="#C3004A"/>
<path d="M60.4369 41.2548C67.4388 37.8393 77.7953 34.644 89.564 32.5688C101.335 30.4945 112.16 29.9526 119.906 30.7696C114.031 28.5192 102.327 28.316 89.2228 30.6282C76.1189 32.9379 65.1892 37.1332 60.4369 41.2548Z" fill="#C3004A"/>
</g>
<defs>
<clipPath id="clip0_1_2656">
<rect width="120" height="86.0782" fill="white"/>
</clipPath>
</defs>
</svg>
