<svg width="224" height="43" viewBox="0 0 224 43" fill="none" xmlns="http://www.w3.org/2000/svg">
<g clip-path="url(#clip0_1_2699)">
<path fill-rule="evenodd" clip-rule="evenodd" d="M13.2451 15.2259H11.3138L9.55791 24.3634C8.96515 27.4459 7.51651 28.5389 4.99217 28.5389C2.35827 28.5389 1.67794 27.2927 2.11695 24.9317L3.98255 15.2259H2.00703L0.185365 24.8443C-0.385302 27.8174 0.3828 30.2003 4.70696 30.2003C8.41653 30.2003 10.7429 28.4295 11.4674 24.582L13.2451 15.2259Z" fill="#6B6C72"/>
<path fill-rule="evenodd" clip-rule="evenodd" d="M24.2158 22.5928C24.633 20.3193 23.9524 18.8985 21.9331 18.8985C19.6504 18.8985 17.9163 21.1063 16.8847 23.4016H16.8409C17.609 21.0843 17.9163 19.8384 18.0482 19.1169H16.1385C15.8533 20.7128 15.4582 22.7457 15.1727 24.298L14.0752 29.9817H16.0067L16.4678 27.5333C16.9725 24.8443 19.2113 20.5816 21.2307 20.5816C22.2185 20.5816 22.5258 21.3249 22.1965 23.03L20.8577 29.9817H22.7892L24.2158 22.5928Z" fill="#6B6C72"/>
<path fill-rule="evenodd" clip-rule="evenodd" d="M31.3686 15.9909C31.4125 15.3133 30.8638 14.7667 30.1615 14.7667C29.437 14.7667 28.8003 15.3351 28.7785 16.0784C28.7346 16.7559 29.2614 17.3243 29.9856 17.3243C30.6882 17.3242 31.3247 16.7341 31.3686 15.9909ZM30.4467 19.1168H28.5151L26.4298 29.9817H28.3616L30.4467 19.1168Z" fill="#6B6C72"/>
<path fill-rule="evenodd" clip-rule="evenodd" d="M42.2538 19.2917L40.4318 18.6579L35.8225 27.5988H35.8006C35.7565 26.9429 35.6687 26.1779 35.5591 25.5002L34.5494 19.1168H32.4641L34.3956 29.9817H36.4149L42.2538 19.2917Z" fill="#6B6C72"/>
<path fill-rule="evenodd" clip-rule="evenodd" d="M51.5538 21.3903C51.5538 20.1007 50.6759 18.9202 48.3492 18.9202C44.7277 18.9202 42.379 22.4396 42.379 26.6589C42.379 29.1072 43.5424 30.1783 46.0446 30.1783C47.4712 30.1783 48.7443 29.938 49.7979 29.5225V27.9485C48.8542 28.342 47.7567 28.5826 46.725 28.5826C44.969 28.5826 44.3765 28.1454 44.3765 26.462C44.3765 26.0685 44.4202 25.5221 44.4861 25.1941C49.1615 25.0192 51.5538 23.7295 51.5538 21.3903ZM49.6005 21.6309C49.6005 22.9426 48.1079 23.6201 44.7277 23.7513C45.2324 21.915 46.3958 20.4067 48.1297 20.4067C49.0077 20.4067 49.6005 20.8439 49.6005 21.6309Z" fill="#6B6C72"/>
<path fill-rule="evenodd" clip-rule="evenodd" d="M60.376 18.9202C58.2686 18.5704 56.9517 20.4941 55.7225 23.1392L55.6786 23.1174C56.3153 21.2154 56.6226 20.0569 56.7982 19.1168H54.9105L52.8473 29.9817H54.7788L55.2396 27.5333C55.8103 24.5165 57.9613 20.2536 59.9807 20.8222L60.376 18.9202Z" fill="#6B6C72"/>
<path fill-rule="evenodd" clip-rule="evenodd" d="M67.4212 19.0733C66.8723 18.9857 66.3237 18.9202 65.5554 18.9202C62.724 18.9202 61.2314 20.363 61.2314 22.221C61.2314 24.8443 64.5238 25.1286 64.5238 26.8555C64.5238 27.9922 63.5581 28.5606 62.1313 28.5606C61.5167 28.5606 60.9241 28.4514 60.3535 28.2765L60.0023 30.0254C60.5509 30.1345 61.1437 30.1783 61.8679 30.1783C64.9629 30.1783 66.5651 28.4514 66.5651 26.6368C66.5651 24.1885 63.2508 23.7295 63.2508 22.0024C63.2508 21.0843 63.9971 20.4067 65.4237 20.4067C65.9726 20.4067 66.5432 20.4941 67.07 20.669L67.4212 19.0733Z" fill="#6B6C72"/>
<path fill-rule="evenodd" clip-rule="evenodd" d="M73.8058 15.9909C73.8497 15.3133 73.3011 14.7667 72.5987 14.7667C71.8742 14.7667 71.2378 15.3351 71.2157 16.0784C71.1718 16.7559 71.6986 17.3243 72.4231 17.3243C73.1255 17.3242 73.7619 16.7341 73.8058 15.9909ZM72.8839 19.1168H70.9524L68.8673 29.9817H70.7989L72.8839 19.1168Z" fill="#6B6C72"/>
<path fill-rule="evenodd" clip-rule="evenodd" d="M81.8594 19.1168H78.8964L79.6645 15.1384L77.6233 15.5974L76.9427 19.1168H74.7478L74.4405 20.6473H76.6575L75.494 26.6368C75.0332 29.1072 75.6039 30.1565 77.8427 30.1565C78.4791 30.1565 79.2475 30.069 79.8839 29.9379L80.0156 28.2982C79.5766 28.4077 79.1158 28.4731 78.5013 28.4731C77.4256 28.4731 77.2062 28.0142 77.5135 26.3308L78.5891 20.6472H81.5522L81.8594 19.1168Z" fill="#6B6C72"/>
<path fill-rule="evenodd" clip-rule="evenodd" d="M92.6357 19.27C91.626 19.0733 90.4628 18.9419 89.2116 18.9419C84.4487 18.9419 82.3634 22.8989 82.3634 26.8992C82.3634 29.1947 83.2195 30.2003 84.7999 30.2003C87.4556 30.2003 89.102 27.2272 89.8922 25.5439L89.936 25.5659C89.2776 27.5988 88.8604 29.0416 88.663 29.9817H90.6164C91.0774 27.3801 91.4725 25.3472 92.6357 19.27ZM90.4407 20.6908L90.2872 21.5652C89.7823 24.1668 87.5434 28.5169 85.4802 28.5169C84.7998 28.5169 84.3609 27.9485 84.3609 26.5277C84.3609 23.8387 85.6339 20.4941 88.8825 20.4941C89.497 20.4941 90.0018 20.5816 90.4407 20.6908ZM92.8773 15.6194C92.8773 15.029 92.3944 14.5043 91.7359 14.5043C91.0774 14.5043 90.5067 15.029 90.5067 15.7066C90.5067 16.3407 91.0115 16.8436 91.6699 16.8436C92.3283 16.8436 92.8773 16.3407 92.8773 15.6194ZM88.663 15.6194C88.663 15.029 88.1801 14.5043 87.5216 14.5043C86.8631 14.5043 86.2924 15.029 86.2924 15.7285C86.2924 16.3407 86.7971 16.8435 87.4556 16.8435C88.114 16.8435 88.663 16.3407 88.663 15.6194Z" fill="#6B6C72"/>
<path fill-rule="evenodd" clip-rule="evenodd" d="M101.396 19.1168H98.4333L99.2014 15.1384L97.16 15.5974L96.4797 19.1168H94.2847L93.9774 20.6473H96.1944L95.031 26.6368C94.57 29.1072 95.1406 30.1565 97.3797 30.1565C98.0161 30.1565 98.7842 30.069 99.4209 29.9379L99.5526 28.2982C99.1136 28.4077 98.6528 28.4731 98.0382 28.4731C96.9626 28.4731 96.7431 28.0142 97.0504 26.3308L98.1261 20.6472H101.089L101.396 19.1168Z" fill="#6B6C72"/>
<path fill-rule="evenodd" clip-rule="evenodd" d="M154.811 15.2259H152.286L147.37 24.6477C146.821 25.697 146.47 26.4183 146.053 27.4459H146.009C146.009 26.5715 145.921 25.5876 145.767 24.5166L144.494 15.2259H142.102L137.163 29.9818H139.248L141.838 21.6527C142.299 20.2099 142.65 19.0295 142.958 17.8272H142.98C142.98 18.7671 143.111 20.0133 143.265 21.1281L144.494 29.9818H146.601L151.496 20.4943C152.045 19.445 152.44 18.5268 152.725 17.8272H152.769C152.681 18.7017 152.593 19.8821 152.506 21.5653L152.089 29.9818H154.174L154.811 15.2259Z" fill="#F47920"/>
<path fill-rule="evenodd" clip-rule="evenodd" d="M167.824 19.1168H165.892L165.432 21.5652C164.927 24.2542 162.666 28.5169 160.647 28.5169C159.681 28.5169 159.374 27.7736 159.703 26.0685L161.042 19.1168H159.088L157.684 26.5057C157.244 28.7792 157.947 30.2003 159.966 30.2003C162.249 30.2003 163.961 27.9923 164.993 25.697H165.037C164.268 28.0142 163.983 29.2602 163.829 29.9817H165.761L167.824 19.1168ZM167.341 15.6194C167.341 15.029 166.858 14.5043 166.2 14.5043C165.541 14.5043 164.971 15.029 164.971 15.7066C164.971 16.3407 165.476 16.8436 166.134 16.8436C166.792 16.8436 167.341 16.3407 167.341 15.6194ZM163.127 15.6194C163.127 15.029 162.644 14.5043 161.985 14.5043C161.327 14.5043 160.756 15.029 160.756 15.7285C160.756 16.3407 161.261 16.8435 161.92 16.8435C162.578 16.8435 163.127 16.3407 163.127 15.6194Z" fill="#F47920"/>
<path fill-rule="evenodd" clip-rule="evenodd" d="M179.52 22.5928C179.938 20.3193 179.257 18.8985 177.238 18.8985C174.955 18.8985 173.221 21.1063 172.189 23.4016H172.145C172.914 21.0843 173.221 19.8384 173.352 19.1169H171.443C171.158 20.7128 170.762 22.7457 170.477 24.298L169.38 29.9818H171.311L171.772 27.5334C172.277 24.8444 174.516 20.5817 176.535 20.5817C177.523 20.5817 177.83 21.325 177.501 23.0301L176.162 29.9818H178.094L179.52 22.5928Z" fill="#F47920"/>
<path fill-rule="evenodd" clip-rule="evenodd" d="M190.251 19.27C189.57 19.0733 188.846 18.942 187.946 18.942C184.039 18.942 181.691 22.4179 181.691 26.5714C181.691 28.6263 182.656 30.1566 185.488 30.1566C186.585 30.1566 187.595 29.916 188.363 29.6319L188.495 27.9048C187.815 28.2328 186.893 28.4294 186.037 28.4294C184.127 28.4294 183.754 27.271 183.754 26.1342C183.754 23.6638 185.049 20.5596 187.815 20.5596C188.583 20.5596 189.219 20.7127 189.812 20.9751L190.251 19.27Z" fill="#F47920"/>
<path fill-rule="evenodd" clip-rule="evenodd" d="M200.921 22.5928C201.36 20.3193 200.658 18.8985 198.639 18.8985C196.356 18.8985 194.622 21.1063 193.59 23.4016H193.546C194.359 21.0189 194.6 19.9696 194.776 19.1169L195.763 14.0235H193.832L190.781 29.9817H192.712L193.173 27.5334C193.678 24.8444 195.917 20.5817 197.936 20.5817C198.924 20.5817 199.231 21.3249 198.902 23.03L197.563 29.9817H199.495L200.921 22.5928Z" fill="#F47920"/>
<path fill-rule="evenodd" clip-rule="evenodd" d="M212.311 21.3903C212.311 20.1007 211.433 18.9202 209.106 18.9202C205.484 18.9202 203.135 22.4396 203.135 26.6589C203.135 29.1072 204.299 30.1783 206.801 30.1783C208.228 30.1783 209.501 29.938 210.555 29.5225V27.9485C209.611 28.342 208.513 28.5826 207.481 28.5826C205.725 28.5826 205.133 28.1454 205.133 26.462C205.133 26.0685 205.177 25.5221 205.243 25.1941C209.918 25.0192 212.311 23.7295 212.311 21.3903ZM210.357 21.6309C210.357 22.9426 208.864 23.6201 205.484 23.7513C205.989 21.915 207.152 20.4067 208.886 20.4067C209.764 20.4067 210.357 20.8439 210.357 21.6309Z" fill="#F47920"/>
<path fill-rule="evenodd" clip-rule="evenodd" d="M223.745 22.5928C224.161 20.3193 223.481 18.8985 221.462 18.8985C219.179 18.8985 217.445 21.1063 216.413 23.4016H216.369C217.138 21.0843 217.445 19.8384 217.577 19.1169H215.667C215.382 20.7128 214.987 22.7457 214.701 24.298L213.604 29.9818H215.535L215.996 27.5334C216.501 24.8444 218.74 20.5817 220.759 20.5817C221.747 20.5817 222.054 21.325 221.725 23.0301L220.386 29.9818H222.318L223.745 22.5928Z" fill="#F47920"/>
<path fill-rule="evenodd" clip-rule="evenodd" d="M106.123 0.461914H105.146L104.674 2.98687C104.4 2.94317 104.181 2.92116 103.906 2.92116C101.525 2.92116 100.482 4.89972 100.482 6.89977C100.482 8.04762 100.91 8.55031 101.7 8.55031C103.028 8.55031 103.851 7.06378 104.246 6.22219L104.268 6.23307C103.939 7.24954 103.731 7.97103 103.643 8.44089H104.609C104.685 7.99283 104.828 7.23866 104.971 6.48454L106.123 0.461914ZM104.521 3.79558L104.444 4.23281C104.191 5.53359 103.072 7.70878 102.04 7.70878C101.7 7.70878 101.481 7.42447 101.481 6.71406C101.481 5.36958 102.117 3.69728 103.742 3.69728C104.049 3.69728 104.301 3.74099 104.521 3.79558Z" fill="#6B6C72"/>
<path fill-rule="evenodd" clip-rule="evenodd" d="M111.008 4.1454C111.008 3.5007 110.569 2.91034 109.406 2.91034C107.595 2.91034 106.421 4.67005 106.421 6.77978C106.421 8.00397 107.002 8.53949 108.253 8.53949C108.967 8.53949 109.603 8.4192 110.13 8.21148V7.42448C109.658 7.62137 109.109 7.74167 108.594 7.74167C107.716 7.74167 107.419 7.52308 107.419 6.68124C107.419 6.4846 107.441 6.21142 107.474 6.04742C109.812 5.95995 111.008 5.315 111.008 4.1454ZM110.032 4.26565C110.032 4.92147 109.285 5.26037 107.595 5.32583C107.848 4.4077 108.429 3.65353 109.296 3.65353C109.735 3.65358 110.032 3.87217 110.032 4.26565Z" fill="#6B6C72"/>
<path fill-rule="evenodd" clip-rule="evenodd" d="M115.419 2.91029C114.366 2.7354 113.707 3.69729 113.093 5.01977L113.07 5.00889C113.389 4.05788 113.542 3.47865 113.63 3.00858H112.687L111.655 8.4409H112.621L112.851 7.21696C113.136 5.70847 114.212 3.57699 115.221 3.86129L115.419 2.91029Z" fill="#6B6C72"/>
<path fill-rule="evenodd" clip-rule="evenodd" d="M123.483 2.45135C123.483 1.57693 122.824 1.03027 121.409 1.03027C120.564 1.03027 119.817 1.05228 119.291 1.06311L117.886 8.44089C118.588 8.45202 119.291 8.47372 119.752 8.47372C121.837 8.47372 122.989 7.29325 122.989 5.91614C122.989 5.27119 122.583 4.70283 121.881 4.56078V4.55C122.693 4.25482 123.483 3.56611 123.483 2.45135ZM122.429 2.66994C122.429 3.68641 121.507 4.25477 120.3 4.25477C120.048 4.25477 119.872 4.25477 119.664 4.24389L120.125 1.86098C120.432 1.85011 120.772 1.83923 121.134 1.83923C122.144 1.83928 122.429 2.17792 122.429 2.66994ZM121.936 6.00365C121.936 6.88895 121.233 7.6542 119.927 7.6542C119.521 7.6542 119.214 7.63219 119.027 7.59936L119.521 5.01981C119.697 5.00894 120.07 5.00894 120.355 5.00894C121.442 5.00894 121.936 5.34783 121.936 6.00365Z" fill="#6B6C72"/>
<path fill-rule="evenodd" clip-rule="evenodd" d="M129.398 3.00864H128.433L128.202 4.23282C127.95 5.5773 126.819 7.70879 125.81 7.70879C125.327 7.70879 125.173 7.33702 125.338 6.4846L126.007 3.00864H125.03L124.328 6.7032C124.108 7.83997 124.46 8.55038 125.469 8.55038C126.611 8.55038 127.467 7.44649 127.982 6.29884H128.005C127.62 7.45732 127.478 8.08031 127.401 8.44095H128.367L129.398 3.00864Z" fill="#6B6C72"/>
<path fill-rule="evenodd" clip-rule="evenodd" d="M135.246 4.74659C135.455 3.60982 135.115 2.89941 134.105 2.89941C132.964 2.89941 132.097 4.0033 131.581 5.15094H131.559C131.943 3.99247 132.097 3.36948 132.162 3.00858H131.208C131.065 3.80666 130.868 4.82313 130.725 5.59926L130.176 8.4409H131.142L131.372 7.21697C131.625 5.87248 132.744 3.741 133.754 3.741C134.248 3.741 134.401 4.11277 134.237 4.96518L133.567 8.4409H134.533L135.246 4.74659Z" fill="#6B6C72"/>
<path fill-rule="evenodd" clip-rule="evenodd" d="M141.962 0.461914H140.985L140.513 2.98687C140.239 2.94317 140.019 2.92116 139.745 2.92116C137.363 2.92116 136.32 4.89972 136.32 6.89977C136.32 8.04762 136.749 8.55031 137.539 8.55031C138.867 8.55031 139.69 7.06378 140.085 6.22219L140.107 6.23307C139.778 7.24954 139.569 7.97103 139.481 8.44089H140.447C140.524 7.99283 140.666 7.23866 140.809 6.48454L141.962 0.461914ZM140.359 3.79558L140.282 4.23281C140.03 5.53359 138.91 7.70878 137.879 7.70878C137.539 7.70878 137.319 7.42447 137.319 6.71406C137.319 5.36958 137.956 3.69728 139.58 3.69728C139.887 3.69728 140.14 3.74099 140.359 3.79558Z" fill="#6B6C72"/>
<path fill-rule="evenodd" clip-rule="evenodd" d="M146.847 4.1454C146.847 3.5007 146.408 2.91034 145.244 2.91034C143.434 2.91034 142.259 4.67005 142.259 6.77978C142.259 8.00397 142.841 8.53949 144.092 8.53949C144.805 8.53949 145.442 8.4192 145.969 8.21148V7.42448C145.497 7.62137 144.948 7.74167 144.432 7.74167C143.554 7.74167 143.258 7.52308 143.258 6.68124C143.258 6.4846 143.28 6.21142 143.313 6.04742C145.65 5.95995 146.847 5.315 146.847 4.1454ZM145.87 4.26565C145.87 4.92147 145.124 5.26037 143.434 5.32583C143.686 4.4077 144.268 3.65353 145.134 3.65353C145.573 3.65358 145.87 3.87217 145.87 4.26565Z" fill="#6B6C72"/>
<path fill-rule="evenodd" clip-rule="evenodd" d="M150.95 2.98688C150.676 2.94318 150.402 2.91029 150.017 2.91029C148.602 2.91029 147.855 3.63183 147.855 4.56084C147.855 5.87249 149.502 6.01449 149.502 6.87808C149.502 7.44644 149.019 7.73054 148.305 7.73054C147.998 7.73054 147.702 7.67596 147.416 7.58849L147.241 8.46291C147.515 8.51749 147.812 8.5395 148.174 8.5395C149.721 8.5395 150.522 7.67596 150.522 6.76866C150.522 5.54447 148.865 5.31501 148.865 4.45141C148.865 3.99248 149.238 3.65359 149.952 3.65359C150.226 3.65359 150.511 3.69729 150.775 3.78476L150.95 2.98688Z" fill="#6B6C72"/>
<path fill-rule="evenodd" clip-rule="evenodd" d="M159.948 3.08517L159.037 2.79024L156.908 7.27155H156.898C156.886 6.92178 156.832 6.28771 156.777 5.89418L156.382 3.00858H155.361L153.276 7.26067H153.265C153.265 6.89977 153.221 6.408 153.177 5.90531L152.914 3.00858H151.882L152.486 8.44089H153.55L155.613 4.26564H155.624C155.635 4.64824 155.668 5.01976 155.712 5.35865L156.14 8.44089H157.249L159.948 3.08517Z" fill="#6B6C72"/>
<path fill-rule="evenodd" clip-rule="evenodd" d="M164.644 4.1454C164.644 3.5007 164.205 2.91034 163.041 2.91034C161.23 2.91034 160.056 4.67005 160.056 6.77978C160.056 8.00397 160.638 8.53949 161.889 8.53949C162.602 8.53949 163.239 8.4192 163.766 8.21148V7.42448C163.294 7.62137 162.745 7.74167 162.229 7.74167C161.351 7.74167 161.055 7.52308 161.055 6.68124C161.055 6.4846 161.077 6.21142 161.11 6.04742C163.447 5.95995 164.644 5.315 164.644 4.1454ZM163.667 4.26565C163.667 4.92147 162.921 5.26037 161.23 5.32583C161.483 4.4077 162.065 3.65353 162.932 3.65353C163.371 3.65358 163.667 3.87217 163.667 4.26565Z" fill="#6B6C72"/>
<path fill-rule="evenodd" clip-rule="evenodd" d="M170.361 4.74659C170.58 3.60982 170.229 2.89941 169.219 2.89941C168.078 2.89941 167.211 4.00329 166.695 5.15094H166.673C167.079 3.95958 167.2 3.43493 167.288 3.00858L167.782 0.461914H166.816L165.29 8.44094H166.256L166.487 7.21701C166.739 5.87253 167.858 3.74104 168.868 3.74104C169.362 3.74104 169.516 4.11282 169.351 4.96523L168.682 8.44094H169.647L170.361 4.74659Z" fill="#6B6C72"/>
<path fill-rule="evenodd" clip-rule="evenodd" d="M175.232 2.91029C174.178 2.7354 173.52 3.69729 172.905 5.01977L172.883 5.00889C173.202 4.05788 173.355 3.47865 173.443 3.00858H172.499L171.468 8.4409H172.434L172.664 7.21696C172.949 5.70847 174.025 3.57699 175.034 3.86129L175.232 2.91029Z" fill="#6B6C72"/>
<path d="M124.039 30.9643C123.892 31.3706 123.28 31.4917 123.123 31.1777C122.967 30.8645 122.841 30.8208 122.592 30.6274C122.305 30.4051 122.712 30.3184 122.712 30.3184C122.65 30.2776 122.47 30.1877 122.238 30.1247C121.882 30.0282 121.931 29.6033 122.299 29.5887C122.798 29.5694 123.07 29.6362 123.493 29.8903C123.761 30.0518 124.026 30.1169 124.34 30.1415C124.734 30.1724 124.714 31.0155 124.117 30.9747L124.039 30.9643Z" fill="#F47920"/>
<path d="M110.042 40.214L109.873 40.2794C109.518 40.417 109.317 39.9183 109.669 39.773L109.866 39.6967L110.93 39.2849C111.466 39.1174 111.803 39.0535 112.365 39.0171C113.997 38.9114 114.26 39.3553 115.64 39.9229C117.249 40.5847 118.112 41.1725 120 41.1459C121.95 41.1182 124.308 39.9531 125.989 39.0821C126.324 38.9087 126.582 39.3163 126.28 39.5423C124.546 40.8413 121.745 42.1157 119.513 42.1169C116.353 42.1187 115.782 40.5511 113.078 39.8755C112.237 39.6653 110.876 39.9096 110.042 40.214Z" fill="#F47920"/>
<path d="M109.977 21.0352C109.779 23.0557 109.972 24.9737 110.83 26.8268C111.585 28.4549 111.946 29.0591 111.987 30.9826C112.038 33.4393 111.825 34.811 111.617 38.3167L111.617 38.4846C111.617 38.8235 110.609 38.9626 110.437 39.0194C108.974 39.504 107.638 40.3058 106.494 41.3317C106.213 41.5834 105.86 41.2489 106.098 40.957C107.026 39.8185 107.838 39.1775 109.053 38.5844C109.233 38.4965 110.022 38.1035 110.677 37.9123C110.823 35.9172 111.201 30.3708 110.828 29.1895C110.557 28.3327 110.084 27.5691 109.771 26.7379C109.236 25.3176 108.934 23.2644 109.023 21.7418C109.109 20.2479 109.496 18.8137 110.237 17.5229C110.424 17.1968 110.862 17.4001 110.732 17.7526C110.275 18.9884 110.106 19.7243 109.977 21.0352Z" fill="#F47920"/>
<path d="M115.419 36.5933C115.067 36.9435 114.457 37.3506 113.708 37.3899C113.335 37.4094 113.258 36.9606 113.617 36.8556C114.176 36.6915 114.613 36.3447 114.908 36.0505C115.028 35.9315 115.311 35.4708 115.563 34.833C115.698 34.4894 116.126 34.591 116.091 34.9583C116.016 35.7522 115.676 36.3378 115.419 36.5933Z" fill="#F47920"/>
<path d="M116.859 32.626C116.806 32.3587 116.906 31.8412 117.057 31.3813C117.175 31.0209 117.694 31.1871 117.579 31.5488C117.404 32.0955 117.469 32.3704 117.67 32.8681C117.745 33.0533 117.841 33.2349 117.971 33.3796C118.224 33.662 117.854 34.0194 117.578 33.7593C117.18 33.384 116.919 32.9226 116.859 32.626Z" fill="#F47920"/>
<path d="M126.208 25.5125C125.37 25.5019 124.877 25.8178 124.433 26.1288C124.138 26.3356 123.851 26.0636 124.044 25.76C124.68 24.7581 125.761 24.5598 126.862 24.652C127.32 24.6905 127.836 26.2995 127.059 25.8159C126.733 25.613 126.459 25.5154 126.208 25.5125Z" fill="#F47920"/>
<path d="M113.303 21.5899C112.616 24.1818 113.269 26.1384 115.492 27.6437C115.589 27.7092 115.635 27.8826 115.585 27.9875C115.321 28.5342 115.261 29.1132 115.407 29.7023C115.494 30.055 115.117 30.2213 114.913 29.9199C114.531 29.354 114.386 28.7315 114.504 28.0643C112.769 26.9518 111.957 25.1133 112.086 23.0611C112.189 21.412 113.096 19.7005 114.219 18.518C114.479 18.2436 114.866 18.5704 114.636 18.871C113.915 19.8144 113.606 20.4433 113.303 21.5899Z" fill="#F47920"/>
<path d="M123.933 34.3486L124.16 34.3425C124.266 34.3333 124.338 34.3121 124.333 34.2261C124.005 33.2539 125.131 33.755 125.567 33.8571C125.56 32.9362 125.53 31.7911 125.53 31.0565C125.53 30.5439 126.108 29.9745 126.332 29.4936C126.382 29.3869 126.475 29.1164 126.583 28.8901C125.804 29.1702 124.935 28.7864 124.41 28.1765C124.17 27.8967 124.458 27.5689 124.768 27.7705C125.41 28.1874 126.039 28.3902 126.66 27.8589C126.927 27.7416 127.101 27.8021 127.245 27.9145L127.379 28.0279C127.676 27.6042 127.647 27.0798 127.5 26.6638C127.309 26.1239 127.058 25.8366 126.548 25.574L125.217 23.286C124.805 22.4977 125.145 21.3775 124.263 20.5288C124.065 20.3381 123.569 20.1407 123.502 20.0005C123.195 19.3523 122.399 18.1066 121.729 17.7003C120.911 17.2048 119.193 17.081 118.248 17.1452C117.869 17.1709 117.81 16.665 118.185 16.6035C118.741 16.5126 119.307 16.4622 119.87 16.4709C119.797 16.0665 119.714 14.3542 120.008 14.0618L120.548 13.5235L120.23 13.3333L119.11 13.0853L117.29 12.9558C116.913 12.9292 116.912 12.4393 117.289 12.4117C117.289 12.4117 118.374 12.2286 119.068 12.2802C119.617 12.3213 119.959 12.32 120.453 12.5492C121.05 12.8259 121.87 13.2873 120.861 14.1812L120.658 14.4342C120.552 15.1202 120.596 15.8345 120.804 16.498C122.378 16.765 123.455 17.9852 124.148 19.3475C125.46 19.9525 126.027 21.5625 126.046 22.9206C126.387 23.6008 126.746 24.3086 127.194 24.9241C127.777 25.1874 128.222 25.9484 128.299 26.2236C128.482 26.8744 128.657 28.5032 127.852 28.8884C127.791 28.918 127.725 28.942 127.655 28.9639C127.472 29.085 127.381 29.1598 127.283 29.2065C127.049 29.728 126.787 30.1814 126.468 30.6639C126.376 30.8042 126.192 31.0693 126.192 31.2459C126.192 32.4442 126.227 33.359 126.268 34.3041C126.29 34.8105 125.493 34.497 124.984 34.399C124.925 34.5366 124.882 34.6248 124.815 34.7436C124.819 35.0946 124.637 35.4532 124.355 35.6635C124.338 35.8228 124.48 36.1514 124.48 36.3623C124.48 36.65 124.351 36.8758 124.193 37.0615C125.333 37.6637 126.04 37.4219 127.29 37.6018C129.356 37.8992 130.776 39.7229 131.743 41.4147L131.971 42.5467C132.041 42.915 131.583 43.0452 131.447 42.6962C130.797 41.0375 129.547 39.3049 127.85 38.5938C126.732 38.1254 126.541 38.2712 125.48 38.2275C124.616 38.1921 124.29 37.7169 123.52 37.6499C123.095 37.6131 122.688 37.5314 122.284 37.42C122.242 37.5002 122.187 37.5914 122.141 37.7013C122.005 38.0309 122.054 38.8828 122.054 39.2301C122.054 39.6063 121.568 39.6441 121.51 39.2724C121.377 38.4303 121.238 38.1265 121.376 37.2488C120.517 36.9593 119.969 36.5453 119.373 35.969C119.181 35.784 118.984 35.5822 118.771 35.3624C118.514 35.0588 118.9 34.7108 119.165 34.983C119.351 35.2016 119.522 35.3777 119.721 35.5481C119.884 35.688 120.066 35.8241 120.284 35.9695C120.904 36.3836 121.318 36.5641 122.019 36.7407L123.026 36.8879C123.851 36.9949 123.886 35.9954 123.661 35.5835C123.575 35.4273 123.713 35.2189 123.838 35.0667C123.385 34.9876 122.929 34.8585 122.542 34.6251C122.221 34.4312 122.421 34.0095 122.775 34.1345C123.15 34.2669 123.535 34.338 123.933 34.3486Z" fill="#F47920"/>
<path d="M123.007 23.4541C122.244 23.6584 121.828 23.8187 121.125 24.1786C120.789 24.3505 120.533 23.9363 120.839 23.7152C121.918 22.9342 123.139 22.5735 124.464 22.6372C124.841 22.6555 124.855 23.1419 124.48 23.1811C123.899 23.2425 123.571 23.303 123.007 23.4541Z" fill="#F47920"/>
<path d="M116.785 28.2662C117.27 27.6583 117.608 26.961 117.796 26.2086C117.875 25.8909 118.186 25.8667 118.314 26.1675C118.511 26.6302 118.924 26.9167 119.426 26.9424C119.802 26.9614 119.823 27.4317 119.451 27.4848C119.055 27.5417 118.63 27.5108 118.25 27.3771C117.851 28.3131 117.182 29.1312 116.24 29.5577C115.901 29.7114 115.664 29.3285 115.955 29.0963C116.316 28.8086 116.498 28.6268 116.785 28.2662Z" fill="#F47920"/>
</g>
<defs>
<clipPath id="clip0_1_2699">
<rect width="224" height="43" fill="white"/>
</clipPath>
</defs>
</svg>
